<svg width="38" height="56" viewBox="0 0 38 56" fill="none" xmlns="http://www.w3.org/2000/svg">
<path d="M33.6113 30.1173C32.9917 28.0085 31.3846 26.4461 30.3752 24.5259C28.7461 21.4269 28.6603 17.3799 26.3787 14.8213C25.2337 13.5374 23.679 12.8113 22.1676 12.1168C19.5336 10.9066 16.8996 9.69654 14.2657 8.48628C13.2684 8.02814 12.2476 7.56362 11.1681 7.49148C9.22746 7.36142 7.40603 8.5145 5.89885 9.85924C5.23067 10.4553 4.58467 11.1134 4.17403 11.9431C3.24448 13.8213 3.69704 16.1336 3.35454 18.2366C2.80739 21.595 1.30313 21.8271 0.353189 25.3494C-0.0814354 27.6207 1.47662 29.6489 2.74172 31.5109C4.00681 33.3729 5.55322 35.0514 6.40565 37.1762C7.04493 38.7698 7.26392 40.5496 8.01661 42.0825C9.21962 44.5327 11.8218 46.0681 14.3526 45.8213C15.9916 45.6613 17.5102 44.8353 19.1138 44.4311C20.2713 44.1394 21.475 44.0697 22.654 44.2262C23.7095 44.3663 24.7453 44.6858 25.8077 44.733C29.4172 44.8934 32.7012 41.6519 33.5691 37.8127C33.8706 36.4786 33.9284 35.0938 33.9477 33.7197C33.9652 32.5072 33.9504 31.2717 33.6113 30.1173Z" fill="#D2D2E1" fill-opacity="0.5"/>
<path d="M27.7324 15.3165C27.3093 14.1456 25.4115 12.4445 24.0079 9.84229L23.0425 10.3132C23.0425 10.3132 25.5325 16.132 26.0513 16.7639C26.0579 16.7696 26.0645 16.7757 26.0711 16.7814C26.8527 17.4752 28.0099 16.7221 27.8191 15.6405C27.8002 15.5342 27.772 15.4264 27.7324 15.3165Z" fill="#EF8D72"/>
<path d="M22.6348 9.89194L21.7585 8.70662C21.7321 8.67052 21.7364 8.6179 21.7684 8.58799C21.799 8.55962 21.8447 8.56116 21.8735 8.59211L22.5463 9.31372L21.9111 8.46987C21.8805 8.42963 21.8857 8.3698 21.9225 8.33627C21.9569 8.30532 22.0068 8.30739 22.0388 8.34143L22.7206 9.07542L22.0746 8.22589C22.0435 8.18514 22.0497 8.12428 22.0878 8.0923C22.1218 8.06393 22.1693 8.06702 22.2 8.09952L22.9241 8.87942L22.4271 8.08559C22.4012 8.04433 22.4106 7.98759 22.4478 7.9587C22.4808 7.93343 22.5251 7.93704 22.5538 7.96696L23.5979 9.05324L23.4471 9.71399L22.6348 9.89194Z" fill="#EF8781"/>
<path d="M24.0081 9.84254C24.0081 9.84254 23.9704 9.56968 23.879 9.33498C23.8696 9.31023 23.8592 9.28701 23.8484 9.2638C23.667 8.87901 23.2684 8.73871 22.948 8.99197L22.8062 9.10442C22.5405 9.31435 22.4858 9.73628 22.7063 10.0014C22.7153 10.0122 22.7247 10.0226 22.7341 10.0324C22.9235 10.2253 23.0427 10.3135 23.0427 10.3135L24.0081 9.84254Z" fill="#EF8781"/>
<path d="M24.0078 9.84238C24.0078 9.84238 23.9819 9.59943 23.94 9.34875C23.9013 9.11819 23.7525 8.92786 23.5503 8.85255C23.4142 8.802 23.4184 8.8118 23.4184 8.8118L23.0815 8.95468C23.0542 8.96654 23.0434 9.00265 23.0589 9.02999L23.074 9.05578C23.1159 9.12799 23.1965 9.16152 23.2719 9.1383L23.449 9.08311L23.4641 9.11045C23.5169 9.20536 23.4914 9.32915 23.4061 9.39053C23.2116 9.53032 22.9298 9.82433 23.1126 10.2798L24.0078 9.84238Z" fill="#EF8D72"/>
<path d="M32.3865 52.5874C32.3799 52.7509 32.3752 52.916 32.3724 53.0836C31.6294 53.1507 30.8807 52.9428 30.5057 52.8154C30.5042 52.7035 30.5024 52.5905 30.5 52.4775C30.5071 52.4806 30.5146 52.4832 30.5217 52.4853C31.0597 52.6488 31.9738 52.6137 32.3865 52.5874Z" fill="#EF8D72"/>
<path d="M36.745 52.6523C36.7309 52.773 36.7177 52.8814 36.7064 52.9763C35.815 53.1047 35.1883 52.9494 34.908 52.853C34.9066 52.7441 34.9042 52.6343 34.9019 52.5244C34.9212 52.5322 34.941 52.5389 34.9612 52.544C35.3565 52.6518 35.9733 52.7741 36.5731 52.7029C36.6334 52.6957 36.6913 52.6781 36.745 52.6523Z" fill="#EF8D72"/>
<path d="M27.0601 20.6245C27.0601 20.6245 29.0436 23.9453 29.7631 25.9544C31.2025 25.6196 30.7624 23.8329 30.7624 23.8329C30.7624 23.8329 29.4173 21.0011 29.3094 20.8897C29.2015 20.7783 28.5569 20.2867 28.5569 20.2867L27.7258 20.1206C27.4605 20.2521 27.0601 20.6245 27.0601 20.6245Z" fill="#576F9B"/>
<path d="M37.7147 43.0759C37.5969 45.2717 37.1055 49.606 36.8346 51.9039C36.7823 52.347 36.738 52.7143 36.7064 52.9758C36.672 53.2574 36.6527 53.4163 36.6527 53.4163L35.3099 54.2385L34.9122 53.4163C34.9122 53.2301 34.9108 53.0418 34.908 52.8525C34.9047 52.6168 34.8995 52.379 34.8924 52.1397C34.7219 46.4122 33.5049 39.7407 33.5049 39.7407H37.0174C37.0174 39.7407 37.5682 41.1865 37.7147 43.0759Z" fill="#FBA284"/>
<path d="M30.4825 28.3564L29.2095 40.1328H32.8897C32.8897 40.1328 36.021 34.2655 36.021 28.3564H30.4825Z" fill="white"/>
<path d="M32.8967 40.147H29.1948L29.1967 40.131L30.4712 28.3423H36.0337V28.3562C36.0337 31.4108 35.1818 34.452 34.4671 36.4652C33.693 38.6465 32.9085 40.1248 32.9005 40.1398L32.8967 40.147ZM29.2236 40.1192H32.8816C32.941 40.0062 33.6967 38.5578 34.4431 36.4554C35.1554 34.4474 36.0049 31.4165 36.0078 28.3712H30.4938L29.2236 40.1192Z" fill="black"/>
<path d="M33.2973 43.6841C33.2973 46.5721 32.7064 48.7762 32.468 51.3629C32.4167 51.9154 32.3823 52.4853 32.3724 53.0837C32.371 53.194 32.37 53.3049 32.37 53.4169L30.8854 53.6861L30.5089 53.4169C30.5099 53.2183 30.5085 53.0181 30.5061 52.8154C30.5005 52.3399 30.4863 51.854 30.4656 51.3629C30.239 46.0491 29.21 40.1328 29.21 40.1328H32.8902C32.8892 40.1328 33.2973 42.0996 33.2973 43.6841Z" fill="#FBA284"/>
<path d="M32.5063 53.6284C32.6608 54.2602 32.7348 54.8054 32.7348 55.4254H28.1504V55.4244C28.1504 55.0097 28.3907 54.6424 28.7478 54.5027C29.162 54.3412 29.9106 53.9874 30.509 53.4169C31.5253 53.6433 31.6176 53.1719 32.1501 53.1719C32.4365 53.1719 32.5063 53.6284 32.5063 53.6284Z" fill="#4E254F"/>
<path d="M27.8627 16.2831L30.2967 14.9296C29.3992 13.6654 29.2022 12.5982 29.2022 12.5982C28.9247 11.9952 28.2632 11.7373 27.6997 12.0122C27.1362 12.2871 26.8139 13.0165 27.0372 13.6458C27.0372 13.6458 27.6587 15.0714 27.8627 16.2831Z" fill="#FBA284"/>
<path d="M36.953 28.3561H30.4831C30.3785 27.3017 30.1731 26.3975 29.9196 25.6187C29.2152 23.4564 28.1372 22.269 27.8008 21.5686C27.6481 21.2508 27.5148 20.9558 27.3979 20.6809C26.3025 18.1049 26.6808 17.3555 26.6808 17.3555C27.2406 16.6803 28.0217 16.1237 28.7148 15.7152C28.7549 15.6915 28.7944 15.6683 28.8335 15.6461C29.6388 15.1839 30.2965 14.9291 30.2965 14.9291C30.2965 14.9291 30.3295 14.9178 30.3888 14.8992C31.4956 14.5521 32.1354 15.1581 32.8233 16.1686C33.311 16.8851 35.4321 20.0485 36.953 28.3561Z" fill="#B9E5FE"/>
<path d="M29.3894 18.0022C28.9593 17.0361 27.9934 16.5043 27.028 16.6983C25.9773 16.9093 23.4476 17.8877 22.8097 18.0301C21.9668 18.2179 21.4711 19.1793 21.7609 20.0665C21.8123 20.2243 21.9423 20.3342 22.0945 20.3497C22.8832 20.4281 26.5733 20.2264 28.5545 19.8246C29.3136 19.6704 29.7277 18.7625 29.3894 18.0022Z" fill="#FBA284"/>
<path d="M21.9913 20.3234C21.9913 20.3234 21.4165 20.2084 20.7611 19.6183C20.4874 19.2851 19.6642 17.5061 18.9481 15.9004L18.9476 15.8999C18.5523 15.0127 17.479 13.1682 17.479 13.1682L18.7182 12.6973C18.795 12.8396 18.8732 12.9794 18.9533 13.1166C19.0885 13.3508 19.2275 13.5772 19.3683 13.7959C20.6518 15.7921 22.0822 17.1745 22.4427 18.171C22.8653 19.3424 21.9913 20.3234 21.9913 20.3234Z" fill="#FBA284"/>
<path d="M37.0883 52.1676C37.0567 52.3873 36.9238 52.5668 36.7453 52.6525C36.6916 52.6782 36.6341 52.6958 36.5733 52.7025C35.9735 52.7737 35.3568 52.6519 34.9615 52.5436C34.9412 52.5385 34.9214 52.5318 34.9021 52.524C34.6821 52.4363 34.5289 52.212 34.5186 51.952C34.3786 48.3924 33.9871 44.2588 33.5673 40.5744C33.5598 40.5063 33.5518 40.4382 33.5437 40.3701C32.9166 34.9062 32.2349 30.4816 32.2349 30.4816C32.2349 30.4816 32.2664 30.4687 32.3296 30.4429C32.7093 30.2882 34.2236 29.6604 36.7424 28.5076C36.8508 28.4581 36.9611 28.407 37.0732 28.356C37.0821 28.4065 37.0911 28.4571 37.0996 28.5076C37.15 28.8011 37.1952 29.1013 37.2357 29.4056C37.2758 29.7043 37.3116 30.0071 37.3432 30.3124C37.3776 30.6399 37.4068 30.9706 37.4327 31.3017C37.7507 35.3941 37.4572 39.5711 37.4572 39.5711C37.4572 39.5711 37.6428 41.2336 37.7144 42.8754C37.7799 44.9958 37.3625 50.2591 37.0883 52.1676Z" fill="#7494CE"/>
<path d="M32.1429 18.1097L32.0844 18.1474L31.7056 18.3934C31.0328 17.1524 30.139 16.4483 29.0497 16.2998C28.3986 16.2105 27.8633 16.356 27.6655 16.4215C27.6655 16.4215 27.6485 16.1992 27.8322 15.9815C27.959 15.8309 28.1361 15.7432 28.3227 15.7277C28.4188 15.7195 28.5201 15.7148 28.6271 15.7148C28.7722 15.7148 28.9267 15.7231 29.0874 15.7442C29.9572 15.8562 31.1935 16.3575 32.1429 18.1097Z" fill="#576F9B"/>
<path d="M37.0731 28.3564C37.0713 28.4069 37.0689 28.4575 37.0665 28.508C37.0524 28.7963 37.0279 29.0893 36.9945 29.3849C36.9554 29.7289 36.904 30.0781 36.8423 30.4289C36.0559 34.8906 33.5899 39.7273 33.4052 40.8781C33.3906 40.9673 33.3901 41.0343 33.4052 41.0772C34.2137 44.2396 32.9001 51.0915 32.6433 52.364C32.6183 52.4873 32.5222 52.577 32.4073 52.5848C32.4007 52.5853 32.3941 52.5858 32.3875 52.5863C31.9743 52.6126 31.0607 52.6482 30.5231 52.4842C30.5156 52.4821 30.5085 52.4796 30.5014 52.4765C30.4058 52.4373 30.3398 52.3382 30.3356 52.2247C30.2366 49.6328 29.1172 43.5773 29.0941 40.1317C29.0776 37.6037 29.6972 32.4472 30.0515 29.7202C30.1339 29.0826 30.2022 28.5776 30.2446 28.2702C30.2739 28.0551 30.2908 27.937 30.2908 27.937C30.2908 27.937 34.6547 27.9958 37.0731 28.3564Z" fill="#7494CE"/>
<path d="M33.5363 17.4765L33.0689 17.6962C32.4536 16.1271 31.744 15.437 31.2573 15.1347C30.9501 14.9434 30.691 14.8799 30.5317 14.8598C30.5317 14.8598 30.5812 14.6958 30.781 14.5823C30.9775 14.4709 31.2121 14.4786 31.4086 14.5895C32.0479 14.9506 32.8574 15.7449 33.5363 17.4765Z" fill="#576F9B"/>
<path d="M37.0731 28.3564L37.0726 28.3569C37.0382 28.3796 35.3882 29.4339 30.6168 28.4116C30.4679 28.3796 30.3511 28.2538 30.32 28.0913C30.2917 27.9453 30.2606 27.7968 30.2271 27.6482C30.1758 27.4223 30.1192 27.1969 30.0622 26.9828C29.9553 26.582 29.846 26.2184 29.7635 25.9548C29.6895 25.7191 29.7762 25.4586 29.9718 25.3317C30.8486 24.7623 32.9891 22.8626 31.6293 18.4612C31.5959 18.3529 31.6359 18.2337 31.7259 18.1759C31.8206 18.1156 31.9351 18.046 32.0665 17.9727C32.1339 17.9346 32.2051 17.8959 32.2804 17.8572C32.6305 17.6766 33.0659 17.4899 33.5436 17.3708C33.6162 17.3527 33.6902 17.3893 33.726 17.4605L33.7264 17.4616C33.7264 17.4626 33.7274 17.4636 33.7274 17.4636C33.7476 17.5028 33.7679 17.5441 33.7886 17.5854C33.8042 17.6168 33.8202 17.6483 33.8362 17.6808C33.8437 17.6957 33.8513 17.7117 33.8588 17.7272C33.8711 17.752 33.8838 17.7772 33.896 17.803C33.9107 17.8329 33.9257 17.8639 33.9408 17.8953C33.9531 17.9201 33.9648 17.9454 33.9771 17.9712C33.9856 17.9882 33.9936 18.0052 34.0021 18.0222C34.028 18.0764 34.0539 18.1316 34.0807 18.1883C34.0963 18.2219 34.1123 18.2559 34.1283 18.2899C34.1458 18.3271 34.1632 18.3647 34.1806 18.4024C34.1962 18.4364 34.2127 18.4715 34.2287 18.5066C34.2452 18.5432 34.2626 18.5803 34.2796 18.618C34.2881 18.6366 34.2965 18.6556 34.305 18.6747C34.3992 18.8836 34.4972 19.1065 34.5971 19.3417C34.6155 19.3845 34.6339 19.4278 34.6518 19.4711C34.6791 19.5366 34.7069 19.6027 34.7347 19.6702C34.7441 19.6924 34.7531 19.7151 34.7625 19.7378C34.7719 19.7605 34.7814 19.7832 34.7908 19.8059C34.8002 19.8286 34.8092 19.8518 34.8186 19.8745C34.8374 19.9209 34.8567 19.9679 34.8756 20.0153C34.8907 20.0535 34.9057 20.0916 34.9213 20.1303C35.0235 20.3888 35.1277 20.659 35.2313 20.9401C35.2549 21.0036 35.2784 21.0686 35.302 21.1336C35.3208 21.1862 35.3402 21.2393 35.359 21.2924C35.3741 21.3358 35.3896 21.3791 35.4052 21.4224C35.4254 21.4797 35.4457 21.5369 35.4655 21.5952C35.4754 21.6241 35.4853 21.653 35.4956 21.6824C35.506 21.7118 35.5159 21.7412 35.5258 21.7701C35.6068 22.0068 35.6869 22.2503 35.7661 22.4994C35.7854 22.5598 35.8042 22.6201 35.8231 22.681C35.833 22.7125 35.8429 22.7439 35.8523 22.7754C35.9216 22.9998 35.9899 23.2293 36.0568 23.463C36.0916 23.5842 36.1256 23.7069 36.16 23.8307C36.1708 23.8699 36.1816 23.9091 36.192 23.9488C36.216 24.0376 36.2396 24.1263 36.2631 24.2155C36.2754 24.2625 36.2876 24.3094 36.2999 24.3568C36.3041 24.3734 36.3088 24.3899 36.3126 24.4069C36.3258 24.459 36.339 24.5111 36.3527 24.5637C36.3875 24.7024 36.4215 24.8422 36.4549 24.983C36.4596 25.0021 36.4643 25.0212 36.4686 25.0408C36.4808 25.0919 36.4926 25.144 36.5049 25.1955C36.5204 25.2641 36.5364 25.3322 36.5515 25.4014C36.5666 25.4689 36.5817 25.537 36.5967 25.6056C36.6264 25.7428 36.6561 25.8816 36.6844 26.0208C36.6947 26.0719 36.7051 26.1235 36.7155 26.1751C36.7188 26.1921 36.7225 26.2096 36.7258 26.2266C36.7395 26.2968 36.7532 26.3669 36.7668 26.4371C36.7786 26.499 36.7904 26.5604 36.8017 26.6223C36.8031 26.631 36.805 26.6398 36.8064 26.6491C36.8196 26.7203 36.8323 26.7909 36.845 26.8621C36.8573 26.9312 36.8691 27.0003 36.8808 27.0695C36.8818 27.0751 36.8827 27.0808 36.8837 27.0865C36.8954 27.1551 36.9067 27.2237 36.9181 27.2928C36.9298 27.3645 36.9411 27.4367 36.9524 27.5089L36.9529 27.5105C36.9963 27.7895 37.0368 28.0712 37.0731 28.3564Z" fill="#7494CE"/>
<path d="M29.5291 18.6754C29.5291 18.6811 29.5287 18.6883 29.5287 18.6971C29.5268 18.8152 29.5169 18.9266 29.498 19.0324C29.254 20.4297 27.6148 20.7686 25.84 20.8557C25.2736 20.8836 24.6932 20.8862 24.14 20.8888C23.765 20.4503 23.553 19.9082 23.4347 19.4007C23.2354 18.5444 23.3023 17.7862 23.3023 17.7862C28.0629 15.5491 29.2135 16.9341 29.4815 18.1761C29.4919 18.2236 29.5009 18.2705 29.5084 18.317C29.523 18.4371 29.5296 18.5511 29.5296 18.6605C29.5296 18.6605 29.5296 18.6662 29.5291 18.6754Z" fill="#D5EFFE"/>
<path d="M37.1744 28.9746C33.4047 29.9913 30.1136 29.2336 30.1136 29.2336C30.1136 29.2336 30.0067 28.5517 30.164 27.8734C30.1815 27.7981 30.2017 27.7222 30.2267 27.6475C33.2888 28.1591 36.953 27.5103 36.953 27.5103C36.953 27.5103 37.3007 28.3134 37.1744 28.9746Z" fill="#576F9B"/>
<path opacity="0.25" d="M37.3433 30.3131C37.3325 30.2099 37.3212 30.1067 37.3094 30.0041C37.3071 29.985 37.3052 29.9664 37.3028 29.9474C37.2816 29.7658 37.2595 29.5853 37.2354 29.4063H37.235C37.2157 29.2619 37.1954 29.1179 37.1742 28.9756C33.4045 29.9922 30.1134 29.234 30.1134 29.234C30.0931 29.3857 30.0724 29.5486 30.0498 29.7209C30.3325 29.855 31.1504 30.2094 32.3288 30.4436C32.7015 30.5178 33.11 30.5797 33.5496 30.6189C35.2613 30.7716 36.3779 32.6595 35.7909 34.4261C34.9418 36.9799 33.9204 39.2406 33.543 40.3708C33.4728 40.5812 33.4247 40.7525 33.4044 40.8788C33.4044 40.8788 33.4624 40.7721 33.5665 40.575C34.1715 39.4248 36.3209 35.205 37.4324 31.3024C37.4069 30.9712 37.3773 30.6406 37.3433 30.3131Z" fill="#576F9B"/>
<path opacity="0.25" d="M36.9532 27.5112C36.9532 27.5112 33.2894 28.1601 30.2269 27.6484C30.1756 27.4225 30.119 27.1971 30.062 26.9831L30.0785 26.9284C30.0785 26.9284 33.8299 28.1545 35.1543 26.1222C36.4622 24.1152 33.7945 17.6263 33.7272 17.4639C33.7474 17.5031 33.7677 17.5443 33.7884 17.5856C33.804 17.6171 33.82 17.6485 33.836 17.681C33.8435 17.696 33.8511 17.712 33.8586 17.7274C33.8709 17.7522 33.8836 17.7775 33.8958 17.8033C33.9104 17.8332 33.9255 17.8641 33.9406 17.8956C33.9528 17.9204 33.9646 17.9456 33.9769 17.9714C33.9854 17.9884 33.9934 18.0055 34.0018 18.0225C34.0278 18.0766 34.0537 18.1318 34.0805 18.1886C34.0961 18.2221 34.1121 18.2561 34.1281 18.2902C34.1455 18.3273 34.163 18.365 34.1804 18.4026C34.196 18.4372 34.212 18.4718 34.2285 18.5068C34.245 18.5434 34.2624 18.5806 34.2794 18.6182C34.2878 18.6368 34.2963 18.6559 34.3048 18.675C34.399 18.8839 34.497 19.1067 34.5969 19.3419C34.6153 19.3847 34.6337 19.4281 34.6516 19.4714C34.6789 19.5369 34.7067 19.6029 34.7345 19.6705C34.7439 19.6927 34.7529 19.7154 34.7623 19.7381C34.7717 19.7607 34.7811 19.7834 34.7906 19.8061C34.8 19.8288 34.8089 19.852 34.8184 19.8747C34.8372 19.9212 34.8565 19.9681 34.8754 20.0156C34.8904 20.0537 34.9055 20.0919 34.9211 20.1306C35.0233 20.389 35.1274 20.6593 35.2311 20.9404C35.2547 21.0038 35.2782 21.0688 35.3018 21.1338C35.3206 21.1864 35.3399 21.2396 35.3588 21.2927C35.3743 21.336 35.3894 21.3793 35.405 21.4227C35.4252 21.4799 35.4455 21.5372 35.4653 21.5955C35.4752 21.6244 35.4851 21.6532 35.4954 21.6826C35.5058 21.712 35.5157 21.7414 35.5256 21.7703C35.6066 22.0071 35.6867 22.2505 35.7659 22.4997C35.7852 22.56 35.804 22.6204 35.8229 22.6812C35.8328 22.7127 35.8427 22.7442 35.8521 22.7756C35.9213 23 35.9897 23.2295 36.0566 23.4632C36.0914 23.5844 36.1253 23.7072 36.1597 23.831C36.1706 23.8702 36.1814 23.9094 36.1918 23.9491C36.2158 24.0378 36.2394 24.1265 36.2629 24.2158C36.2752 24.2627 36.2874 24.3096 36.2997 24.3571C36.3039 24.3736 36.3086 24.3901 36.3124 24.4071C36.3256 24.4592 36.3388 24.5113 36.3525 24.5639C36.3873 24.7027 36.4212 24.8425 36.4547 24.9833C36.4594 25.0024 36.4641 25.0214 36.4684 25.041C36.4806 25.0921 36.4924 25.1442 36.5046 25.1958C36.5202 25.2644 36.5362 25.3325 36.5513 25.4016C36.5664 25.4692 36.5814 25.5373 36.5965 25.6059C36.6262 25.7431 36.6559 25.8818 36.6841 26.0211C36.6945 26.0721 36.7049 26.1237 36.7152 26.1753C36.7185 26.1923 36.7223 26.2099 36.7256 26.2269C36.7393 26.297 36.7529 26.3672 36.7666 26.4373C36.7784 26.4992 36.7902 26.5606 36.8015 26.6225C36.8029 26.6313 36.8048 26.64 36.8062 26.6493C36.8194 26.7205 36.8321 26.7912 36.8448 26.8624C36.8571 26.9315 36.8688 27.0006 36.8806 27.0697C36.8816 27.0754 36.8825 27.0811 36.8834 27.0867C36.8952 27.1553 36.9065 27.2239 36.9178 27.2931C36.9296 27.3647 36.9409 27.437 36.9522 27.5092C36.9527 27.5102 36.9532 27.5112 36.9532 27.5112Z" fill="#576F9B"/>
<path d="M24.1399 20.8899C23.7648 20.4514 23.5528 19.9093 23.4346 19.4018C24.554 19.5642 27.9403 19.8877 29.4814 18.1772C29.4918 18.2247 29.5007 18.2716 29.5083 18.3181C29.8174 20.8759 26.6903 20.8765 24.1399 20.8899Z" fill="#B9E5FE"/>
<path opacity="0.25" d="M30.1716 25.5272L29.9191 25.6191C29.2147 23.4568 28.1367 22.2694 27.8003 21.569C27.6476 21.2512 27.5143 20.9562 27.3975 20.6813C28.4887 20.4615 29.3287 20.0014 29.4979 19.0322C29.4739 19.205 29.4305 19.4258 29.3546 19.6682C28.891 21.147 28.9594 22.7636 29.5756 24.1738C29.9149 24.9511 30.1716 25.5272 30.1716 25.5272Z" fill="#7494CE"/>
<path opacity="0.25" d="M32.2801 17.8566C32.2047 17.8953 32.1336 17.934 32.0662 17.9721C31.1276 16.3309 29.9342 15.8532 29.0875 15.7439C28.9584 15.7274 28.8336 15.7186 28.7144 15.7155C28.7544 15.6918 28.794 15.6686 28.8331 15.6464C29.2486 15.6113 30.3851 15.6 31.1512 16.3912C31.751 17.0097 32.102 17.5451 32.2801 17.8566Z" fill="#7494CE"/>
<path d="M36.6527 53.4164L36.7436 53.6299C36.9816 54.1901 37.0664 54.8132 36.9872 55.4249H33.5054C33.5054 54.9736 33.6948 54.547 34.0194 54.2685C34.2522 54.0689 34.785 53.5407 34.9127 53.4164C35.3594 53.5752 35.9936 53.2544 36.2791 53.2544C36.5637 53.2544 36.6527 53.4164 36.6527 53.4164Z" fill="#4E254F"/>
<path d="M24.7451 1.80371H0.278809V8.69126H24.7451V1.80371Z" fill="#F8EFF2"/>
<path d="M24.7456 8.69092C24.7456 9.428 24.5831 10.0428 24.3951 10.5076H0.629854C0.460237 10.0877 0.310883 9.54509 0.284027 8.90034C0.2812 8.83173 0.279785 8.7621 0.279785 8.69143H24.7456V8.69092Z" fill="#C8B5BB"/>
<path d="M0.747416 10.3124C0.578271 9.85901 0.482157 9.38189 0.461426 8.89188C0.461426 8.89033 0.461426 8.88827 0.461426 8.88672H24.5631C24.5428 9.37828 24.4472 9.85695 24.2771 10.3124H0.747416Z" fill="#AA7E7E"/>
<path d="M16.1803 6.48216H9.21284C9.13793 6.48216 9.07715 6.41562 9.07715 6.33361V4.78722C9.07715 4.70521 9.13793 4.63867 9.21284 4.63867H16.1803C16.2552 4.63867 16.316 4.70521 16.316 4.78722V6.33361C16.316 6.41562 16.2552 6.48216 16.1803 6.48216Z" fill="#C8B5BB"/>
<path d="M9.21284 6.36463C9.19729 6.36463 9.18457 6.3507 9.18457 6.33368V4.7873C9.18457 4.77028 9.19729 4.75635 9.21284 4.75635H16.1803C16.1959 4.75635 16.2086 4.77028 16.2086 4.7873V6.33368C16.2086 6.3507 16.1959 6.36463 16.1803 6.36463H9.21284Z" fill="#4A485E"/>
<path d="M24.7456 1.8037H0.279297C0.279297 1.72839 0.290139 1.65566 0.308514 1.58654C0.412169 1.20072 0.745742 0.943848 1.11277 0.943848H23.9121C24.2792 0.943848 24.6127 1.20072 24.7164 1.58654C24.7343 1.65566 24.7456 1.72839 24.7456 1.8037Z" fill="#FBF5F7"/>
<path d="M6.01555 1.27135H2.1987C2.15535 1.27135 2.15441 1.23266 2.19634 1.18521C2.2378 1.13775 2.30565 1.1001 2.34806 1.1001H6.10978C6.15219 1.1001 6.16632 1.13827 6.14088 1.18521C6.11497 1.23214 6.0589 1.27135 6.01555 1.27135Z" fill="#C8B5BB"/>
<path d="M5.78595 1.69H1.83435C1.78959 1.69 1.78959 1.64822 1.83435 1.59716C1.87864 1.54661 1.95025 1.50586 1.99407 1.50586H5.88678C5.93107 1.50586 5.94474 1.54661 5.91741 1.59716C5.88961 1.64822 5.83071 1.69 5.78595 1.69Z" fill="#C8B5BB"/>
<path d="M10.218 1.27135H6.40112C6.35777 1.27135 6.34317 1.23266 6.36814 1.18521C6.39264 1.13775 6.44729 1.1001 6.4897 1.1001H10.2514C10.2943 1.1001 10.3216 1.13827 10.3127 1.18521C10.3033 1.23214 10.2608 1.27135 10.218 1.27135Z" fill="#C8B5BB"/>
<path d="M10.1364 1.69H6.18477C6.14001 1.69 6.12541 1.64822 6.1518 1.59716C6.17818 1.54661 6.23519 1.50586 6.27948 1.50586H10.1722C10.2165 1.50586 10.2443 1.54661 10.2348 1.59716C10.2254 1.64822 10.1816 1.69 10.1364 1.69Z" fill="#C8B5BB"/>
<path d="M14.4207 1.27135H10.6039C10.5605 1.27135 10.5323 1.23266 10.5398 1.18521C10.5478 1.13775 10.5888 1.1001 10.6312 1.1001H14.3929C14.4353 1.1001 14.4763 1.13827 14.4843 1.18521C14.4928 1.23214 14.4641 1.27135 14.4207 1.27135Z" fill="#C8B5BB"/>
<path d="M14.4883 1.69H10.5367C10.4919 1.69 10.4627 1.64822 10.4712 1.59716C10.4797 1.54661 10.5221 1.50586 10.5664 1.50586H14.4591C14.5034 1.50586 14.5458 1.54661 14.5542 1.59716C14.5623 1.64822 14.533 1.69 14.4883 1.69Z" fill="#C8B5BB"/>
<path d="M18.6232 1.27135H14.8063C14.763 1.27135 14.7206 1.23266 14.7116 1.18521C14.7027 1.13775 14.7305 1.1001 14.7729 1.1001H18.5346C18.577 1.1001 18.6317 1.13827 18.6562 1.18521C18.6811 1.23214 18.6661 1.27135 18.6232 1.27135Z" fill="#C8B5BB"/>
<path d="M18.839 1.69H14.8874C14.8426 1.69 14.7983 1.64822 14.7889 1.59716C14.7795 1.54661 14.8078 1.50586 14.8516 1.50586H18.7443C18.7886 1.50586 18.8456 1.54661 18.872 1.59716C18.8984 1.64822 18.8838 1.69 18.839 1.69Z" fill="#C8B5BB"/>
<path d="M22.8256 1.27135H19.0087C18.9654 1.27135 18.9093 1.23266 18.8834 1.18521C18.8579 1.13775 18.8716 1.1001 18.9145 1.1001H22.6762C22.7186 1.1001 22.7865 1.13827 22.8279 1.18521C22.8699 1.23214 22.8689 1.27135 22.8256 1.27135Z" fill="#C8B5BB"/>
<path d="M23.1904 1.69H19.2388C19.194 1.69 19.1351 1.64822 19.1073 1.59716C19.08 1.54661 19.0937 1.50586 19.138 1.50586H23.0307C23.075 1.50586 23.1461 1.54661 23.1904 1.59716C23.2347 1.64822 23.2352 1.69 23.1904 1.69Z" fill="#C8B5BB"/>
<path d="M24.7451 3.10352H0.278809V3.26703H24.7451V3.10352Z" fill="#C8B5BB"/>
<path d="M8.27652 7.92751H0.678623C0.610305 7.92751 0.555176 7.86716 0.555176 7.79237C0.555176 7.71758 0.610305 7.65723 0.678623 7.65723H8.27652C8.34484 7.65723 8.39997 7.71758 8.39997 7.79237C8.39997 7.86716 8.34484 7.92751 8.27652 7.92751Z" fill="#C8B5BB"/>
<path d="M24.3454 7.92751H16.7475C16.6791 7.92751 16.624 7.86716 16.624 7.79237C16.624 7.71758 16.6791 7.65723 16.7475 7.65723H24.3454C24.4137 7.65723 24.4688 7.71758 24.4688 7.79237C24.4688 7.86716 24.4137 7.92751 24.3454 7.92751Z" fill="#C8B5BB"/>
<path d="M8.27652 7.10866H0.678623C0.610305 7.10866 0.555176 7.04831 0.555176 6.97352C0.555176 6.89873 0.610305 6.83838 0.678623 6.83838H8.27652C8.34484 6.83838 8.39997 6.89873 8.39997 6.97352C8.39997 7.04831 8.34484 7.10866 8.27652 7.10866Z" fill="#C8B5BB"/>
<path d="M24.3454 7.10866H16.7475C16.6791 7.10866 16.624 7.04831 16.624 6.97352C16.624 6.89873 16.6791 6.83838 16.7475 6.83838H24.3454C24.4137 6.83838 24.4688 6.89873 24.4688 6.97352C24.4688 7.04831 24.4137 7.10866 24.3454 7.10866Z" fill="#C8B5BB"/>
<path d="M24.1976 9.36745H0.826713C0.714106 9.36745 0.63448 9.24623 0.670288 9.12915L0.745201 8.88672H24.2791L24.354 9.12915C24.3898 9.24623 24.3102 9.36745 24.1976 9.36745Z" fill="#F8EFF2"/>
<path d="M24.1976 9.84011H0.826713C0.714106 9.84011 0.63448 9.71889 0.670288 9.6018L0.745201 9.35938H24.2791L24.354 9.6018C24.3898 9.71889 24.3102 9.84011 24.1976 9.84011Z" fill="#F8EFF2"/>
<path d="M24.1976 10.3123H0.826713C0.714106 10.3123 0.63448 10.1911 0.670288 10.074L0.745201 9.83154H24.2791L24.354 10.074C24.3898 10.1911 24.3102 10.3123 24.1976 10.3123Z" fill="#F8EFF2"/>
<path d="M17.5344 4.91411C17.5344 5.06627 17.4218 5.18955 17.2828 5.18955C17.1439 5.18955 17.0312 5.06627 17.0312 4.91411C17.0312 4.76195 17.1439 4.63867 17.2828 4.63867C17.4218 4.63867 17.5344 4.76195 17.5344 4.91411Z" fill="#B5C1E9"/>
<path d="M18.5584 4.91411C18.5584 5.06627 18.4458 5.18955 18.3068 5.18955C18.1678 5.18955 18.0552 5.06627 18.0552 4.91411C18.0552 4.76195 18.1678 4.63867 18.3068 4.63867C18.4458 4.63867 18.5584 4.76195 18.5584 4.91411Z" fill="#EDC489"/>
<path d="M24.1979 9.38626H0.827018C0.817595 9.38626 0.810059 9.37801 0.810059 9.36769C0.810059 9.35737 0.817595 9.34912 0.827018 9.34912H24.1979C24.2073 9.34912 24.2149 9.35737 24.2149 9.36769C24.2149 9.37801 24.2073 9.38626 24.1979 9.38626Z" fill="#C8B5BB"/>
<path d="M24.1979 9.85843H0.827018C0.817595 9.85843 0.810059 9.85017 0.810059 9.83986C0.810059 9.82954 0.817595 9.82129 0.827018 9.82129H24.1979C24.2073 9.82129 24.2149 9.82954 24.2149 9.83986C24.2149 9.85017 24.2073 9.85843 24.1979 9.85843Z" fill="#C8B5BB"/>
<path d="M16.9809 12.6852L15.7398 11.0305C15.7083 10.9836 15.7135 10.9181 15.7521 10.8773C15.7954 10.8319 15.8642 10.8345 15.9047 10.883L16.6671 11.8032L15.9231 10.6029C15.8925 10.5534 15.9019 10.4858 15.9457 10.4492C15.9881 10.4136 16.048 10.4188 16.0847 10.4605L16.9356 11.44L16.1483 10.2676C16.1158 10.2191 16.1201 10.1526 16.1582 10.1098C16.203 10.0598 16.277 10.0603 16.3203 10.1113L17.2867 11.242L16.5022 10.1C16.4716 10.0551 16.4805 9.99115 16.5229 9.95917L16.5248 9.95762C16.5601 9.93029 16.6077 9.93338 16.6398 9.96433C16.9187 10.2341 18.1696 11.4406 18.1696 11.4406L17.5138 12.09L16.9809 12.6852Z" fill="#EF8D72"/>
<path d="M18.7176 12.6978C18.7176 12.6978 18.5753 12.1799 18.4538 11.8678C18.4411 11.8353 18.4274 11.8039 18.4133 11.7734C18.1725 11.2618 17.6424 11.075 17.216 11.4124L17.0276 11.5614C16.6747 11.841 16.7383 12.4017 17.0318 12.754C17.0436 12.7684 17.0563 12.7824 17.0686 12.7947C17.3206 13.0506 17.4785 13.1687 17.4785 13.1687L18.7176 12.6978Z" fill="#FBA284"/>
<path d="M26.1344 10.5281L24.1333 9.93799C24.1333 9.93799 23.575 10.4868 26.1419 11.2027L26.1344 10.5281Z" fill="#E68759"/>
<path d="M26.6595 14.7732C26.896 14.8041 27.2353 14.8263 27.616 14.5524L27.1839 13.0395L27.1999 12.4051L27.7314 12.0997L28.8325 12.8502L29.1392 14.0356C29.699 13.5868 30.1532 12.9374 30.3562 12.0755C30.7558 10.3826 29.8921 8.82489 28.5305 8.64436C27.1684 8.46331 26.007 9.75488 25.8708 11.5999C25.4199 13.4109 26.1695 14.5225 26.6595 14.7732Z" fill="#FBA284"/>
<path d="M30.9026 11.6176C30.8611 12.0772 30.708 12.5322 30.3367 13.0784C30.0733 13.4653 29.9838 13.9517 30.0583 14.4267C30.0597 14.437 30.0611 14.4468 30.062 14.4572C30.0903 14.7971 29.417 14.9142 28.9058 14.7594C27.6883 14.3896 27.8631 13.4059 27.6488 12.7963C27.6252 12.7271 27.5955 12.6632 27.5588 12.6054C27.4881 12.493 27.3887 12.4042 27.2422 12.3496C27.0405 12.2737 26.7903 12.6864 26.6622 12.7431L26.5863 12.6952C26.4737 12.6235 26.4186 12.4801 26.4497 12.3418C26.5279 11.9947 26.5792 11.2654 26.0186 10.3219C26.5896 9.40278 26.8407 8.6301 28.0653 8.46556C29.2436 8.30721 29.7784 9.06699 29.7784 9.06699C29.7784 9.06699 29.8368 9.10928 29.9268 9.18665C30.6058 9.76436 30.9874 10.6799 30.9026 11.6176Z" fill="#4E254F"/>
<path d="M27.548 12.7669C27.4999 13.0877 27.3091 13.3307 27.0957 13.3657C27.0599 13.3719 27.0227 13.3719 26.9854 13.3652C26.7315 13.3193 26.5708 12.9773 26.6269 12.6013C26.6825 12.2268 26.9322 11.9602 27.1852 12.0025C27.1866 12.0025 27.188 12.0025 27.189 12.003C27.4434 12.0489 27.6041 12.3909 27.548 12.7669Z" fill="#FBA284"/>
<path d="M27.6488 12.7958C27.5852 13.1543 27.3421 13.4065 27.0957 13.3658C27.3091 13.3307 27.5 13.0877 27.548 12.7669C27.5565 12.7117 27.5598 12.6576 27.5593 12.6055C27.5956 12.6627 27.6253 12.7267 27.6488 12.7958Z" fill="#EF8D72"/>
<path d="M30.6624 12.649C30.6176 12.7465 30.4956 12.7614 30.4315 12.6779C30.3721 12.601 30.3067 12.5278 30.2355 12.4571C29.8529 12.0785 29.3097 11.7876 28.7363 11.5673C27.7384 11.1831 26.6491 11.0092 26.1581 10.9453C26.1581 10.9453 26.1576 10.9453 26.1567 10.9453C25.9894 10.9236 25.8919 10.9143 25.8919 10.9143C25.8603 10.7849 25.8655 10.6296 25.9018 10.4594C26.1214 9.43603 27.4712 7.8814 28.7415 8.30694C31.346 9.11778 31.4346 10.9623 30.6624 12.649Z" fill="#FFCC59"/>
<path d="M26.1574 10.9454C26.1117 10.9454 24.7562 10.934 24.1343 9.93799L25.9025 10.4595C25.8663 10.6297 25.8611 10.7849 25.8926 10.9144C25.8926 10.9144 25.9897 10.9232 26.1574 10.9454Z" fill="#FFCC59"/>
<path d="M30.2883 12.3491C30.2695 12.4161 30.2535 12.4564 30.2535 12.4564L30.2356 12.4574C29.7248 12.5121 29.2546 12.3073 28.7363 11.5676C28.7363 11.5676 28.799 11.4898 28.9059 11.3985C28.9889 11.3273 29.0982 11.2478 29.2249 11.1901C29.4351 11.0946 29.6937 11.0591 29.9599 11.22C30.2648 11.4046 30.3444 11.6981 30.3449 11.9529C30.3449 12.1118 30.3142 12.2557 30.2883 12.3491Z" fill="#4E254F"/>
<path d="M30.2881 12.349C29.8518 11.7553 29.1145 11.4695 28.9058 11.3978C28.9887 11.3267 29.098 11.2472 29.2247 11.1895C29.5216 11.3158 29.9805 11.5567 30.3442 11.9523C30.3447 12.1117 30.314 12.2556 30.2881 12.349Z" fill="#FFCC59"/>
</svg>
