<svg width="62" height="45" viewBox="0 0 62 45" fill="none" xmlns="http://www.w3.org/2000/svg">
<path d="M24.4795 42.7977V44.5293L61.7954 20.9435V19.2119L24.4795 42.7977Z" fill="#DEBE97"/>
<path d="M0.205078 27.4541V29.1857L24.4794 44.529V42.7974L0.205078 27.4541Z" fill="#CAA58B"/>
<path d="M0.205078 27.4544L24.4794 42.7977L61.7953 19.2119L37.521 3.86914L0.205078 27.4544Z" fill="#EFE1BC"/>
<path opacity="0.7" d="M33.5636 19.8828L19.436 28.8124L29.7236 35.3152L43.8512 26.3856L33.5636 19.8828Z" fill="black"/>
<path opacity="0.5" d="M15.4024 24.3344C16.1763 25.1461 16.9242 25.6292 17.9532 25.8829C19.0107 26.1436 20.0632 26.0457 21.1216 26.2097C22.0952 26.3606 22.9964 26.8399 23.9266 27.1892C24.8567 27.5385 25.8907 27.7566 26.8119 27.3805C26.9182 27.3373 27.0241 27.2849 27.1089 27.2023C27.2348 27.0804 27.3042 26.9028 27.3456 26.7246C27.5538 25.8206 27.081 25.527 26.375 25.0061C25.6685 24.4852 24.6959 24.1234 24.5382 24.0687C24.3819 24.0146 23.1477 23.4888 23.0194 23.3768C22.7438 23.1368 22.4687 22.8974 22.1931 22.6574C21.9005 22.4027 21.2619 22.0518 19.9458 22.0469C18.6297 22.042 18.0091 22.676 16.2677 22.5946C15.8777 22.5766 15.3535 22.4858 15.0644 22.8017C14.5312 23.385 14.963 23.8731 15.4024 24.3344Z" fill="black"/>
<path d="M15.5929 21.4214C15.0572 22.127 15.1276 22.5873 15.9314 23.2115C16.7352 23.8362 16.5765 24.8939 17.8561 25.2082C19.0094 25.4913 19.1952 24.3243 18.7942 23.8335C17.9724 22.8278 17.4557 22.8425 17.92 21.9778C18.3843 21.1131 16.2914 20.3222 16.0977 20.6491C15.9039 20.9759 15.7247 21.2476 15.5929 21.4214Z" fill="#623810"/>
<path d="M27.0533 25.2889C26.9959 24.9358 26.6015 24.5773 25.8106 24.1646C25.4981 24.0017 25.6653 23.1064 25.4082 22.8096L24.0038 22.6768C23.9653 22.673 23.7966 22.9905 23.7706 23.0343C23.6922 23.1643 23.6228 23.301 23.5674 23.4447C23.5 23.6197 23.453 23.8033 23.4211 23.9897C23.3851 24.1969 23.3232 24.4177 23.4266 24.6139C23.5379 24.8254 23.7586 24.8604 23.9513 24.9375C24.1525 25.0178 24.3607 25.0982 24.5465 25.2157C24.8151 25.3851 24.9154 25.6453 25.5365 26.0006C26.1581 26.3564 26.4173 26.2793 26.7518 26.0656C27.0044 25.9033 27.1103 25.642 27.0533 25.2889Z" fill="#623810"/>
<path d="M27.6565 15.4385L24.9934 17.1209C25.3149 17.9298 24.0732 20.4753 23.3792 22.2971C22.9214 23.5263 25.6175 24.4621 26.2136 22.8715C26.8717 21.1159 27.7454 19.3356 27.8168 17.6713C27.8517 16.8722 27.8163 16.1851 27.6565 15.4385Z" fill="#186FD9"/>
<path d="M23.5863 3.5332C23.0001 3.58021 22.6012 3.74037 22.1543 4.01475C21.8583 4.19677 21.5522 4.36293 21.2342 4.49302C20.6835 4.71821 20.2216 4.9926 19.9021 5.28011C18.8252 6.24811 17.91 9.38935 18.4762 15.5795C18.6554 17.5401 20.7549 18.2681 21.1248 16.419C21.668 13.7041 21.5178 10.5208 22.1678 10.4634C22.8179 10.406 23.5049 13.2384 24.9932 17.1203C26.4821 18.0582 28.0328 17.3143 27.6564 15.4379C27.2799 13.5615 26.863 11.6719 25.7207 8.65255C25.0906 6.98818 23.5863 3.5332 23.5863 3.5332Z" fill="#186FD9"/>
<path d="M18.4759 15.5796C16.8277 18.4776 16.1148 19.5648 15.6749 20.7962C15.3299 21.7621 17.7664 23.1236 18.2677 22.1059C18.7689 21.0887 21.11 17.5927 21.1859 16.0956L18.4759 15.5796Z" fill="#186FD9"/>
<path d="M21.5938 17.0859V17.7746L31.8813 24.2769V23.5887L21.5938 17.0859Z" fill="#8C4302"/>
<path d="M31.8809 23.5888V24.2769L46.0084 15.3473V14.6592L31.8809 23.5888Z" fill="#B05402"/>
<path d="M35.7213 8.15674L21.5938 17.0858L31.8813 23.5886L46.0089 14.6589L35.7213 8.15674Z" fill="#D46D17"/>
<path d="M43.2629 17.728V26.7571L42.6747 26.3854L42.4565 18.2375L43.2629 17.728Z" fill="#422B1D"/>
<path d="M31.8809 24.2766V33.9507L32.4685 33.5796L32.7206 24.3914L43.2624 17.728V26.7571L43.8505 26.3854L44.1022 17.1972V16.5522L31.8809 24.2766Z" fill="#6B4E37"/>
<path d="M24.3389 20.1558V29.1843L24.9265 28.8126L25.1447 20.6652L24.3389 20.1558Z" fill="#5C3F2D"/>
<path d="M23.499 18.9795V19.625L23.7512 28.8126L24.3388 29.1843V20.1558L31.0411 24.3918L31.2932 33.58L31.8809 33.9511V24.277L23.499 18.9795Z" fill="#422B1D"/>
<path d="M23.4914 21.8145V21.9511L21.0649 20.4174V20.2808L23.4914 21.8145Z" fill="#422B1D"/>
<path d="M23.4912 21.8148V21.9515L25.9452 20.4003V20.2642L23.4912 21.8148Z" fill="#5C3F2D"/>
<path d="M37.9406 12.6826L26.1377 20.143V20.2791L37.9406 12.8187V12.6826Z" fill="#5C3F2D"/>
<path d="M26.1374 20.1426V20.2787L25.1533 19.6561V19.52L26.1374 20.1426Z" fill="#422B1D"/>
<path d="M24.9604 19.6425L25.0688 19.7106L25.1541 19.6568V19.52L24.9604 19.6425Z" fill="#5C3F2D"/>
<path d="M35.514 11.1489L21.0649 20.2813L23.4914 21.8151L25.9454 20.2644L24.9608 19.6424L25.1535 19.5205L26.1376 20.143L37.9405 12.6827L35.514 11.1489Z" fill="#6B4E37"/>
<path d="M25.1254 19.7456C24.2396 20.6382 24.0998 21.0853 23.3574 21.7297L23.4922 21.815L24.6675 21.0722C24.8952 20.701 25.1643 20.3332 25.4813 19.9703L25.1254 19.7456Z" fill="#805A43"/>
<path d="M27.4378 18.1219C27.4198 18.0946 27.3619 18.0918 27.283 18.1137C26.9704 18.2017 25.9559 18.9494 25.2754 19.5971L25.6194 19.8147C25.9904 19.4108 26.4227 19.0139 26.927 18.6275C27.3943 18.2711 27.4687 18.1694 27.4378 18.1219Z" fill="#805A43"/>
<path d="M25.2996 18.6034C26.019 18.1077 26.8319 17.5802 27.6931 17.0211C28.1185 16.745 28.5534 16.463 29.0047 16.1667C29.2673 15.9945 29.5359 15.8175 29.8115 15.6338C31.8281 14.2914 33.3314 13.0178 34.4333 11.8312L35.5138 11.1479C34.4204 12.4193 32.1946 14.2132 29.9538 15.7049C29.6727 15.8918 29.3996 16.0722 29.1325 16.2471C28.6832 16.5417 28.2513 16.8221 27.8284 17.097C26.9722 17.6529 26.1628 18.1776 25.4514 18.6685C24.1318 19.578 23.3145 20.4602 22.621 21.2648L22.4717 21.1707C23.1797 20.3749 24.001 19.4987 25.2996 18.6034Z" fill="#805A43"/>
<path d="M29.2087 16.4329C29.2452 16.4105 29.2821 16.3881 29.3195 16.3657C29.5827 16.2061 29.8573 16.0399 30.1454 15.8639C33.4306 13.8618 35.1286 12.2132 35.876 11.377L36.0238 11.4704C35.222 12.3575 33.487 13.982 30.2627 15.9514C29.9786 16.1246 29.7075 16.2891 29.4474 16.4466C29.4059 16.4717 29.365 16.4963 29.3245 16.5209C26.4377 18.2705 24.9674 19.1615 23.0566 21.5397L22.9023 21.4424C24.8126 19.0964 26.3139 18.1869 29.2087 16.4329Z" fill="#805A43"/>
<path d="M25.6911 20.1035C25.4859 20.3298 25.2952 20.5561 25.106 20.7944L25.5873 20.4905C25.6696 20.3916 25.7535 20.2943 25.8394 20.1975L25.6911 20.1035Z" fill="#805A43"/>
<path d="M36.2289 11.6006C35.4101 12.3866 34.3691 13.2748 30.7299 15.9492C30.3899 16.199 30.0729 16.4335 29.7763 16.6549C27.7133 18.1935 26.6438 19.0872 25.833 19.9503L25.9793 20.0426C26.7806 19.1714 27.8246 18.2908 29.9056 16.7369C30.2127 16.5073 30.5427 16.2635 30.8977 16.0023C32.1843 15.0567 32.1514 15.2152 31.2831 15.8826C30.9012 16.1761 30.4868 16.4997 30.0649 16.8374C28.8401 17.8169 27.5495 18.9134 26.7856 19.7327L28.0193 18.9528C28.6599 18.2958 29.4003 17.612 30.2132 16.9304C30.6131 16.5948 31.031 16.2592 31.4624 15.9274C33.1968 14.5943 35.0032 13.1321 36.4436 11.7356L36.2289 11.6006Z" fill="#805A43"/>
<path d="M31.7523 16.5936L31.0938 17.0095C31.7343 16.3716 32.5841 15.6059 33.4693 14.8084C34.6082 13.7825 35.7036 12.6805 36.5414 11.7983L36.76 11.9366C35.9188 12.8106 34.7859 13.8311 33.682 14.8253C32.988 15.4506 32.3155 16.0568 31.7523 16.5936Z" fill="#805A43"/>
<path d="M33.0352 15.7823C34.1795 14.6612 35.9519 13.0559 36.9205 12.0376L37.0698 12.1316C36.2041 13.0373 34.7492 14.3202 33.6807 15.374L33.0352 15.7823Z" fill="#805A43"/>
<path d="M34.8755 14.619C35.7168 13.8478 36.8262 12.9612 37.3509 12.3086L37.5052 12.4059C37.0364 12.9126 36.266 13.5335 35.6004 14.1604L34.8755 14.619Z" fill="#805A43"/>
<path d="M36.2085 13.7772C36.7277 13.3241 37.1566 13.1306 37.8057 12.5977L37.9405 12.6829L36.2085 13.7772Z" fill="#805A43"/>
<path d="M22.8298 19.9304C22.9321 19.9867 22.3814 20.4999 21.9945 20.8683L21.7803 20.7328C22.0983 20.4076 22.7274 19.8741 22.8298 19.9304Z" fill="#805A43"/>
<path d="M28.3268 16.2379C28.4301 16.1734 28.5754 16.0832 28.7247 15.9897C29.0297 15.799 29.3528 15.5967 29.3732 15.5842C31.0154 14.5462 31.245 14.2319 31.8247 13.4793L33.0229 12.7217C32.4358 13.6017 31.3579 14.503 29.4072 15.7235C29.221 15.8405 29.0357 15.9564 28.852 16.0706C28.7172 16.1548 28.5829 16.2384 28.4496 16.3215C26.0835 17.794 24.1373 19.1261 22.3574 21.0183C22.3419 21.0347 22.3264 21.0517 22.311 21.0692L22.0923 20.9309C23.9102 19.0156 26.0466 17.6568 28.3268 16.2379Z" fill="#805A43"/>
<path d="M24.6141 18.0377L30.1267 14.5532C29.6279 14.9987 29.0452 15.4305 28.4691 15.8284C27.9883 16.1602 27.512 16.4679 27.0916 16.7396L26.782 16.9396C26.6617 17.0178 26.5189 17.1096 26.3586 17.2129C25.0395 18.0629 22.2521 19.789 21.5741 20.6023L21.4263 20.5088C21.5286 20.4001 21.9325 19.9967 22.5881 19.4807C23.2646 18.9489 24.1983 18.3006 24.6141 18.0377Z" fill="#805A43"/>
<path d="M26.2822 20.2836L26.1377 20.1924V20.2457L26.2822 20.3374V20.2836Z" fill="#C99E4C"/>
<path d="M26.2812 20.284V20.3375L37.8215 13.0433V12.9897L26.2812 20.284Z" fill="#C99E4C"/>
<path d="M23.8975 21.7904V21.8434L26.0898 20.4578V20.4048L23.8975 21.7904Z" fill="#C99E4C"/>
<path d="M23.8984 21.7914V21.8447L23.7539 21.7535V21.6997L23.8984 21.7914Z" fill="#B58324"/>
<path d="M37.678 12.8989L26.1377 20.1931L26.2815 20.2839L37.8218 12.9897L37.678 12.8989Z" fill="#E9C379"/>
<path d="M25.9462 20.314L23.7539 21.699L23.8977 21.7903L26.09 20.4047L25.9462 20.314Z" fill="#E9C379"/>
<path opacity="0.1" d="M23.2712 9.74445C21.8527 9.70127 20.6315 9.52854 20.2376 7.19953C20.1083 6.43595 20.308 5.70625 20.4932 5.36572C20.0868 5.7385 19.8352 6.52559 19.9919 7.45206C20.3859 9.78107 21.6735 9.95379 23.0919 9.99698C23.9422 10.0227 25.6422 9.71657 25.9748 9.33614L25.9758 9.33559C25.0187 9.64879 24.0496 9.76795 23.2712 9.74445Z" fill="black"/>
<path d="M32.7094 12.4808C31.8616 11.7833 30.8156 10.9689 29.854 10.3797C29.1216 9.93096 29.1855 9.30839 29.1231 8.52403C29.1231 8.52403 27.2473 7.33139 27.2143 8.07092C27.1814 8.81046 27.3951 10.0966 27.5494 10.641C27.6637 11.034 27.6472 11.263 29.3063 12.1031C30.0038 12.4562 31.0388 12.8907 32.4368 13.533C32.9715 13.7789 33.4273 13.1542 32.7094 12.4808Z" fill="#FFCEA1"/>
<path d="M28.5216 2.60362C27.1845 2.54896 27.0147 3.93565 26.9793 4.98728C26.9433 6.03837 26.8889 7.64644 26.8669 8.29579C26.845 8.94513 27.3143 9.27418 28.1052 9.30643C28.896 9.33868 29.4163 9.01892 29.4372 8.40072C29.4582 7.78199 29.5571 4.87578 29.579 4.22643C29.601 3.57654 29.2455 2.63313 28.5216 2.60362Z" fill="#D9B9AE"/>
<path d="M34.5185 12.875L33.7102 12.9679L33.5439 13.0565C33.5439 13.0565 33.6173 14.0398 34.1496 13.8414C34.6813 13.643 35.0123 13.8239 35.1536 14.3431C35.4157 13.9578 34.8545 13.4741 34.8545 13.4741L34.5185 12.875Z" fill="#F0B47F"/>
<path d="M34.7981 12.9019C34.2933 12.4941 33.3447 12.9713 32.7086 12.4805L32.436 13.5326C33.0586 13.8147 33.2753 13.7518 34.0727 14.27C34.52 14.5608 34.5854 13.9841 34.191 13.7365C33.7976 13.4895 33.7027 13.3769 34.1545 13.3605C34.5974 13.3446 34.6458 13.549 34.89 14.018C35.1406 14.5001 35.2505 14.3924 35.4786 14.0847C35.7378 13.7551 35.3079 13.3146 34.7981 12.9019Z" fill="#FFCEA1"/>
<path opacity="0.3" d="M33.9834 14.1196C33.9824 14.1748 34.0433 14.2048 34.0738 14.224C34.1162 14.2508 34.2041 14.3131 34.256 14.283C34.278 14.2704 34.2805 14.1026 34.269 14.0584C34.253 13.9982 34.1552 13.9294 34.0987 13.9184C33.9739 13.8938 33.9844 14.0644 33.9834 14.1196Z" fill="white"/>
<path d="M29.5749 3.48974C28.9793 1.75105 26.9747 1.72099 24.0983 3.23066C21.222 4.74034 19.843 4.86987 20.2369 7.19888C20.6309 9.52789 21.8526 9.70062 23.2705 9.7438C24.689 9.78698 26.738 9.35573 28.1954 8.14777C29.6538 6.94036 30.166 5.21532 29.5749 3.48974Z" fill="#186FD9"/>
<path d="M24.7173 4.42666C25.5221 4.51958 26.1342 4.95685 26.5396 5.6942C26.8382 6.23751 26.9231 6.88193 26.7903 7.48646C26.665 8.05819 26.0543 8.75619 25.581 9.01637C26.3929 8.85567 28.006 7.9139 28.5098 7.35583C28.9102 6.90873 29.1304 6.54962 29.3041 5.99155C29.5228 5.28973 29.4739 4.47422 29.1409 3.81722C28.9741 3.48818 28.7365 3.2034 28.4439 3.00335C28.1583 2.80821 27.6046 2.66064 27.6046 2.66064L24.7173 4.42666Z" fill="#E4C6BB"/>
<path d="M23.181 5.37564C24.8656 4.81976 25.7059 5.60192 25.95 6.65247C26.1941 7.70301 25.8272 8.44691 24.2235 8.89293C22.6198 9.33949 22.1745 8.98312 21.9079 7.57183C21.6402 6.16054 21.4965 5.93152 23.181 5.37564Z" fill="#D9B9AE"/>
<path d="M27.9409 4.26027C27.7676 4.21927 27.5879 4.30071 27.4446 4.4155C27.2913 4.53793 27.166 4.67677 27.0791 4.86097L27.1979 4.84676C27.3612 4.7921 27.5285 4.73142 27.6593 4.61063C27.7027 4.57073 27.7416 4.52426 27.7876 4.48764C27.8245 4.45758 27.8665 4.43354 27.8989 4.39747C27.9314 4.36139 27.9543 4.30837 27.9409 4.26027Z" fill="#D9B9AE"/>
<path d="M27.295 5.31206C27.2835 6.16419 28.2172 6.78622 28.7799 6.40416C29.2447 6.08823 29.722 5.89583 30.043 5.38859C30.5009 4.66601 28.4389 2.55015 28.0994 3.75921C27.8268 4.72995 27.3075 4.38122 27.295 5.31206Z" fill="#FAC28E"/>
<path d="M27.7301 6.93748C27.7701 6.87626 27.81 6.81504 27.85 6.75383C27.8964 6.68277 27.9438 6.61008 27.9683 6.52645C28.0172 6.36084 27.9693 6.17827 27.8954 6.02414C27.8215 5.87 27.7221 5.73061 27.6582 5.57101C27.5269 5.2447 27.436 4.69593 27.6447 4.50954C27.492 4.50189 27.2378 4.66149 27.1455 4.76315C27.0436 4.87575 27.0177 5.02387 27.0082 5.17528C26.9887 5.49011 27.0945 5.86507 27.2373 6.13892C27.3681 6.38925 27.5389 6.61445 27.6467 6.879C27.6542 6.89758 27.6612 6.91618 27.6682 6.93476C27.6817 6.97084 27.6997 6.91944 27.7301 6.93748Z" fill="#D9B9AE"/>
<path opacity="0.2" d="M28.7408 6.4284L27.8251 4.32568L27.7138 4.44538C27.6893 4.92037 27.8466 6.0212 28.6349 6.47706C28.7188 6.44699 28.7408 6.4284 28.7408 6.4284Z" fill="black"/>
<path d="M27.8331 3.35536C27.6409 4.34414 27.8051 4.73714 27.9759 5.20065C28.1217 5.59638 28.257 5.70187 28.6888 6.35286C29.2725 7.23232 29.8417 7.63788 30.4563 6.99072C30.7608 6.67589 31.0814 6.22714 31.2836 5.80517C31.342 5.68273 31.3664 5.27553 31.4159 5.1438C31.5242 4.85466 31.6815 4.60487 31.7519 4.21625C31.9646 3.04218 31.4329 1.64508 30.0613 1.32588C28.6898 1.00667 28.0757 2.10532 27.8331 3.35536Z" fill="#FFCEA1"/>
<path d="M27.8247 4.37061C27.963 4.38319 27.922 3.23589 28.3055 3.33592C28.6105 3.41572 28.6375 3.73603 28.604 4.34548C28.5706 4.95492 28.9166 4.94671 29.0424 4.74174C29.1757 4.52529 29.2052 4.29791 29.3075 3.771C29.4508 3.03147 29.9141 3.49825 30.1698 3.84916C30.4259 4.20007 30.9476 4.45916 31.4085 4.47337C31.9447 4.49031 32.073 3.88252 32.073 3.2922C32.073 2.77567 31.766 1.56115 30.4239 1.08343C29.0769 0.604071 28.1382 1.43434 27.8611 2.43405C27.4577 3.89071 27.6864 4.35804 27.8247 4.37061Z" fill="#623B12"/>
<path d="M24.5034 15.8644C24.2608 15.6228 23.8699 15.4151 23.1938 14.9937L23.2048 15.3784L23.6637 15.9032C23.6637 15.9032 23.5229 15.6856 23.6966 15.7802C23.8948 15.8879 24.0601 16.0715 24.3092 16.1961C24.5589 16.3208 24.7466 16.1054 24.5034 15.8644Z" fill="#FFCEA1"/>
<path d="M25.5074 17.6302L25.1694 18.6879L25.4615 18.4971L25.799 17.4395L25.5074 17.6302Z" fill="#BF2C1C"/>
<path d="M22.4385 16.5964L22.7306 16.4056C22.751 16.392 22.7775 16.3898 22.8054 16.3974L22.5134 16.5882C22.4854 16.5805 22.4594 16.5827 22.4385 16.5964Z" fill="#BF2C1C"/>
<path d="M22.5137 16.5882L22.8058 16.3975C22.8247 16.4029 22.8452 16.4128 22.8652 16.427L22.5736 16.6177C22.5531 16.6035 22.5326 16.5931 22.5137 16.5882Z" fill="#BF2C1C"/>
<path d="M22.6313 16.6712L22.9229 16.4805L23.0677 16.6505L22.7756 16.8412L22.6313 16.6712Z" fill="#BF2C1C"/>
<path d="M22.5728 16.618L22.8643 16.4272C22.8838 16.4415 22.9038 16.4595 22.9222 16.4814L22.6302 16.6721C22.6122 16.6497 22.5922 16.6317 22.5728 16.618Z" fill="#BF2C1C"/>
<path d="M22.7754 16.8416L23.067 16.6509C23.0959 16.6848 23.1239 16.7104 23.1508 16.7296L22.8593 16.9203C22.8323 16.9012 22.8043 16.8755 22.7754 16.8416Z" fill="#36474F"/>
<path d="M22.8594 16.9203L23.151 16.7295C23.1799 16.7503 23.2079 16.7634 23.2333 16.7705L22.9418 16.9613C22.9163 16.9536 22.8883 16.9405 22.8594 16.9203Z" fill="#2D3B42"/>
<path d="M22.9424 16.9607L23.234 16.7699C23.2879 16.7847 23.3338 16.7743 23.3663 16.7524L23.0747 16.9432C23.0417 16.9651 22.9958 16.9755 22.9424 16.9607Z" fill="#242F35"/>
<path d="M24.0378 16.7606L23.5181 17.222L23.8101 17.0312L24.1412 16.7371C24.1017 16.7289 24.0653 16.736 24.0378 16.7606Z" fill="#13191C"/>
<path d="M23.5184 17.2225L23.8105 17.0317C23.7875 17.0525 23.7745 17.0858 23.772 17.1257L23.4805 17.3165C23.4825 17.2766 23.4949 17.2427 23.5184 17.2225Z" fill="#242F35"/>
<path d="M23.48 17.3162L23.7716 17.1255C23.7701 17.1484 23.7721 17.1741 23.7771 17.2004L23.4855 17.3911C23.48 17.3649 23.4785 17.3392 23.48 17.3162Z" fill="#2D3B42"/>
<path d="M23.4849 17.3914L23.7764 17.2007C23.7854 17.2455 23.8034 17.2936 23.8309 17.3384C23.8628 17.3909 23.8978 17.439 23.9337 17.4811C23.9826 17.5385 24.0341 17.586 24.086 17.6227L23.7944 17.8134C23.7425 17.7762 23.6911 17.7287 23.6421 17.6718C23.6057 17.6292 23.5712 17.5817 23.5393 17.5292C23.5118 17.4844 23.4934 17.4363 23.4849 17.3914Z" fill="#36474F"/>
<path d="M24.3421 17.7126C24.3111 17.7143 24.2782 17.7105 24.2447 17.7012L23.9531 17.8919C24.0305 17.9132 24.1034 17.9067 24.1633 17.8679C24.1728 17.8619 24.1818 17.8548 24.1903 17.8471L24.3421 17.7126Z" fill="#242F35"/>
<path d="M23.7944 17.8133L24.086 17.6226C24.1389 17.6603 24.1924 17.6865 24.2443 17.7007L23.9527 17.8915C23.9008 17.8778 23.8474 17.851 23.7944 17.8133Z" fill="#2D3B42"/>
<path d="M23.8069 15.6229C23.7255 15.5273 23.6257 15.5049 23.5857 15.5803C23.5443 15.6585 23.5797 15.8049 23.6636 15.9028L24.6951 17.1249C24.8269 17.2796 24.8774 17.501 24.8214 17.6207C24.811 17.6431 24.797 17.6617 24.779 17.6759L24.127 18.1913C24.0521 18.2504 23.9312 18.2088 23.8294 18.0891L22.6306 16.6707C22.5492 16.5751 22.4494 16.5521 22.4094 16.6281C22.368 16.7063 22.4035 16.8527 22.4873 16.9506L23.9223 18.6461C24.0501 18.7959 24.1984 18.8724 24.3172 18.85L25.1689 18.6865L25.5065 17.6294L23.8069 15.6229Z" fill="#DE3222"/>
<path d="M24.6956 17.1255C24.8274 17.2802 24.8778 17.5015 24.8219 17.6212C24.8114 17.6437 24.7974 17.6622 24.7795 17.6764L24.1274 18.1919C24.0525 18.2509 23.9317 18.2094 23.8299 18.0897L22.7759 16.8413C22.9047 16.9921 23.0215 16.9845 23.0824 16.938C23.1438 16.8916 23.6132 16.4718 23.737 16.3564C23.8608 16.2411 23.8024 16.0657 23.6641 15.9033L24.6956 17.1255ZM24.4255 17.6387C24.5828 17.4994 24.5184 17.1047 24.2957 16.8429C24.2063 16.738 24.1005 16.7041 24.0376 16.7604L23.5178 17.2217C23.4584 17.2742 23.4679 17.4119 23.5393 17.5283C23.5712 17.5808 23.6057 17.6289 23.6421 17.671C23.8269 17.888 24.053 17.9678 24.1893 17.8459L24.4255 17.6387Z" fill="#1D262B"/>
<path d="M23.6147 15.5476L23.9063 15.3568C23.9273 15.3431 23.9533 15.341 23.9812 15.3486L23.6896 15.5394C23.6617 15.5317 23.6357 15.5345 23.6147 15.5476Z" fill="#BF2C1C"/>
<path d="M23.6899 15.5399L23.9815 15.3491C24.0005 15.3546 24.021 15.3644 24.0409 15.3786L23.7489 15.5694C23.7289 15.5546 23.7089 15.5448 23.6899 15.5399Z" fill="#DE3222"/>
<path d="M23.7495 15.5697L24.0416 15.3789C24.0611 15.3931 24.0805 15.4106 24.0995 15.4325L23.8074 15.6232C23.7885 15.6014 23.769 15.5833 23.7495 15.5697Z" fill="#FF5947"/>
<path d="M23.8066 15.6229L24.0987 15.4321L25.7988 17.4392L25.5072 17.63L23.8066 15.6229Z" fill="#FF5947"/>
<path d="M25.173 17.6328C25.213 17.6798 25.234 17.7498 25.22 17.7946C25.2045 17.8427 25.1551 17.8438 25.1091 17.7973C25.1061 17.7941 25.1031 17.7908 25.1001 17.7875C25.0597 17.7399 25.0392 17.6705 25.0532 17.6257C25.0687 17.5776 25.1181 17.5765 25.1641 17.623C25.167 17.6263 25.17 17.6295 25.173 17.6328Z" fill="#1D262B"/>
<path d="M25.0129 18.1414C25.0528 18.1884 25.0733 18.2578 25.0593 18.3026C25.0439 18.3502 24.9944 18.3513 24.9485 18.3054C24.945 18.3021 24.942 18.2988 24.939 18.295C24.8991 18.248 24.8786 18.1786 24.8926 18.1337C24.908 18.0862 24.9575 18.0845 25.0034 18.1315C25.0064 18.1343 25.0099 18.1381 25.0129 18.1414Z" fill="#1D262B"/>
<path d="M30.815 24.1179C30.802 24.1141 30.788 24.1075 30.774 24.0977C30.7605 24.0884 30.7476 24.0758 30.7346 24.0611C30.7011 24.0217 30.6782 23.972 30.6692 23.9255C30.6657 23.9069 30.6642 23.8889 30.6652 23.8725C30.6662 23.8561 30.6697 23.8408 30.6757 23.8282C30.6817 23.8157 30.6896 23.8064 30.6991 23.7998L30.6427 23.8364C30.6332 23.8424 30.6252 23.8523 30.6192 23.8648C30.6133 23.8774 30.6098 23.8927 30.6088 23.9091C30.6078 23.9255 30.6088 23.9436 30.6128 23.9621C30.6217 24.0086 30.6447 24.0583 30.6782 24.0977C30.6911 24.1125 30.7041 24.125 30.7176 24.1343C30.7316 24.1442 30.7451 24.1507 30.758 24.1545C30.7785 24.16 30.7975 24.1584 30.813 24.148L30.8694 24.1114C30.8544 24.1217 30.8354 24.1234 30.815 24.1179Z" fill="#B2B3B1"/>
<path d="M31.1136 23.9835L25.6749 17.5988L25.635 17.5518L25.3 18.6023L25.1692 18.6876L24.5381 18.8089L24.5905 19.0478L24.7478 18.9505L24.8132 19.25L24.97 19.1522L25.0354 19.4517L25.1921 19.3544L25.2575 19.6534L25.4143 19.5561L25.4797 19.8551L25.6365 19.7578L25.7019 20.0568L25.8592 19.9595L25.9246 20.2585L26.0819 20.1612L26.1473 20.4602L26.3045 20.3629L26.3699 20.6624L26.5267 20.5645L26.5921 20.8641L26.7494 20.7668L26.8148 21.0658L26.9721 20.9685L27.0375 21.2675L27.1947 21.1702L27.2601 21.4692L27.4169 21.3719L27.4823 21.6709L27.6256 21.5779L27.6406 21.5801L27.7045 21.8731L27.8613 21.7752L27.9267 22.0748L28.084 21.9775L28.1494 22.2765L28.3066 22.1792L28.372 22.4782L28.5293 22.3809L28.5947 22.6798L28.752 22.5826L28.8174 22.8815L28.9747 22.7842L29.0401 23.0838L29.1968 22.9859L29.2622 23.2855L29.419 23.1876L29.4844 23.4872L29.6417 23.3899L29.7071 23.6888L29.8639 23.5915L29.9293 23.8905L30.0865 23.7933L30.152 24.0922L30.3092 23.9949L30.3746 24.2945L30.5314 24.1966L30.5968 24.4962L30.7536 24.3983L30.819 24.6979L30.9733 24.5978L31.1675 24.1901C31.1909 24.1403 31.1675 24.0463 31.1136 23.9835ZM30.837 24.1201C30.809 24.178 30.7381 24.1682 30.6782 24.0977C30.6183 24.0272 30.5918 23.9228 30.6193 23.8648C30.6467 23.8069 30.7181 23.8173 30.778 23.8878C30.8385 23.9578 30.8644 24.0622 30.837 24.1201Z" fill="#D4D4D4"/>
<path d="M25.6749 17.5988L25.283 18.8231L24.571 18.9598L24.5381 18.8084L25.1692 18.6876L25.3 18.6017L25.635 17.5518L25.6749 17.5988Z" fill="#B2B3B1"/>
<path d="M31.1697 23.9464L25.6912 17.5146L25.6348 17.5513L31.1133 23.983C31.1433 24.0185 31.1643 24.0633 31.1722 24.1049L31.2287 24.0682C31.2207 24.0267 31.2002 23.9819 31.1697 23.9464Z" fill="#E3E3E3"/>
<path d="M31.2283 24.0684L31.1719 24.105C31.1749 24.1214 31.1764 24.1378 31.1754 24.1525C31.1744 24.1673 31.1714 24.181 31.1659 24.1924L30.9717 24.6002L31.0281 24.5636L31.2223 24.1558C31.2278 24.1443 31.2308 24.1307 31.2318 24.1159C31.2328 24.1012 31.2318 24.0853 31.2283 24.0684Z" fill="#B2B3B1"/>
<path d="M21.1421 8.83472C20.5325 9.45619 19.9623 10.1203 19.9444 10.9599C19.9234 11.9251 20.5325 13.0697 20.9854 13.7671C21.8326 15.0718 21.8841 15.1823 22.1796 15.6135C22.4752 16.0448 23.4683 15.49 23.1942 14.9882C22.7808 14.2301 22.4143 13.2337 21.9175 11.9956C21.612 11.2348 22.4807 10.9123 22.934 10.416C23.3879 9.91915 22.4532 7.49776 21.1421 8.83472Z" fill="#FFCEA1"/>
<path d="M25.233 5.61556C24.1835 4.77381 23.4021 5.68881 22.7431 6.51908C22.084 7.34934 21.5608 7.95278 21.1539 8.46548C20.747 8.97818 20.9322 9.58325 21.5563 10.1774C22.1809 10.7715 22.7955 10.8852 23.183 10.3971C23.5709 9.90902 24.3592 9.01643 25.1855 8.02656C25.6049 7.5248 26.3923 6.54585 25.233 5.61556Z" fill="#E4C6BB"/>
<path d="M24.3915 16.9816C24.058 16.5011 23.9182 16.4591 23.6636 15.9032C23.4109 15.6042 23.4309 15.2904 23.1932 14.9937L22.1787 15.6135C22.7474 16.5492 22.6306 16.8411 22.9631 17.2582C23.351 17.7446 24.0106 17.7895 24.2472 17.555C24.4839 17.3205 24.4844 17.1549 24.3915 16.9816Z" fill="#FFCEA1"/>
<path d="M25.7059 29.2884C25.6645 29.465 25.8157 29.6355 25.8287 29.6464C25.8482 29.6623 25.8477 29.694 25.8482 29.7202C25.8507 29.8191 25.9021 29.9148 25.9795 29.9656C26.0274 29.9968 26.0868 30.0154 26.1153 30.0673C26.1383 30.1094 26.1353 30.1657 26.1627 30.2045C26.1897 30.2428 26.2371 30.2531 26.2776 30.2723C26.3854 30.3242 26.4463 30.4461 26.5232 30.5439C26.638 30.6899 26.7958 30.786 26.9501 30.879C27.032 30.9287 27.1144 30.9784 27.1967 31.0276C27.2981 31.0889 27.3994 31.1501 27.5008 31.2113C27.5892 31.2649 27.678 31.3184 27.7714 31.3611C27.8922 31.4163 28.019 31.4529 28.1409 31.5048C28.2093 31.5343 28.2762 31.5688 28.3476 31.5884C28.4744 31.624 28.7999 31.6885 28.9302 31.6759C29.0366 31.6655 29.2313 31.6628 29.3276 31.6119C29.424 31.5611 29.3831 31.4742 29.3686 31.3687C29.3621 31.3223 29.2218 31.1659 29.2063 31.1222C29.1085 30.8429 28.8538 30.6735 28.6127 30.5335C28.4604 30.4455 28.3051 30.3597 28.1394 30.3089C28.017 30.2712 27.8862 30.2509 27.7784 30.1772C27.7085 30.1291 27.6491 30.0591 27.5707 30.0296C27.4399 29.9809 27.2741 30.0542 27.1698 29.9552C27.1373 29.9246 27.1173 29.882 27.0894 29.8465C27.0484 29.794 26.9925 29.7585 26.9376 29.7235C26.8203 29.6492 26.7025 29.5754 26.5851 29.501C26.5047 29.4502 26.4229 29.3988 26.3335 29.3715C26.2057 29.3321 26.0604 29.3414 25.9525 29.2567C25.9306 29.2392 25.9081 29.2173 25.8811 29.2168C25.8107 29.2152 25.7329 29.1747 25.7059 29.2884Z" fill="#EEA56A"/>
<path d="M25.7086 29.2768C25.6817 29.3905 25.8165 29.5703 25.8295 29.5812C25.8489 29.5971 25.8484 29.6288 25.8489 29.655C25.8514 29.7539 25.9029 29.8496 25.9802 29.9004C26.0282 29.9316 26.0876 29.9502 26.116 30.0021C26.139 30.0442 26.136 30.1005 26.1635 30.1393C26.1904 30.1776 26.2379 30.1879 26.2783 30.2071C26.3862 30.259 26.4471 30.3814 26.524 30.4787C26.6388 30.6247 26.7966 30.7209 26.9508 30.8138C27.0327 30.8635 27.1151 30.9133 27.1975 30.9624C27.2988 31.0237 27.4002 31.0849 27.5015 31.1461C27.5899 31.1997 27.6788 31.2532 27.7721 31.2959C27.893 31.3511 28.0198 31.3872 28.1416 31.4396C28.21 31.4691 28.2769 31.5036 28.3483 31.5232C28.4751 31.5588 28.8007 31.6233 28.931 31.6107C29.0373 31.6003 29.232 31.5976 29.3284 31.5468C29.4247 31.4959 29.3519 31.3582 29.3549 31.2412C29.3563 31.1942 29.222 31.1007 29.2071 31.057C29.1092 30.7777 28.8546 30.6083 28.6134 30.4683C28.4611 30.3803 28.3059 30.2945 28.1401 30.2437C28.0178 30.206 27.887 30.1857 27.7791 30.112C27.7092 30.0639 27.6498 29.9934 27.5714 29.9644C27.4406 29.9157 27.2749 29.989 27.1705 29.89C27.1381 29.8594 27.1181 29.8168 27.0901 29.7813C27.0492 29.7288 26.9933 29.6933 26.9384 29.6588C26.821 29.5845 26.7032 29.5107 26.5859 29.4364C26.5055 29.3855 26.4236 29.3342 26.3342 29.3068C26.2064 29.2675 26.0611 29.2768 25.9533 29.1921C25.9313 29.1746 25.9088 29.1527 25.8819 29.1522C25.811 29.1494 25.7356 29.1631 25.7086 29.2768Z" fill="#E9C379"/>
</svg>
