<svg width="56" height="45" viewBox="0 0 56 45" fill="none" xmlns="http://www.w3.org/2000/svg">
<path opacity="0.4" fill-rule="evenodd" clip-rule="evenodd" d="M28.1018 10.9863C43.2954 10.9863 55.618 18.1389 55.618 26.9592C55.618 35.7794 43.296 42.932 28.1018 42.932C12.9076 42.932 0.584961 35.7794 0.584961 26.9592C0.584961 18.1389 12.9076 10.9863 28.1018 10.9863Z" fill="#D2D2E1"/>
<path fill-rule="evenodd" clip-rule="evenodd" d="M35.8411 7.57715H19.1543C19.2127 8.57146 20.6442 19.4687 20.6442 18.8398C20.6737 21.3919 23.7263 23.4488 27.4872 23.4488C29.9968 23.4488 34.2823 22.2498 34.3308 18.6524L35.8411 7.57715Z" fill="#C18B21"/>
<path fill-rule="evenodd" clip-rule="evenodd" d="M24.1099 22.8453C24.2404 18.1401 29.0937 13.4062 35.0593 12.2123L35.2121 12.1836L34.3301 18.652C34.2815 22.2494 29.9954 23.4484 27.4864 23.4484C26.2588 23.4491 25.1066 23.2301 24.1099 22.8453Z" fill="#D39F25"/>
<path d="M25.2987 13.8361C25.22 13.783 25.1957 13.6696 25.2442 13.5841C25.2928 13.498 25.3957 13.4714 25.4744 13.5246C29.5972 16.3244 39.5171 18.201 35.1975 10.0936C35.151 10.0061 35.1779 9.89335 35.2579 9.84238C35.3379 9.79141 35.4408 9.82084 35.4874 9.90843C40.3755 19.0726 30.0458 17.3453 25.2987 13.8361Z" fill="#3E3E3D"/>
<path d="M25.2987 13.5876C25.22 13.5345 25.1957 13.4218 25.2442 13.3356C25.2928 13.2495 25.3957 13.2229 25.4744 13.276C29.5972 16.0759 39.5171 17.9525 35.1975 9.84511C35.151 9.75753 35.1779 9.64481 35.2579 9.59384C35.3379 9.54287 35.4408 9.5723 35.4874 9.65989C40.3755 18.8248 30.0458 17.0975 25.2987 13.5876Z" fill="#585857"/>
<path fill-rule="evenodd" clip-rule="evenodd" d="M28.7361 1.29842C33.9717 1.68681 37.6618 4.69271 36.9758 8.00947C36.2899 11.3277 31.4877 13.7032 26.252 13.3148C21.0176 12.9265 17.3283 9.92127 18.0142 6.60236C18.7001 3.28561 23.5017 0.910033 28.7361 1.29842Z" fill="#D39F25"/>
<path fill-rule="evenodd" clip-rule="evenodd" d="M28.7361 0.985435C33.9717 1.37383 37.6618 4.37973 36.9758 7.69648C36.2899 11.0147 31.4877 13.3902 26.252 13.0019C21.0176 12.6135 17.3283 9.60828 18.0142 6.29009C18.7001 2.97262 23.5017 0.597044 28.7361 0.985435Z" fill="#EDC52E"/>
<path fill-rule="evenodd" clip-rule="evenodd" d="M28.5779 1.82875C33.1473 2.16761 36.3678 4.79086 35.7691 7.6862C35.1704 10.5823 30.9794 12.6556 26.4099 12.316C21.8412 11.9772 18.6213 9.35391 19.2207 6.45785C19.8188 3.56323 24.0098 1.4899 28.5779 1.82875Z" fill="#D39F25"/>
<path fill-rule="evenodd" clip-rule="evenodd" d="M30.7128 2.79692C31.545 2.72728 32.3135 2.82133 32.989 3.05034C34.7123 3.99081 35.7871 5.36848 35.839 6.87897C35.8409 6.94933 35.8403 7.0204 35.839 7.09219C35.8331 7.28818 35.8108 7.48561 35.7701 7.68447C35.1714 10.5805 30.9803 12.6539 26.4109 12.3143C25.9558 12.2805 25.5145 12.2231 25.0889 12.1456C24.2967 11.2697 23.9105 10.0565 24.1065 8.67447C24.5282 5.70087 27.487 3.06829 30.7128 2.79692Z" fill="#C18B21"/>
<path fill-rule="evenodd" clip-rule="evenodd" d="M28.5781 5.2536C31.8268 5.49482 34.3922 6.88972 35.3896 8.71609C34.1305 11.0558 30.4162 12.6129 26.4101 12.3157C23.1627 12.0745 20.598 10.6789 19.6006 8.85178C20.859 6.51282 24.5733 4.95638 28.5781 5.2536Z" fill="#8E8E8E"/>
<path fill-rule="evenodd" clip-rule="evenodd" d="M34.5087 27.1084L24.8603 33.2142L20.0352 30.1581V27.0028L29.6258 20.9824L34.51 23.9531L34.5087 27.1084Z" fill="#90452E"/>
<path fill-rule="evenodd" clip-rule="evenodd" d="M34.51 23.9528L24.8603 30.0514L20.0352 27.0024L29.6842 20.9023L34.51 23.9528Z" fill="#B84F32"/>
<path fill-rule="evenodd" clip-rule="evenodd" d="M24.8616 30.0519V33.2143L20.0352 30.1718V27.0029L24.8616 30.0519Z" fill="#60221D"/>
<path fill-rule="evenodd" clip-rule="evenodd" d="M24.6814 33.323L15.033 39.4281L10.2085 36.3719V33.2167L19.7992 27.1963L24.6833 30.167L24.6814 33.323Z" fill="#90452E"/>
<path fill-rule="evenodd" clip-rule="evenodd" d="M24.6833 30.1674L15.033 36.2668L10.2085 33.2171L19.8575 27.1177L24.6833 30.1674Z" fill="#B84F32"/>
<path fill-rule="evenodd" clip-rule="evenodd" d="M15.035 36.2663V39.4287L10.2085 36.3869V33.2173L15.035 36.2663Z" fill="#60221D"/>
<path fill-rule="evenodd" clip-rule="evenodd" d="M0.383147 36.4804L10.0315 42.5856L14.8567 39.5294V36.3749L5.26602 30.3545L0.381836 33.3245L0.383147 36.4804Z" fill="#60221D"/>
<path fill-rule="evenodd" clip-rule="evenodd" d="M0.381836 33.3251L10.0315 39.4245L14.8567 36.3755L5.20766 30.2754L0.381836 33.3251Z" fill="#B84F32"/>
<path fill-rule="evenodd" clip-rule="evenodd" d="M10.0303 39.4237V42.5862L14.8568 39.5444V36.3755L10.0303 39.4237Z" fill="#90452E"/>
<path fill-rule="evenodd" clip-rule="evenodd" d="M29.5393 26.9057L19.8916 33.0116L15.0664 29.9554V26.8002L24.6571 20.7798L29.5413 23.7505L29.5393 26.9057Z" fill="#90452E"/>
<path fill-rule="evenodd" clip-rule="evenodd" d="M29.5413 23.7501L19.8916 29.8488L15.0664 26.7998L24.7154 20.6997L29.5413 23.7501Z" fill="#B84F32"/>
<path fill-rule="evenodd" clip-rule="evenodd" d="M19.8929 29.8493V33.0117L15.0664 29.9699V26.8003L19.8929 29.8493Z" fill="#60221D"/>
<path fill-rule="evenodd" clip-rule="evenodd" d="M14.7064 29.9625L5.05869 36.0676L0.397461 33.1156V29.9604L9.98812 23.9399L14.7084 26.8073L14.7064 29.9625Z" fill="#90452E"/>
<path fill-rule="evenodd" clip-rule="evenodd" d="M14.7084 26.8074L5.05869 32.9061L0.397461 29.9605L10.0465 23.8604L14.7084 26.8074Z" fill="#B84F32"/>
<path fill-rule="evenodd" clip-rule="evenodd" d="M5.06 32.906V36.0677L0.397461 33.1293V29.9604L5.06 32.906Z" fill="#60221D"/>
<path fill-rule="evenodd" clip-rule="evenodd" d="M19.7126 33.1206L10.0643 39.2257L5.23975 36.1696V33.0143L14.8304 26.9946L19.7146 29.9654L19.7126 33.1206Z" fill="#90452E"/>
<path fill-rule="evenodd" clip-rule="evenodd" d="M19.7146 29.9655L10.0643 36.0641L5.23975 33.0144L14.8888 26.915L19.7146 29.9655Z" fill="#B84F32"/>
<path fill-rule="evenodd" clip-rule="evenodd" d="M10.0662 36.0643V39.226L5.23975 36.1842V33.0146L10.0662 36.0643Z" fill="#60221D"/>
<path fill-rule="evenodd" clip-rule="evenodd" d="M24.6814 26.6128L15.033 32.7186L10.2085 29.6617V26.5072L19.7992 20.4868L24.6833 23.4575L24.6814 26.6128Z" fill="#90452E"/>
<path fill-rule="evenodd" clip-rule="evenodd" d="M24.6833 23.4571L15.033 29.5558L10.2085 26.5068L19.8575 20.4067L24.6833 23.4571Z" fill="#B84F32"/>
<path fill-rule="evenodd" clip-rule="evenodd" d="M15.035 29.5558V32.7182L10.2085 29.6757V26.5068L15.035 29.5558Z" fill="#60221D"/>
<path fill-rule="evenodd" clip-rule="evenodd" d="M0.383147 29.7719L10.0315 35.8771L14.8567 32.8209V29.6657L5.26602 23.646L0.381836 26.616L0.383147 29.7719Z" fill="#60221D"/>
<path fill-rule="evenodd" clip-rule="evenodd" d="M0.381836 26.6161L10.0315 32.7155L14.8567 29.6658L5.20766 23.5664L0.381836 26.6161Z" fill="#B84F32"/>
<path fill-rule="evenodd" clip-rule="evenodd" d="M10.0303 32.715V35.8774L14.8568 32.8356V29.666L10.0303 32.715Z" fill="#90452E"/>
<path d="M53.0914 14.4203L53.0848 14.4246L47.0248 18.2755C46.4006 18.6718 45.9409 16.7406 46.3553 16.4771L52.4809 12.5796C52.5714 12.5164 52.6861 12.5193 52.8107 12.6018C53.1019 12.7928 53.3373 13.3456 53.3373 13.8345C53.3373 14.1489 53.2383 14.36 53.0914 14.4203Z" fill="#D39F25"/>
<path fill-rule="evenodd" clip-rule="evenodd" d="M46.103 17.0649C46.103 17.5538 46.3391 18.1066 46.6303 18.2983C46.9214 18.49 47.1575 18.248 47.1575 17.7592C47.1575 17.2695 46.9214 16.7175 46.6303 16.5258C46.3391 16.3341 46.103 16.5753 46.103 17.0649Z" fill="#C18B21"/>
<path d="M46.6714 16.4174L52.4756 12.7237C52.6966 12.583 52.8258 12.7194 52.6612 12.8243L46.836 16.5316C46.8065 16.5028 46.775 16.4777 46.7435 16.4569C46.7186 16.4397 46.695 16.4275 46.6714 16.4174Z" fill="#EDC52E"/>
<path fill-rule="evenodd" clip-rule="evenodd" d="M48.3816 23.6933L42.9059 19.5C42.2659 19.0096 41.4468 19.159 41.1091 19.8281L35.3711 26.4436C34.975 26.9009 36.2924 27.8349 37.0112 27.6519L48.2235 24.796C48.699 24.6747 48.8209 24.03 48.3816 23.6933Z" fill="#666666"/>
<path fill-rule="evenodd" clip-rule="evenodd" d="M48.364 23.5177L42.8883 19.3244C42.2483 18.834 41.5669 19.104 41.0915 19.6524L35.3535 26.268C34.9574 26.7246 36.2749 27.6593 36.9936 27.4763L48.2066 24.6204C48.6807 24.4991 48.804 23.8544 48.364 23.5177Z" fill="url(#paint0_linear_1195_22823)"/>
<path d="M46.4029 17.2368C46.5209 17.1585 46.6737 17.2002 46.7452 17.3294C46.8167 17.4586 46.7786 17.6266 46.6606 17.7041L45.6848 18.3481L45.13 21.4775C45.1143 21.5665 45.0618 21.6376 44.9917 21.6735L43.6637 22.3634C43.3712 22.5156 43.2152 22.3548 43.4814 22.1523L44.6605 21.2564L45.2159 18.1256C45.229 18.0523 45.269 17.9841 45.332 17.9425L46.4029 17.2368Z" fill="#666666"/>
<path fill-rule="evenodd" clip-rule="evenodd" d="M25.7959 43.7703L26.9979 44.5292V41.0423L25.7959 40.2827V43.7703Z" fill="#363636"/>
<path fill-rule="evenodd" clip-rule="evenodd" d="M26.9971 44.5288L50.8278 29.4749V25.9873L26.9977 41.0419L26.9971 44.5288Z" fill="#D39F25"/>
<path fill-rule="evenodd" clip-rule="evenodd" d="M26.9971 44.5295L27.2181 44.3902V40.9033L26.9977 41.0426L26.9971 44.5295Z" fill="#4D4D4D"/>
<path fill-rule="evenodd" clip-rule="evenodd" d="M25.7964 40.2829L26.9978 41.0424L50.8285 25.9878L49.6199 25.2397L25.7964 40.2829Z" fill="#EDC52E"/>
<path fill-rule="evenodd" clip-rule="evenodd" d="M25.7959 40.2826L26.9979 41.0422L27.2183 40.9029V40.9022L26.0156 40.144L25.7959 40.2826Z" fill="#666666"/>
<path fill-rule="evenodd" clip-rule="evenodd" d="M36.1919 33.7187L37.4031 34.4661L41.261 32.028L40.0019 31.313L36.1919 33.7187Z" fill="#585857"/>
<path fill-rule="evenodd" clip-rule="evenodd" d="M37.415 34.4592V35.531C37.415 35.5935 37.4432 35.6473 37.4931 35.6782C37.5429 35.7091 37.5993 35.7091 37.6485 35.6775L41.031 33.5072C41.1779 33.4132 41.2611 33.2531 41.2611 33.0671V32.0283L37.415 34.4592Z" fill="#222221"/>
<path fill-rule="evenodd" clip-rule="evenodd" d="M37.6499 34.312V35.1312C37.6499 35.1628 37.6637 35.19 37.6886 35.2051C37.7135 35.2209 37.7417 35.2209 37.7666 35.2044L40.875 33.2029C40.972 33.1404 41.0284 33.0334 41.0284 32.9099V32.1748L37.6499 34.312Z" fill="#7C9A3F"/>
<path fill-rule="evenodd" clip-rule="evenodd" d="M36.436 33.564L37.6466 34.312L41.031 32.1798L39.7667 31.4619L36.436 33.564Z" fill="#99BB57"/>
<path fill-rule="evenodd" clip-rule="evenodd" d="M50.6079 29.6142L50.8289 29.4749V25.9873L50.6079 26.1273V29.6142Z" fill="#4D4D4D"/>
<path fill-rule="evenodd" clip-rule="evenodd" d="M49.4062 25.368L50.6076 26.1276L50.8286 25.9876L49.6253 25.2295L49.4062 25.368Z" fill="#666666"/>
<path fill-rule="evenodd" clip-rule="evenodd" d="M37.2087 34.0409L39.6324 32.4802C39.7294 32.4177 39.7852 32.3107 39.7852 32.1873V31.4722L39.7681 31.4629L36.4414 33.5678L37.2087 34.0409Z" fill="#BDDE7B"/>
<path fill-rule="evenodd" clip-rule="evenodd" d="M39.8029 32.2775L37.0913 33.9674L37.65 34.312V34.569L40.1747 32.9954C40.6082 32.7247 40.2377 32.0061 39.8029 32.2775Z" fill="#DBF6A5"/>
<path fill-rule="evenodd" clip-rule="evenodd" d="M38.7893 33.0253L38.123 33.4403C37.7249 33.688 37.9938 34.2228 38.3846 33.9787L39.0634 33.5559C39.3847 33.3563 39.1112 32.825 38.7893 33.0253Z" fill="white"/>
<path fill-rule="evenodd" clip-rule="evenodd" d="M29.9456 41.1261C29.8997 41.8972 29.545 42.6546 29.1541 42.8182C28.7626 42.9819 28.482 42.4894 28.5279 41.7184C28.5738 40.9474 28.9285 40.19 29.32 40.0263C29.7109 39.8633 29.9909 40.3558 29.9456 41.1261Z" fill="#4D4D4D"/>
<path fill-rule="evenodd" clip-rule="evenodd" d="M29.8474 41.1667C29.8081 41.8308 29.5025 42.4834 29.1654 42.6248C28.8284 42.7655 28.5864 42.3413 28.6264 41.6772C28.6657 41.0131 28.9713 40.3605 29.3084 40.2198C29.6455 40.0791 29.8868 40.5034 29.8474 41.1667Z" fill="#7C9A3F"/>
<path fill-rule="evenodd" clip-rule="evenodd" d="M29.3886 42.1019L29.3945 40.1958C29.3663 40.1994 29.3374 40.2073 29.3073 40.2195C28.9925 40.3509 28.7066 40.9274 28.6371 41.5426L28.6357 42.0566C28.6495 42.1672 28.6731 42.2648 28.7053 42.3481C28.8915 42.6267 29.3879 42.547 29.3886 42.1019Z" fill="#DBF6A5"/>
<path fill-rule="evenodd" clip-rule="evenodd" d="M49.7264 28.6205C49.6805 29.3915 49.3257 30.1489 48.9349 30.3126C48.5434 30.4763 48.2627 29.9838 48.3092 29.2128C48.3552 28.4417 48.7099 27.6843 49.1008 27.5207C49.4916 27.357 49.7723 27.8495 49.7264 28.6205Z" fill="#4D4D4D"/>
<path fill-rule="evenodd" clip-rule="evenodd" d="M49.6281 28.6611C49.5887 29.3252 49.2831 29.9778 48.9461 30.1192C48.609 30.2599 48.3677 29.8356 48.407 29.1716C48.4464 28.5075 48.752 27.8549 49.089 27.7142C49.4261 27.5728 49.6674 27.9971 49.6281 28.6611Z" fill="#7C9A3F"/>
<path fill-rule="evenodd" clip-rule="evenodd" d="M48.6225 29.8868L49.5196 27.9254C49.4226 27.7258 49.2691 27.6375 49.0881 27.7136C48.7504 27.8551 48.4455 28.5077 48.4061 29.171C48.3845 29.5328 48.4468 29.8229 48.5615 29.9901C48.5845 29.96 48.6048 29.9262 48.6225 29.8868Z" fill="#DBF6A5"/>
<defs>
<linearGradient id="paint0_linear_1195_22823" x1="42.5048" y1="27.1703" x2="39.7216" y2="18.9514" gradientUnits="userSpaceOnUse">
<stop stop-color="#848484"/>
<stop offset="1" stop-color="white"/>
</linearGradient>
</defs>
</svg>
