<svg width="30" height="56" viewBox="0 0 30 56" fill="none" xmlns="http://www.w3.org/2000/svg">
<path opacity="0.4" fill-rule="evenodd" clip-rule="evenodd" d="M15.0001 36.646C23.2801 36.646 29.9954 40.5437 29.9954 45.3505C29.9954 50.1573 23.2801 54.0554 15.0001 54.0554C6.71975 54.0554 0.00439453 50.1577 0.00439453 45.3505C0.00439453 40.5437 6.71975 36.646 15.0001 36.646Z" fill="#D2D2E1"/>
<path fill-rule="evenodd" clip-rule="evenodd" d="M4.50712 49.6428V11.1013L3.77295 10.6411L3.77493 49.1787L4.50712 49.6428Z" fill="#AFAFAF"/>
<path fill-rule="evenodd" clip-rule="evenodd" d="M19.8764 1.40625L4.50684 11.1017V49.6423L19.8808 39.9438L19.8764 1.40625Z" fill="#D7C792"/>
<path fill-rule="evenodd" clip-rule="evenodd" d="M19.8763 1.40624L4.50673 11.1017L3.77295 10.641L19.121 0.943848L19.8763 1.40624Z" fill="#E3E3E3"/>
<path fill-rule="evenodd" clip-rule="evenodd" d="M14.2138 24.0249L13.1587 24.6649L13.1591 45.0298L14.2202 44.3846L14.2138 24.0249Z" fill="#E3E3E3"/>
<path fill-rule="evenodd" clip-rule="evenodd" d="M13.1591 45.0302V24.6648L12.4575 24.2251L12.4603 44.5852L13.1591 45.0302Z" fill="#AFAFAF"/>
<path fill-rule="evenodd" clip-rule="evenodd" d="M16.6365 10.8608L11.1763 14.2848L11.1767 25.9278L16.6424 22.499L16.6365 10.8608Z" fill="#AFAFAF"/>
<path fill-rule="evenodd" clip-rule="evenodd" d="M22.1001 25.9789V14.3351L22.2115 14.2515L22.2087 25.8901L22.1001 25.9789Z" fill="#E3E3E3"/>
<path fill-rule="evenodd" clip-rule="evenodd" d="M16.6406 10.9106L22.1004 14.3351V25.9781L16.6343 22.5488L16.6406 10.9106Z" fill="#979797"/>
<path fill-rule="evenodd" clip-rule="evenodd" d="M16.6406 10.9109L22.1004 14.3348L22.211 14.2512L16.7814 10.8242L16.6406 10.9109Z" fill="white"/>
<path fill-rule="evenodd" clip-rule="evenodd" d="M21.8779 47.5207C21.4443 47.8555 21.708 48.8613 22.1654 49.0302C23.203 49.4143 23.9845 49.8915 24.6694 50.1348C24.912 50.2211 25.4895 50.3003 25.7337 49.8079C25.7945 49.618 25.4135 48.9188 25.4135 48.9188C24.1933 49.0629 22.4175 47.1946 21.8779 47.5207Z" fill="#9B9B9A"/>
<path fill-rule="evenodd" clip-rule="evenodd" d="M23.2995 47.6009C22.763 47.7493 22.3064 47.3366 22.127 47.3679C21.9839 47.391 21.7858 47.5525 21.7444 47.7972C21.6748 48.2061 21.8813 48.6166 22.2145 48.7986C22.5725 48.9941 22.9809 48.9044 23.5874 49.1718C23.9211 49.3189 24.7368 49.8392 25.0446 49.844C25.3533 49.8493 25.615 49.6289 25.6448 49.3782C25.6225 47.8621 24.328 47.3165 23.2995 47.6009Z" fill="#3E3E3D"/>
<path fill-rule="evenodd" clip-rule="evenodd" d="M22.298 41.2256C22.2101 40.9421 21.8506 39.8467 21.8013 39.4487C20.7179 34.8718 20.4884 33.4289 20.8313 30.5879C21.6995 30.267 23.7708 31.2428 24.5531 30.3872C26.1654 32.1532 24.1231 38.5305 24.6103 40.748C24.2595 41.3941 23.072 41.9675 22.298 41.2256Z" fill="#314A8D"/>
<path fill-rule="evenodd" clip-rule="evenodd" d="M25.5801 48.8557C24.8396 49.6167 24.0624 49.3673 23.6142 48.287C23.5967 46.5676 22.7862 43.2695 22.2469 41.059C21.9311 39.6944 23.9336 38.9813 24.6276 40.7477C25.4862 42.7113 25.495 48.0589 25.5801 48.8557Z" fill="#314A8D"/>
<path fill-rule="evenodd" clip-rule="evenodd" d="M17.5238 49.2867C17.0903 49.6216 17.354 50.6273 17.8114 50.7963C18.849 51.1803 19.6305 51.6575 20.3154 51.9009C20.558 51.9871 21.1355 52.0663 21.3797 51.5739C21.4401 51.3841 21.0595 50.6848 21.0595 50.6848C19.8397 50.8289 18.0635 48.9611 17.5238 49.2867Z" fill="#9B9B9A"/>
<path fill-rule="evenodd" clip-rule="evenodd" d="M18.9455 49.367C18.4058 49.5029 17.9524 49.1027 17.773 49.1341C17.6298 49.1572 17.4318 49.3187 17.3904 49.5629C17.3208 49.9718 17.5272 50.3824 17.8605 50.5644C18.2185 50.7594 18.6269 50.6702 19.2334 50.9375C19.5667 51.0847 20.3828 51.605 20.6902 51.6098C20.9989 51.615 21.2606 51.3947 21.2908 51.1439C21.2685 49.6283 20.1422 49.0657 18.9455 49.367Z" fill="#3E3E3D"/>
<path fill-rule="evenodd" clip-rule="evenodd" d="M19.0182 42.3687C18.9645 42.0783 18.8321 41.4195 18.8309 41.0211C18.3024 36.3737 18.4392 33.8414 19.1248 31.0792C20.0304 30.8676 22.6235 31.7171 23.5076 30.9678C25.3399 33.5092 21.111 38.9303 21.5536 42.1806C21.1253 42.7754 19.7015 43.1942 19.0182 42.3687Z" fill="#4165BD"/>
<path fill-rule="evenodd" clip-rule="evenodd" d="M21.1986 50.3524C20.3515 51.0194 19.7156 50.5396 19.4368 49.4119C19.681 47.7008 19.1691 44.34 18.9722 42.0781C18.868 40.6835 21.1354 40.3404 21.5522 42.18C21.784 43.8972 21.236 49.5504 21.1986 50.3524Z" fill="#4165BD"/>
<path fill-rule="evenodd" clip-rule="evenodd" d="M19.1025 31.1707C19.9111 31.9422 23.7593 32.6341 24.8439 30.9848C24.8316 30.7928 24.8825 30.4449 24.8698 30.2524C23.6404 31.2308 20.5685 31.4951 19.1996 30.6478C19.167 30.8224 19.1348 30.9965 19.1025 31.1707Z" fill="#314A8D"/>
<path fill-rule="evenodd" clip-rule="evenodd" d="M16.6429 22.4992V10.8558L15.4395 10.0986L15.4418 21.7373L16.6429 22.4992Z" fill="#979797"/>
<path fill-rule="evenodd" clip-rule="evenodd" d="M16.637 10.8608L11.1772 14.2848L9.97412 13.5276L15.4037 10.1006L16.637 10.8608Z" fill="white"/>
<path fill-rule="evenodd" clip-rule="evenodd" d="M16.6423 22.4983L11.1825 25.9223L9.979 25.1656L15.442 21.7368L16.6423 22.4983Z" fill="white"/>
<path fill-rule="evenodd" clip-rule="evenodd" d="M11.1776 25.9289V14.285L9.97412 13.5283L9.97651 25.1665L11.1776 25.9289Z" fill="#E3E3E3"/>
<path fill-rule="evenodd" clip-rule="evenodd" d="M16.6365 10.8608L13.9097 12.5711V12.831L16.4722 11.224L16.4778 22.3427L13.9097 23.9542V24.2136L16.6428 22.499L16.6365 10.8608ZM13.9093 12.5707L11.1763 14.2848V25.9278L13.9089 24.2132V23.9537L11.3409 25.5647L11.3405 14.4416L13.9089 12.831L13.9093 12.5707Z" fill="#CACACA"/>
<path fill-rule="evenodd" clip-rule="evenodd" d="M26.0948 22.0528C26.411 20.4897 26.8397 17.7816 23.0909 18.9153C23.0336 18.9328 21.9149 19.5166 19.5358 20.1802C19.0084 20.5851 18.7129 22.2649 19.7561 22.4769C21.0646 22.7434 25.5042 24.9726 26.0948 22.0528Z" fill="#CB6117"/>
<path fill-rule="evenodd" clip-rule="evenodd" d="M21.5533 20.1113C21.4057 20.1562 20.5133 20.6212 19.8618 21.5425C19.3857 22.2213 19.4112 23.7373 19.4303 23.9376C19.4895 24.5829 19.3468 27.7574 19.1992 30.6489C19.4788 31.6054 23.615 31.4121 24.8698 30.2535C24.8813 28.9665 25.5515 26.1973 25.6767 25.4781C25.8012 24.757 26.3847 20.8141 25.5188 19.4961C25.3196 19.1922 24.6435 18.8752 24.3353 18.9144C23.2348 19.0511 21.7366 20.056 21.5533 20.1113Z" fill="#CB6117"/>
<path fill-rule="evenodd" clip-rule="evenodd" d="M20.6265 20.7109C21.5496 20.3731 23.1722 22.4652 23.8933 25.8918C24.2667 26.0285 24.3626 25.5878 24.736 25.4759C24.1259 22.6406 22.8103 19.8867 21.5531 20.111C21.0469 20.33 21.0186 20.3047 20.6265 20.7109Z" fill="#4165BD"/>
<path fill-rule="evenodd" clip-rule="evenodd" d="M24.2642 18.9243C25.2091 18.8917 25.1419 20.2288 25.1371 21.1157C25.1292 22.5756 24.7474 24.2188 24.3179 25.6591C24.6368 25.7958 24.7227 25.3107 25.1407 25.1984C25.6502 23.9166 25.6955 22.5703 25.8403 21.3103C25.9914 19.9954 25.5834 18.916 24.714 18.7697C24.5533 18.7432 24.2642 18.9243 24.2642 18.9243Z" fill="#4165BD"/>
<path fill-rule="evenodd" clip-rule="evenodd" d="M21.2593 20.9449C24.4453 23.067 17.755 26.3295 16.6025 26.7544C15.7601 26.9865 15.4479 25.6559 16.2441 24.8866C17.9193 23.3705 20.0276 20.1242 21.2593 20.9449Z" fill="#DE7E32"/>
<path fill-rule="evenodd" clip-rule="evenodd" d="M20.2207 16.1686L20.4585 17.2192L21.3327 16.9562L21.0599 15.876L20.2207 16.1686Z" fill="#C4C4C4"/>
<path d="M20.7803 17.0347L21.2376 16.8972C21.1605 16.5924 21.0837 16.2876 21.007 15.9824C20.9326 15.9989 20.859 16.0142 20.7803 16.0377V15.8574C20.8932 15.8235 21.003 15.7969 21.1131 15.769C21.2177 16.1844 21.3227 16.5998 21.4273 17.0152L20.7803 17.2098V17.0347ZM20.3229 16.2702C20.3551 16.5798 20.41 16.8693 20.5138 17.1149L20.7803 17.0347V17.2098L20.4414 17.3112C20.3305 17.0221 20.2088 16.5919 20.1392 16.1574C20.3778 16.0002 20.5842 15.9171 20.7803 15.8574V16.0377C20.6526 16.076 20.5102 16.1374 20.3229 16.2702Z" fill="#222221"/>
<path fill-rule="evenodd" clip-rule="evenodd" d="M20.7854 17.4495C20.5667 17.5958 20.5568 17.8274 20.5671 17.9515C20.6745 19.2377 21.4238 20.1259 21.7209 18.8445C21.8481 18.2955 22.183 17.8139 21.6878 17.4569C21.3132 17.187 20.8336 17.4473 20.7854 17.4495Z" fill="#4D4D4D"/>
<path fill-rule="evenodd" clip-rule="evenodd" d="M20.8548 14.8945C20.7581 15.1801 20.6424 15.4662 20.5839 15.7635C20.543 15.9712 20.5243 16.033 20.5983 16.2181C20.7112 16.5024 20.7792 16.5621 20.5859 16.7911C20.3978 17.0144 20.6396 17.7394 20.7295 18.0746C20.8007 18.3389 20.8389 18.6485 21.0572 18.8065C21.6013 19.201 22.211 18.9641 22.7578 18.7504C23.2995 18.5414 24.361 17.0323 24.528 16.539C24.6489 15.528 24.4111 14.6537 22.8708 14.0402C22.203 13.7742 21.097 14.1787 20.8548 14.8945Z" fill="#ECC19A"/>
<path fill-rule="evenodd" clip-rule="evenodd" d="M21.5289 17.7107C21.5289 17.7107 21.451 18.9307 21.7226 20.0335C22.5837 19.815 23.6507 20.398 24.4429 19.5938C24.2926 19.2664 23.8623 18.3438 23.9772 16.9583C24.0134 16.5225 21.5882 16.4663 21.5289 17.7107Z" fill="#D99E72"/>
<path fill-rule="evenodd" clip-rule="evenodd" d="M21.1543 16.3691C21.1937 16.4914 21.3698 16.6743 21.0771 16.9473C20.6583 17.3174 21.103 18.2587 21.3687 17.8307C21.4955 17.6265 21.4303 16.8602 21.515 16.7945C21.7703 16.5977 22.0384 17.2939 22.3192 17.8616C22.7587 18.7511 23.8973 18.3676 23.9757 18.3027C24.3877 17.9618 24.7484 17.5364 24.7755 16.8567C24.8065 16.0673 25.0542 15.1918 24.54 14.5125C23.6539 13.3422 21.7811 12.8985 20.5804 14.4607C19.9616 15.2649 20.9272 15.6633 21.1543 16.3691Z" fill="#4D4D4D"/>
<path fill-rule="evenodd" clip-rule="evenodd" d="M21.9248 16.777L20.1816 16.1592L20.2544 16.4809L21.9101 16.9986L22.0553 17.6404L22.3881 17.7427L21.9248 16.777Z" fill="#363636"/>
<path fill-rule="evenodd" clip-rule="evenodd" d="M22.0496 17.1529C22.0039 17.5125 21.778 18.0154 21.638 17.9854C21.2817 17.8487 21.4535 17.5883 21.4984 17.2291C21.5453 16.8703 21.4602 16.6509 21.5982 16.6191C21.8583 16.5616 22.095 16.7924 22.0496 17.1529Z" fill="#ECC19A"/>
<path fill-rule="evenodd" clip-rule="evenodd" d="M22.6855 31.2705C23.267 29.687 23.9165 27.8365 23.8922 25.7701C24.3189 25.5442 24.7457 25.3178 25.1728 25.0918C25.2631 26.3588 25.1569 28.5711 24.8694 30.253C24.2342 31.119 23.4953 31.3959 22.6855 31.2705Z" fill="#314A8D"/>
<path fill-rule="evenodd" clip-rule="evenodd" d="M6.37761 55.4257L6.3291 52.5934L13.3582 48.1924L12.9363 51.3212L6.37761 55.4257Z" fill="#D39F25"/>
<path fill-rule="evenodd" clip-rule="evenodd" d="M3.39404 50.7695L6.32837 52.593L6.37728 55.4252L3.84028 53.8609L3.39404 50.7695Z" fill="#C18B21"/>
<path fill-rule="evenodd" clip-rule="evenodd" d="M3.67383 49.1803L6.32856 50.8148L13.1087 46.5753L10.4715 44.936L3.67383 49.1803Z" fill="#858585"/>
<path fill-rule="evenodd" clip-rule="evenodd" d="M6.32837 52.5937L3.39404 50.7703L3.67364 49.1807L6.32837 50.8151V52.5937Z" fill="#3E3E3D"/>
<path fill-rule="evenodd" clip-rule="evenodd" d="M6.3291 52.5935L13.3582 48.1925L13.1097 46.5693L6.3291 50.8149V52.5935Z" fill="#585857"/>
<path fill-rule="evenodd" clip-rule="evenodd" d="M6.06738 49.0171L6.37482 48.6157V47.9025L9.74422 46.0999V47.0831L9.9908 47.2363L10.1769 45.4995L6.06738 47.9495V49.0171Z" fill="#C18B21"/>
<path fill-rule="evenodd" clip-rule="evenodd" d="M6.06689 47.9523L6.39382 48.1513L10.4632 45.6064L10.1474 45.4048L6.06689 47.9523Z" fill="#EDC52E"/>
<path fill-rule="evenodd" clip-rule="evenodd" d="M6.08863 49.6642L5.76172 49.4643L6.06636 47.9526L6.39329 48.1512L6.08863 49.6642Z" fill="#C18B21"/>
<path fill-rule="evenodd" clip-rule="evenodd" d="M6.08887 49.6635L6.87276 49.1863L6.8668 48.2083L9.99041 46.2525V47.2361L10.6964 46.8116L10.4633 45.6021L6.39352 48.1509L6.08887 49.6635Z" fill="#D39F25"/>
<path fill-rule="evenodd" clip-rule="evenodd" d="M7.26416 51.687L7.57518 51.879L8.37497 51.383L8.07509 51.188L7.26416 51.687Z" fill="#858585"/>
<path fill-rule="evenodd" clip-rule="evenodd" d="M7.41966 53.2501L7.26416 53.1534V51.687L7.57518 51.879L7.41966 53.2501Z" fill="#3E3E3D"/>
<path fill-rule="evenodd" clip-rule="evenodd" d="M7.41943 53.2503L8.21964 52.7492L8.37514 51.3794L7.57495 51.8792L7.41943 53.2503Z" fill="#585857"/>
<path fill-rule="evenodd" clip-rule="evenodd" d="M11.5322 48.9999L11.8432 49.192L12.6426 48.696L12.3432 48.501L11.5322 48.9999Z" fill="#858585"/>
<path fill-rule="evenodd" clip-rule="evenodd" d="M11.6873 50.5631L11.5317 50.4664L11.5321 49L11.8432 49.192L11.6873 50.5631Z" fill="#3E3E3D"/>
<path fill-rule="evenodd" clip-rule="evenodd" d="M11.687 50.5628L12.4876 50.0612L12.6427 48.6919L11.8429 49.1917L11.687 50.5628Z" fill="#585857"/>
<path fill-rule="evenodd" clip-rule="evenodd" d="M14.2138 19.8623L13.1587 20.5023L13.1591 24.3652L14.2202 23.7204L14.2138 19.8623Z" fill="#E3E3E3"/>
<path fill-rule="evenodd" clip-rule="evenodd" d="M13.1591 24.3665V20.5027L12.4575 20.063L12.4603 23.9215L13.1591 24.3665Z" fill="#979797"/>
<path fill-rule="evenodd" clip-rule="evenodd" d="M15.6937 16.3804L15.1528 16.7195V19.129L15.6949 18.7886L15.6937 16.3804Z" fill="#E3E3E3"/>
<path fill-rule="evenodd" clip-rule="evenodd" d="M15.6937 16.3808L15.1528 16.72L14.9038 16.5632L15.4387 16.2236L15.6937 16.3808Z" fill="white"/>
<path fill-rule="evenodd" clip-rule="evenodd" d="M15.1528 19.1287V16.7192L14.9038 16.5625L14.9042 18.9711L15.1528 19.1287Z" fill="#AFAFAF"/>
<path fill-rule="evenodd" clip-rule="evenodd" d="M15.8452 16.8628L15.2983 17.2115V18.6401L15.846 18.2905L15.8452 16.8628Z" fill="#E3E3E3"/>
<path fill-rule="evenodd" clip-rule="evenodd" d="M15.8453 16.8627L15.2984 17.2115L15.1509 17.1183L15.6942 16.7695L15.8453 16.8627Z" fill="white"/>
<path fill-rule="evenodd" clip-rule="evenodd" d="M15.2984 18.6404V17.2118L15.1509 17.1187V18.5468L15.2984 18.6404Z" fill="#AFAFAF"/>
<path fill-rule="evenodd" clip-rule="evenodd" d="M15.6822 17.3931L15.4614 17.5333V18.1097L15.6826 17.9691L15.6822 17.3931Z" fill="#4D4D4D"/>
<path fill-rule="evenodd" clip-rule="evenodd" d="M15.1077 16.7515L14.5664 17.0906L14.5668 19.4997L15.1089 19.1597L15.1077 16.7515Z" fill="#E3E3E3"/>
<path fill-rule="evenodd" clip-rule="evenodd" d="M15.1077 16.7514L14.5668 17.0902L14.3179 16.9338L14.8524 16.5942L15.1077 16.7514Z" fill="white"/>
<path fill-rule="evenodd" clip-rule="evenodd" d="M14.5668 19.4994V17.0899L14.3179 16.9336L14.3183 19.3418L14.5668 19.4994Z" fill="#AFAFAF"/>
<path fill-rule="evenodd" clip-rule="evenodd" d="M15.2592 17.2339L14.7119 17.5822V19.0108L15.2596 18.6616L15.2592 17.2339Z" fill="#E3E3E3"/>
<path fill-rule="evenodd" clip-rule="evenodd" d="M15.2593 17.2337L14.712 17.5821L14.5645 17.4893L15.1077 17.1401L15.2593 17.2337Z" fill="white"/>
<path fill-rule="evenodd" clip-rule="evenodd" d="M14.712 19.0105V17.582L14.5645 17.4893L14.5649 18.9169L14.712 19.0105Z" fill="#AFAFAF"/>
<path fill-rule="evenodd" clip-rule="evenodd" d="M15.0962 17.7637L14.8755 17.9043V18.4808L15.0966 18.3397L15.0962 17.7637Z" fill="#4D4D4D"/>
<path fill-rule="evenodd" clip-rule="evenodd" d="M14.5213 17.1221L13.98 17.4612V19.8707L14.5225 19.5303L14.5213 17.1221Z" fill="#E3E3E3"/>
<path fill-rule="evenodd" clip-rule="evenodd" d="M14.5217 17.1215L13.9804 17.4607L13.7314 17.304L14.2664 16.9644L14.5217 17.1215Z" fill="white"/>
<path fill-rule="evenodd" clip-rule="evenodd" d="M13.9804 19.8704V17.4609L13.7314 17.3042L13.7322 19.7128L13.9804 19.8704Z" fill="#AFAFAF"/>
<path fill-rule="evenodd" clip-rule="evenodd" d="M14.6728 17.6045L14.126 17.9532V19.3814L14.6736 19.0322L14.6728 17.6045Z" fill="#E3E3E3"/>
<path fill-rule="evenodd" clip-rule="evenodd" d="M14.6724 17.6044L14.1256 17.9532L13.978 17.86L14.5213 17.5112L14.6724 17.6044Z" fill="white"/>
<path fill-rule="evenodd" clip-rule="evenodd" d="M14.1256 19.3811V17.953L13.978 17.8599V19.288L14.1256 19.3811Z" fill="#AFAFAF"/>
<path fill-rule="evenodd" clip-rule="evenodd" d="M14.5097 18.1343L14.2886 18.2749V18.8514L14.5097 18.7103V18.1343Z" fill="#4D4D4D"/>
<path fill-rule="evenodd" clip-rule="evenodd" d="M13.9349 17.4922L13.394 17.8314V20.2409L13.9361 19.9008L13.9349 17.4922Z" fill="#E3E3E3"/>
<path fill-rule="evenodd" clip-rule="evenodd" d="M13.9349 17.4926L13.394 17.8318L13.145 17.6755L13.6799 17.3354L13.9349 17.4926Z" fill="white"/>
<path fill-rule="evenodd" clip-rule="evenodd" d="M13.394 20.2411V17.8316L13.145 17.6753L13.1454 20.0835L13.394 20.2411Z" fill="#AFAFAF"/>
<path fill-rule="evenodd" clip-rule="evenodd" d="M14.0863 17.9751L13.5391 18.3238L13.5395 19.7524L14.0871 19.4032L14.0863 17.9751Z" fill="#E3E3E3"/>
<path fill-rule="evenodd" clip-rule="evenodd" d="M14.0864 17.975L13.5396 18.3238L13.3916 18.231L13.9349 17.8818L14.0864 17.975Z" fill="white"/>
<path fill-rule="evenodd" clip-rule="evenodd" d="M13.5396 19.7522V18.3237L13.3916 18.231L13.392 19.6586L13.5396 19.7522Z" fill="#AFAFAF"/>
<path fill-rule="evenodd" clip-rule="evenodd" d="M13.9234 18.5054L13.7026 18.646V19.222L13.9238 19.0814L13.9234 18.5054Z" fill="#4D4D4D"/>
<path fill-rule="evenodd" clip-rule="evenodd" d="M13.3484 17.8633L12.8071 18.2025V20.6115L13.3496 20.2715L13.3484 17.8633Z" fill="#E3E3E3"/>
<path fill-rule="evenodd" clip-rule="evenodd" d="M13.3484 17.8632L12.8072 18.2024L12.5586 18.0457L13.0931 17.7061L13.3484 17.8632Z" fill="white"/>
<path fill-rule="evenodd" clip-rule="evenodd" d="M12.8076 20.6121V18.2026L12.5586 18.0459L12.559 20.4541L12.8076 20.6121Z" fill="#AFAFAF"/>
<path fill-rule="evenodd" clip-rule="evenodd" d="M13.4995 18.3457L12.9526 18.694V20.1226L13.5003 19.7734L13.4995 18.3457Z" fill="#E3E3E3"/>
<path fill-rule="evenodd" clip-rule="evenodd" d="M13.4996 18.3456L12.9527 18.6939L12.8052 18.6012L13.3484 18.2524L13.4996 18.3456Z" fill="white"/>
<path fill-rule="evenodd" clip-rule="evenodd" d="M12.9527 20.1228V18.6943L12.8052 18.6016L12.8056 20.0297L12.9527 20.1228Z" fill="#AFAFAF"/>
<path fill-rule="evenodd" clip-rule="evenodd" d="M13.3369 18.8755L13.1162 19.0161V19.5926L13.3369 19.4515V18.8755Z" fill="#4D4D4D"/>
<path fill-rule="evenodd" clip-rule="evenodd" d="M12.7616 18.2334L12.2207 18.5726V20.9821L12.7632 20.6416L12.7616 18.2334Z" fill="#E3E3E3"/>
<path fill-rule="evenodd" clip-rule="evenodd" d="M12.762 18.2338L12.2211 18.573L11.9722 18.4167L12.5071 18.0767L12.762 18.2338Z" fill="white"/>
<path fill-rule="evenodd" clip-rule="evenodd" d="M12.2211 20.9823V18.5728L11.9722 18.4165L11.9726 20.8247L12.2211 20.9823Z" fill="#AFAFAF"/>
<path fill-rule="evenodd" clip-rule="evenodd" d="M12.9136 18.7163L12.3667 19.0651V20.4936L12.9144 20.144L12.9136 18.7163Z" fill="#E3E3E3"/>
<path fill-rule="evenodd" clip-rule="evenodd" d="M12.9131 18.7157L12.3662 19.0645L12.2183 18.9717L12.7615 18.6226L12.9131 18.7157Z" fill="white"/>
<path fill-rule="evenodd" clip-rule="evenodd" d="M12.3662 20.4934V19.0649L12.2183 18.9722L12.2187 20.3998L12.3662 20.4934Z" fill="#AFAFAF"/>
<path fill-rule="evenodd" clip-rule="evenodd" d="M12.75 19.2461L12.5293 19.3867V19.9628L12.7504 19.8221L12.75 19.2461Z" fill="#4D4D4D"/>
<path fill-rule="evenodd" clip-rule="evenodd" d="M12.1757 18.6055L11.6348 18.9446V21.3537L12.1768 21.0137L12.1757 18.6055Z" fill="#E3E3E3"/>
<path fill-rule="evenodd" clip-rule="evenodd" d="M12.1756 18.6049L11.6347 18.9441L11.3857 18.7874L11.9203 18.4478L12.1756 18.6049Z" fill="white"/>
<path fill-rule="evenodd" clip-rule="evenodd" d="M11.6347 21.3534V18.9443L11.3857 18.7876L11.3861 21.1958L11.6347 21.3534Z" fill="#AFAFAF"/>
<path fill-rule="evenodd" clip-rule="evenodd" d="M12.327 19.0879L11.7798 19.4362V20.8648L12.3274 20.5156L12.327 19.0879Z" fill="#E3E3E3"/>
<path fill-rule="evenodd" clip-rule="evenodd" d="M12.3271 19.0877L11.7799 19.4361L11.6323 19.3433L12.1756 18.9941L12.3271 19.0877Z" fill="white"/>
<path fill-rule="evenodd" clip-rule="evenodd" d="M11.7799 20.865V19.4365L11.6323 19.3438L11.6327 20.7714L11.7799 20.865Z" fill="#AFAFAF"/>
<path fill-rule="evenodd" clip-rule="evenodd" d="M12.1641 19.6177L11.9434 19.7583V20.3348L12.1645 20.1937L12.1641 19.6177Z" fill="#4D4D4D"/>
<path fill-rule="evenodd" clip-rule="evenodd" d="M15.7279 13.4448L15.187 13.784V16.1931L15.7291 15.853L15.7279 13.4448Z" fill="#E3E3E3"/>
<path fill-rule="evenodd" clip-rule="evenodd" d="M15.7279 13.4448L15.187 13.784L14.938 13.6272L15.4729 13.2876L15.7279 13.4448Z" fill="white"/>
<path fill-rule="evenodd" clip-rule="evenodd" d="M15.187 16.1937V13.7842L14.938 13.6274L14.9388 16.0361L15.187 16.1937Z" fill="#AFAFAF"/>
<path fill-rule="evenodd" clip-rule="evenodd" d="M15.8794 13.9272L15.3325 14.2756V15.7041L15.8802 15.3549L15.8794 13.9272Z" fill="#E3E3E3"/>
<path fill-rule="evenodd" clip-rule="evenodd" d="M15.8795 13.9276L15.3326 14.276L15.1851 14.1832L15.7279 13.8345L15.8795 13.9276Z" fill="white"/>
<path fill-rule="evenodd" clip-rule="evenodd" d="M15.3326 15.7039V14.2758L15.1851 14.1826V15.6107L15.3326 15.7039Z" fill="#AFAFAF"/>
<path fill-rule="evenodd" clip-rule="evenodd" d="M15.7163 14.4575L15.4956 14.5982V15.1746L15.7167 15.0336L15.7163 14.4575Z" fill="#4D4D4D"/>
<path fill-rule="evenodd" clip-rule="evenodd" d="M15.1415 13.8154L14.6006 14.1546V16.5641L15.1427 16.2241L15.1415 13.8154Z" fill="#E3E3E3"/>
<path fill-rule="evenodd" clip-rule="evenodd" d="M15.1419 13.8154L14.601 14.1546L14.3521 13.9983L14.8866 13.6582L15.1419 13.8154Z" fill="white"/>
<path fill-rule="evenodd" clip-rule="evenodd" d="M14.601 16.5638V14.1544L14.3521 13.998L14.3525 16.4062L14.601 16.5638Z" fill="#AFAFAF"/>
<path fill-rule="evenodd" clip-rule="evenodd" d="M15.2933 14.2979L14.7461 14.6466V16.0751L15.2937 15.726L15.2933 14.2979Z" fill="#E3E3E3"/>
<path fill-rule="evenodd" clip-rule="evenodd" d="M15.2929 14.2978L14.7457 14.6465L14.5981 14.5538L15.1414 14.2046L15.2929 14.2978Z" fill="white"/>
<path fill-rule="evenodd" clip-rule="evenodd" d="M14.7457 16.0755V14.6469L14.5981 14.5542L14.5985 15.9819L14.7457 16.0755Z" fill="#AFAFAF"/>
<path fill-rule="evenodd" clip-rule="evenodd" d="M15.1299 14.8281L14.9092 14.9688V15.5448L15.1303 15.4042L15.1299 14.8281Z" fill="#4D4D4D"/>
<path fill-rule="evenodd" clip-rule="evenodd" d="M14.5555 14.186L14.0142 14.5252L14.0146 16.9343L14.5566 16.5942L14.5555 14.186Z" fill="#E3E3E3"/>
<path fill-rule="evenodd" clip-rule="evenodd" d="M14.5554 14.1865L14.0145 14.5257L13.7651 14.3689L14.3001 14.0293L14.5554 14.1865Z" fill="white"/>
<path fill-rule="evenodd" clip-rule="evenodd" d="M14.0145 16.9349V14.5259L13.7651 14.3691L13.7659 16.7773L14.0145 16.9349Z" fill="#AFAFAF"/>
<path fill-rule="evenodd" clip-rule="evenodd" d="M14.7065 14.6689L14.1597 15.0173V16.4458L14.7073 16.0966L14.7065 14.6689Z" fill="#E3E3E3"/>
<path fill-rule="evenodd" clip-rule="evenodd" d="M14.7066 14.6689L14.1597 15.0172L14.0122 14.9244L14.5555 14.5757L14.7066 14.6689Z" fill="white"/>
<path fill-rule="evenodd" clip-rule="evenodd" d="M14.1597 16.4456V15.0171L14.0122 14.9243L14.0126 16.352L14.1597 16.4456Z" fill="#AFAFAF"/>
<path fill-rule="evenodd" clip-rule="evenodd" d="M14.544 15.1987L14.3232 15.3394V15.9158L14.544 15.7748V15.1987Z" fill="#4D4D4D"/>
<path fill-rule="evenodd" clip-rule="evenodd" d="M13.9686 14.5576L13.4277 14.8968V17.3063L13.9698 16.9658L13.9686 14.5576Z" fill="#E3E3E3"/>
<path fill-rule="evenodd" clip-rule="evenodd" d="M13.9686 14.5571L13.4277 14.8963L13.1787 14.7395L13.7132 14.3999L13.9686 14.5571Z" fill="white"/>
<path fill-rule="evenodd" clip-rule="evenodd" d="M13.4277 17.306V14.8965L13.1787 14.7397L13.1791 17.1484L13.4277 17.306Z" fill="#AFAFAF"/>
<path fill-rule="evenodd" clip-rule="evenodd" d="M14.12 15.04L13.5728 15.3888V16.8173L14.1204 16.4677L14.12 15.04Z" fill="#E3E3E3"/>
<path fill-rule="evenodd" clip-rule="evenodd" d="M14.1201 15.0399L13.5728 15.3887L13.4253 15.2955L13.9686 14.9468L14.1201 15.0399Z" fill="white"/>
<path fill-rule="evenodd" clip-rule="evenodd" d="M13.5728 16.8176V15.3891L13.4253 15.2959L13.4257 16.724L13.5728 16.8176Z" fill="#AFAFAF"/>
<path fill-rule="evenodd" clip-rule="evenodd" d="M13.9571 15.5698L13.7363 15.7105V16.2869L13.9575 16.1463L13.9571 15.5698Z" fill="#4D4D4D"/>
<path fill-rule="evenodd" clip-rule="evenodd" d="M13.3821 14.9277L12.8408 15.2669L12.8412 17.676L13.3833 17.3359L13.3821 14.9277Z" fill="#E3E3E3"/>
<path fill-rule="evenodd" clip-rule="evenodd" d="M13.3825 14.9282L12.8416 15.2669L12.5923 15.1106L13.1272 14.771L13.3825 14.9282Z" fill="white"/>
<path fill-rule="evenodd" clip-rule="evenodd" d="M12.8416 17.6757V15.2662L12.5923 15.1099L12.5931 17.518L12.8416 17.6757Z" fill="#AFAFAF"/>
<path fill-rule="evenodd" clip-rule="evenodd" d="M13.5337 15.4102L12.9868 15.7585V17.187L13.5345 16.8378L13.5337 15.4102Z" fill="#E3E3E3"/>
<path fill-rule="evenodd" clip-rule="evenodd" d="M13.5333 15.41L12.9864 15.7583L12.8389 15.6656L13.3821 15.3164L13.5333 15.41Z" fill="white"/>
<path fill-rule="evenodd" clip-rule="evenodd" d="M12.9864 17.1873V15.7588L12.8389 15.666L12.8393 17.0937L12.9864 17.1873Z" fill="#AFAFAF"/>
<path fill-rule="evenodd" clip-rule="evenodd" d="M13.3706 15.9399L13.1499 16.0806V16.657L13.371 16.516L13.3706 15.9399Z" fill="#4D4D4D"/>
<path fill-rule="evenodd" clip-rule="evenodd" d="M12.7958 15.2983L12.2549 15.6375V18.0466L12.7974 17.7065L12.7958 15.2983Z" fill="#E3E3E3"/>
<path fill-rule="evenodd" clip-rule="evenodd" d="M12.7957 15.2983L12.2548 15.6375L12.0059 15.4807L12.5408 15.1411L12.7957 15.2983Z" fill="white"/>
<path fill-rule="evenodd" clip-rule="evenodd" d="M12.2548 18.0467V15.6372L12.0059 15.4805L12.0066 17.8891L12.2548 18.0467Z" fill="#AFAFAF"/>
<path fill-rule="evenodd" clip-rule="evenodd" d="M12.9472 15.7808L12.4004 16.1295V17.5576L12.948 17.2084L12.9472 15.7808Z" fill="#E3E3E3"/>
<path fill-rule="evenodd" clip-rule="evenodd" d="M12.9473 15.7807L12.4005 16.1294L12.2529 16.0363L12.7962 15.6875L12.9473 15.7807Z" fill="white"/>
<path fill-rule="evenodd" clip-rule="evenodd" d="M12.4004 17.5574V16.1293L12.2524 16.0361L12.2528 17.4642L12.4004 17.5574Z" fill="#AFAFAF"/>
<path fill-rule="evenodd" clip-rule="evenodd" d="M12.7842 16.3105L12.5635 16.4512V17.0276L12.7846 16.8866L12.7842 16.3105Z" fill="#4D4D4D"/>
<path fill-rule="evenodd" clip-rule="evenodd" d="M12.2094 15.6689L11.6685 16.0081V18.4176L12.2105 18.0776L12.2094 15.6689Z" fill="#E3E3E3"/>
<path fill-rule="evenodd" clip-rule="evenodd" d="M12.2098 15.6684L11.6689 16.0076L11.4199 15.8513L11.9544 15.5112L12.2098 15.6684Z" fill="white"/>
<path fill-rule="evenodd" clip-rule="evenodd" d="M11.6689 18.4174V16.0079L11.4199 15.8516L11.4203 18.2597L11.6689 18.4174Z" fill="#AFAFAF"/>
<path fill-rule="evenodd" clip-rule="evenodd" d="M12.3612 16.1514L11.814 16.5001V17.9287L12.362 17.5795L12.3612 16.1514Z" fill="#E3E3E3"/>
<path fill-rule="evenodd" clip-rule="evenodd" d="M12.3613 16.1513L11.8141 16.5L11.6665 16.4073L12.2098 16.0581L12.3613 16.1513Z" fill="white"/>
<path fill-rule="evenodd" clip-rule="evenodd" d="M11.8141 17.9285V16.5L11.6665 16.4072L11.6669 17.8349L11.8141 17.9285Z" fill="#AFAFAF"/>
<path fill-rule="evenodd" clip-rule="evenodd" d="M12.1983 16.6816L11.9775 16.8223V17.3983L12.1987 17.2577L12.1983 16.6816Z" fill="#4D4D4D"/>
<path fill-rule="evenodd" clip-rule="evenodd" d="M15.3436 18.1531C15.0445 18.1048 14.5581 17.8174 14.3914 17.7068C14.1771 17.5644 14.0991 17.4482 13.8848 17.3058C14.0446 17.1974 14.0709 17.0677 14.4312 17.3559C14.7394 17.4565 15.9795 17.4099 15.886 17.8666C15.7747 18.1148 15.7134 18.2432 15.3436 18.1531Z" fill="#7E7E7E"/>
<path fill-rule="evenodd" clip-rule="evenodd" d="M14.5488 16.6575L13.9682 15.9151C13.8314 15.7401 13.6333 15.9186 13.7494 16.1098L14.2557 16.9479C14.3715 17.1395 14.6789 16.8382 14.5488 16.6575Z" fill="#7E7E7E"/>
<path fill-rule="evenodd" clip-rule="evenodd" d="M16.4173 17.9313C16.5131 18.1094 16.1333 18.627 15.8772 18.4407C15.4552 18.2448 15.0547 17.8886 15.0046 17.8403C14.9175 17.7571 14.4597 17.2425 14.313 17.0531C14.1141 16.7966 14.1785 16.4513 14.4295 16.5219C14.4426 16.4143 14.5464 16.2907 14.6773 16.3216C14.7592 16.2319 14.7958 16.1409 14.9533 16.1283C15.0205 16.0765 14.9978 15.9128 15.1891 15.9772C15.4755 16.0077 15.9237 16.6503 16.1202 17.0383C16.222 17.2377 16.1766 17.4846 16.4173 17.9313Z" fill="#7E7E7E"/>
<path fill-rule="evenodd" clip-rule="evenodd" d="M19.9992 20.7851C19.4882 19.8037 17.3162 18.4823 16.3506 17.4121C15.8614 17.3799 15.2724 17.8962 15.5532 18.2602C15.7835 18.6848 17.5561 21.1543 19.0109 22.3617C19.7033 22.9904 19.6353 21.5131 19.9992 20.7851Z" fill="#DE7E32"/>
<path fill-rule="evenodd" clip-rule="evenodd" d="M12.7184 24.0378C12.8929 24.1867 13.3913 23.3738 13.1284 23.1361C12.5951 22.8544 12.6245 22.4656 12.3743 22.311C12.2658 22.2387 11.2719 21.8887 11.0106 21.9313C10.8336 21.8882 10.805 23.2401 10.9239 23.4082C11.1939 23.5654 11.909 23.7543 12.0796 23.7421C12.4861 23.7143 12.3218 23.6999 12.7184 24.0378Z" fill="#7E7E7E"/>
<path fill-rule="evenodd" clip-rule="evenodd" d="M10.9429 23.081L10.2377 23.0322C10.0588 23.0196 10.0663 23.2495 10.2429 23.2822L10.9238 23.408C11.0944 23.4393 11.1294 23.0941 10.9429 23.081Z" fill="#7E7E7E"/>
<path fill-rule="evenodd" clip-rule="evenodd" d="M11.0316 22.8809C11.0348 22.7847 10.9656 22.7028 10.8777 22.6993L10.0453 22.6667C9.83447 22.6584 9.8281 22.9197 10.0377 22.9458L10.8661 23.0494C10.9532 23.0603 11.0284 22.9771 11.0316 22.8809Z" fill="#7E7E7E"/>
<path fill-rule="evenodd" clip-rule="evenodd" d="M11.0726 22.518C11.0718 22.4213 10.9999 22.3342 10.9036 22.336L9.98888 22.3547C9.7586 22.359 9.75145 22.6407 9.98133 22.6499L10.8917 22.686C10.9879 22.6895 11.0695 22.6142 11.0726 22.518Z" fill="#7E7E7E"/>
<path fill-rule="evenodd" clip-rule="evenodd" d="M10.9609 21.9219L10.1217 21.9402C9.91093 21.9446 9.90656 22.2306 10.1173 22.2389L10.9494 22.272C11.1657 22.2802 11.1657 21.9176 10.9609 21.9219Z" fill="#7E7E7E"/>
<path fill-rule="evenodd" clip-rule="evenodd" d="M12.5881 22.8075C12.6064 22.656 12.5138 22.4261 12.3487 22.238C12.1841 22.0499 11.9733 21.8688 11.8993 21.7978C11.7084 21.6145 11.6988 21.6707 11.5079 21.4878C11.4061 21.601 11.3083 21.7891 11.6726 22.0817C11.7171 22.1766 11.6786 22.2463 11.9709 22.4352C11.914 23.1554 12.5623 23.1036 12.5881 22.8075Z" fill="#7E7E7E"/>
<path fill-rule="evenodd" clip-rule="evenodd" d="M16.4189 26.7623C15.5491 26.9234 13.0499 24.671 12.305 23.7018C12.2076 23.1763 12.5345 22.538 12.9024 22.7919C13.3184 22.9826 15.9815 24.3188 17.0939 25.0141C17.7588 25.6772 17.0266 26.2668 16.4189 26.7623Z" fill="#DE7E32"/>
</svg>
