<svg width="62" height="56" viewBox="0 0 62 56" fill="none" xmlns="http://www.w3.org/2000/svg">
<path fill-rule="evenodd" clip-rule="evenodd" d="M0.922852 39.8368L24.6118 54.8336L60.5031 32.1514L36.808 17.1553L0.922852 39.8368Z" fill="#CACACA"/>
<path fill-rule="evenodd" clip-rule="evenodd" d="M60.5039 32.1509L24.6113 54.8338L24.6132 55.2641L60.4996 32.5805L60.5039 32.1509Z" fill="#AFAFAF"/>
<path fill-rule="evenodd" clip-rule="evenodd" d="M0.922852 39.8369L24.6118 54.8337L24.6124 55.264L0.938158 40.2994L0.922852 39.8369Z" fill="#7E7E7E"/>
<path fill-rule="evenodd" clip-rule="evenodd" d="M50.1994 27.5345L43.969 31.4724C43.658 31.6688 43.3023 31.6688 42.9918 31.4724L36.7639 27.5345C36.6605 27.4688 36.6011 27.3569 36.6011 27.2255C36.6011 27.0948 36.6605 26.9822 36.7639 26.9165L42.9931 22.9793C43.3035 22.7829 43.6598 22.7829 43.9702 22.9793L50.1994 26.9165C50.3028 26.9822 50.3622 27.0948 50.3622 27.2255C50.3622 27.3562 50.3035 27.4688 50.1994 27.5345Z" fill="#808080"/>
<path fill-rule="evenodd" clip-rule="evenodd" d="M25.3824 5.73148C22.0842 4.8876 24.2975 17.3219 24.7383 18.4138C25.5673 19.9675 27.447 18.6705 27.417 16.8816C27.3294 14.732 28.7829 5.89704 25.3824 5.73148Z" fill="#CB6117"/>
<path fill-rule="evenodd" clip-rule="evenodd" d="M24.7393 18.4129C24.9364 19.8835 29.7782 23.5566 31.4196 24.1786C32.169 24.0854 32.9558 22.641 32.4415 22.1718C31.989 21.5953 28.8763 18.3338 27.4179 16.8806C26.2148 16.1292 25.114 17.2037 24.7393 18.4129Z" fill="#DE7E32"/>
<path fill-rule="evenodd" clip-rule="evenodd" d="M31.2679 23.4518C30.985 23.2574 31.7804 22.067 32.2236 22.3519C32.8622 23.0336 33.3502 22.7883 33.6796 23.0966C33.829 23.228 34.7939 24.5886 34.8729 25.0163C35.0198 25.269 33.4512 25.9868 33.1726 25.889C32.7214 25.6034 32.0522 24.5618 31.9793 24.291C31.8061 23.6462 31.9089 23.8929 31.2679 23.4518Z" fill="#D99E72"/>
<path fill-rule="evenodd" clip-rule="evenodd" d="M33.5692 25.8036L33.8913 26.9143C33.9733 27.1964 33.6635 27.2682 33.5558 26.9974L33.1394 25.9531C33.036 25.6917 33.4841 25.51 33.5692 25.8036Z" fill="#D99E72"/>
<path fill-rule="evenodd" clip-rule="evenodd" d="M33.6698 25.4546C33.7929 25.4003 33.9337 25.466 33.9839 25.6001L34.4547 26.8736C34.5741 27.196 34.2392 27.3408 34.0972 27.0291L33.537 25.7978C33.4782 25.6678 33.5468 25.5089 33.6698 25.4546Z" fill="#D99E72"/>
<path fill-rule="evenodd" clip-rule="evenodd" d="M34.0812 25.222C34.2067 25.1738 34.3567 25.2408 34.4033 25.3902L34.8502 26.8179C34.9629 27.1772 34.6023 27.3334 34.4718 26.9815L33.9569 25.588C33.9025 25.4419 33.9582 25.2763 34.0812 25.222Z" fill="#D99E72"/>
<path fill-rule="evenodd" clip-rule="evenodd" d="M34.9095 25.0892L35.3184 26.4003C35.4213 26.7294 35.0533 26.8835 34.9339 26.5611L34.4631 25.2876C34.3407 24.9558 34.8097 24.7695 34.9095 25.0892Z" fill="#D99E72"/>
<path fill-rule="evenodd" clip-rule="evenodd" d="M32.9267 23.0215C33.1134 22.9156 33.4587 22.941 33.7869 23.0992C34.1151 23.2581 34.458 23.4913 34.5878 23.5691C34.9233 23.7702 34.8553 23.8144 35.1908 24.0168C35.0972 24.2333 34.9104 24.4224 34.3441 24.0081C34.1984 23.988 34.0784 24.0081 33.839 23.8526C32.9359 24.3118 32.5569 23.2132 32.9267 23.0215Z" fill="#ECC19A"/>
<path fill-rule="evenodd" clip-rule="evenodd" d="M21.5607 28.8726C27.8841 28.8726 33.0131 31.8493 33.0131 35.5204C33.0131 39.1915 27.8848 42.1682 21.5607 42.1682C15.2367 42.1682 10.1084 39.1915 10.1084 35.5204C10.1084 31.8486 15.2367 28.8726 21.5607 28.8726Z" fill="#808080"/>
<path fill-rule="evenodd" clip-rule="evenodd" d="M16.1847 28.8973C16.1847 28.8973 14.2616 28.8758 14.8812 28.0259C15.1451 27.6646 14.3008 27.4642 14.013 27.4387C13.6242 27.4045 13.1932 27.8885 12.8112 28.3959C12.4303 29.0092 11.5413 29.591 11.3203 29.7907C10.7154 30.3383 10.3964 31.8291 10.457 32.5865C10.4925 33.0282 10.6603 33.3533 10.9676 33.3613C11.0791 33.3412 11.1109 33.3841 11.2585 33.2554C11.4085 33.1247 12.4107 32.2688 12.7395 31.8847C13.5795 30.9014 14.8188 30.7606 15.1004 30.7345C15.3826 30.7063 16.2465 30.6011 16.2465 30.6011C16.2465 30.6011 16.5312 30.1292 16.1847 28.8973Z" fill="#979796"/>
<path fill-rule="evenodd" clip-rule="evenodd" d="M16.472 28.733C15.6026 28.6003 15.943 27.8522 14.4105 27.6324C13.8441 27.5513 13.2619 28.6023 12.9245 28.985C12.4451 29.5286 12.1714 29.5769 11.7998 29.7719C11.4569 29.9515 11.2396 30.2961 11.0614 30.7726C10.6463 31.8819 10.4767 33.2808 11.4171 33.3901C11.7802 33.4323 12.731 32.1058 13.1327 31.6701C14.0388 30.6326 15.4764 31.0293 15.7581 31.0039C16.0403 30.9757 16.2466 30.6017 16.2466 30.6017C16.2466 30.6017 16.8185 29.9643 16.472 28.733Z" fill="#3E3E3D"/>
<path fill-rule="evenodd" clip-rule="evenodd" d="M21.2638 6.35007C21.0452 6.3427 18.2117 7.07532 16.8935 7.90512C15.9763 8.60422 16.4906 10.8738 16.4386 11.1533C16.2659 12.0595 15.9255 16.4062 15.8281 17.6717C15.7302 18.9365 14.9446 21.3623 15.7602 22.1311C16.3161 25.9477 22.3573 23.6252 23.6063 20.9085C23.6798 18.2884 24.9 17.2267 25.9647 13.0327C26.2206 12.0233 27.6319 8.69536 26.5415 6.97543C26.2635 6.53573 25.5967 6.12083 25.1596 6.02901C23.6038 5.70124 21.5356 6.36013 21.2638 6.35007Z" fill="#CB6117"/>
<path fill-rule="evenodd" clip-rule="evenodd" d="M21.674 26.035C20.883 26.7462 20.1991 27.9098 21.2497 30.0768C23.6234 32.0179 25.5594 34.7708 28.6893 36.7769C27.3491 33.9678 27.0711 32.8397 25.7308 30.0312C23.8849 26.8508 22.6855 26.0143 21.674 26.035Z" fill="#314A8D"/>
<path fill-rule="evenodd" clip-rule="evenodd" d="M28.2444 36.465C29.1175 37.4101 31.283 36.8344 31.0896 35.5206C30.1185 28.9137 26.8141 24.4979 23.8435 20.1156C20.386 22.3584 21.902 20.6244 21.0503 19.9775C19.8987 21.7565 20.1632 24.4121 20.6009 25.0489C21.3583 26.1515 21.4562 26.2111 22.9336 28.5558C24.479 31.3321 26.5325 34.6124 28.2444 36.465Z" fill="#4165BD"/>
<path fill-rule="evenodd" clip-rule="evenodd" d="M15.1143 27.8115C14.3232 28.4288 13.4844 29.0187 14.5351 31.309C17.139 33.458 19.3242 37.9388 21.8014 40.3746C20.4605 37.4079 20.7103 35.82 19.3701 32.8534C17.5241 29.4557 16.1735 28.3377 15.1143 27.8115Z" fill="#314A8D"/>
<path fill-rule="evenodd" clip-rule="evenodd" d="M23.5781 6.6644C25.2043 6.56386 25.9225 9.52984 24.5094 14.5824C24.968 14.9216 24.9251 14.6776 25.5649 14.6709C26.7135 10.485 27.259 7.61018 25.2349 6.39697C24.3196 6.49885 24.4598 6.25621 23.5781 6.6644Z" fill="#4165BD"/>
<path fill-rule="evenodd" clip-rule="evenodd" d="M21.6773 40.2025C22.0562 41.0041 24.7306 41.238 24.8445 39.7467C24.9382 35.1137 23.934 31.9594 21.9179 26.4698C23.4932 26.0402 22.123 23.5977 22.2418 20.6538C18.7843 23.1821 16.549 22.2651 15.1855 21.7564C14.1495 26.4772 19.5674 35.7357 21.6773 40.2025Z" fill="#4165BD"/>
<path fill-rule="evenodd" clip-rule="evenodd" d="M15.1846 21.7563C18.3671 23.4749 23.3717 23.1545 23.9044 20.5545C23.8848 20.2589 23.9638 19.7233 23.9442 19.4277C22.0523 20.9332 17.4414 22.257 15.334 20.9526C15.2844 21.2201 15.2348 21.4882 15.1846 21.7563Z" fill="#314A8D"/>
<path fill-rule="evenodd" clip-rule="evenodd" d="M17.5705 8.02602C14.4241 6.65195 14.6446 19.5682 14.9323 20.7197C15.5403 22.3921 17.3777 21.5422 17.592 19.7679C18.4191 17.7732 20.9098 8.74657 17.5705 8.02602Z" fill="#DE7E32"/>
<path fill-rule="evenodd" clip-rule="evenodd" d="M17.0283 7.82336C18.521 7.68729 19.8166 9.76715 19.751 15.1796C20.2635 15.5336 20.9554 15.5141 21.5511 15.4954C21.4543 11.6848 20.6676 7.24423 18.7127 7.07666C18.3453 7.14503 17.7502 7.37226 17.0283 7.82336Z" fill="#4165BD"/>
<path fill-rule="evenodd" clip-rule="evenodd" d="M16.6899 21.4466C18.6253 19.736 19.4304 17.2319 19.6931 12.9682C22.2033 13.8791 24.4926 13.4723 26.3465 11.4668C25.6687 14.3604 25.2836 16.6849 23.9103 20.2139C22.946 21.4948 20.5509 22.6825 16.6899 21.4466Z" fill="#314A8D"/>
<path fill-rule="evenodd" clip-rule="evenodd" d="M14.9741 20.8262C15.058 22.3102 20.0859 26.9854 21.6741 27.7562C22.4278 27.7321 23.3223 26.3654 22.8466 25.8499C22.44 25.2339 19.1032 21.1271 17.7617 19.5453C16.6193 18.6853 15.4394 19.6552 14.9741 20.8262Z" fill="#DE7E32"/>
<path fill-rule="evenodd" clip-rule="evenodd" d="M36.9649 26.9311L29.8106 31.426L22.5786 26.8889V26.5236L22.9674 26.5249L29.8137 22.27L36.581 26.5645L36.9643 26.5658L36.9649 26.9311Z" fill="#7E7E7E"/>
<path fill-rule="evenodd" clip-rule="evenodd" d="M36.9649 26.5655L29.8106 31.0651L22.5786 26.528L29.8137 22.0317L36.9649 26.5655Z" fill="#F2ECE0"/>
<path fill-rule="evenodd" clip-rule="evenodd" d="M35.7836 26.563L29.8042 30.3226L23.7612 26.5315L29.8067 22.7739L35.7836 26.563Z" fill="#D7C792"/>
<path fill-rule="evenodd" clip-rule="evenodd" d="M35.3678 26.5623L29.8023 30.0619L24.1763 26.5328L29.8048 23.0347L35.3678 26.5623Z" fill="#E8DEC1"/>
<path fill-rule="evenodd" clip-rule="evenodd" d="M32.068 24.7894L29.7843 26.2258L27.4761 24.7774L29.7849 23.3423L32.068 24.7894Z" fill="white"/>
<path fill-rule="evenodd" clip-rule="evenodd" d="M32.068 28.2201L29.7843 29.6565L27.4761 28.208L29.7849 26.7729L32.068 28.2201Z" fill="white"/>
<path fill-rule="evenodd" clip-rule="evenodd" d="M34.6763 26.5047L32.3926 27.9405L30.085 26.4927L32.3938 25.0576L34.6763 26.5047Z" fill="#D7C792"/>
<path fill-rule="evenodd" clip-rule="evenodd" d="M29.4303 26.5047L27.1466 27.9405L24.8384 26.4927L27.1478 25.0576L29.4303 26.5047Z" fill="#D7C792"/>
<path fill-rule="evenodd" clip-rule="evenodd" d="M23.6318 26.5993C24.0971 26.5932 24.9004 26.9009 25.1784 27.0242C25.5359 27.1838 25.6804 27.3393 26.038 27.4994C25.8188 27.7066 25.8078 27.9117 25.1961 27.5685C24.7051 27.4975 22.8304 27.8976 22.8708 27.1784C22.9846 26.7722 23.0495 26.5604 23.6318 26.5993Z" fill="#D99E72"/>
<path fill-rule="evenodd" clip-rule="evenodd" d="M25.1727 28.6609L26.2203 29.6355C26.4671 29.8648 26.7285 29.541 26.5099 29.2816L25.5548 28.1415C25.3356 27.8814 24.9346 28.421 25.1727 28.6609Z" fill="#D99E72"/>
<path fill-rule="evenodd" clip-rule="evenodd" d="M22.003 27.3853C22.0061 27.1038 22.3269 26.089 22.7579 26.3041C23.4424 26.4898 24.1306 26.9248 24.2169 26.9851C24.3676 27.0883 25.1776 27.7486 25.4433 27.9979C25.8021 28.3344 25.7813 28.8767 25.3839 28.8364C25.3876 29.0033 25.2572 29.2185 25.0514 29.2071C24.9468 29.3653 24.9112 29.5127 24.6743 29.5744C24.5837 29.6709 24.6541 29.9142 24.3498 29.8666C23.9077 29.8968 23.0126 29.0074 22.5247 28.5187C22.0563 28.0495 22.0006 27.6293 22.003 27.3853Z" fill="#ECC19A"/>
<path fill-rule="evenodd" clip-rule="evenodd" d="M48.753 36.0124L41.5981 40.5844L34.3667 36.1244V35.7591L34.7555 35.7564L41.6018 31.4277L48.3691 35.6505L48.7524 35.6478L48.753 36.0124Z" fill="#7E7E7E"/>
<path fill-rule="evenodd" clip-rule="evenodd" d="M48.753 35.648L41.5981 40.2233L34.3667 35.7639L41.6018 31.1899L48.753 35.648Z" fill="#F2ECE0"/>
<path fill-rule="evenodd" clip-rule="evenodd" d="M47.571 35.6575L41.5923 39.4815L35.5493 35.7547L41.5948 31.9321L47.571 35.6575Z" fill="#D7C792"/>
<path fill-rule="evenodd" clip-rule="evenodd" d="M47.1559 35.6607L41.5898 39.2206L35.9644 35.7512L41.5929 32.1934L47.1559 35.6607Z" fill="#E8DEC1"/>
<path fill-rule="evenodd" clip-rule="evenodd" d="M43.8555 33.924L41.5724 35.3838L39.2642 33.9608L41.573 32.501L43.8555 33.924Z" fill="white"/>
<path fill-rule="evenodd" clip-rule="evenodd" d="M43.8555 37.3546L41.5724 38.8152L39.2642 37.3915L41.573 35.9316L43.8555 37.3546Z" fill="white"/>
<path fill-rule="evenodd" clip-rule="evenodd" d="M46.4645 35.611L44.1808 37.0715L41.8726 35.6479L44.182 34.188L46.4645 35.611Z" fill="#D7C792"/>
<path fill-rule="evenodd" clip-rule="evenodd" d="M41.2189 35.6671L38.9352 37.1277L36.627 35.704L38.9364 34.2441L41.2189 35.6671Z" fill="#D7C792"/>
<path fill-rule="evenodd" clip-rule="evenodd" d="M41.3926 40.6482L34.2378 45.2195L27.0063 40.7601V40.3948L27.3951 40.3921L34.2414 36.0635L41.0087 40.2862L41.392 40.2829L41.3926 40.6482Z" fill="#7E7E7E"/>
<path fill-rule="evenodd" clip-rule="evenodd" d="M41.3926 40.2825L34.2378 44.8585L27.0063 40.3992L34.2414 35.8252L41.3926 40.2825Z" fill="#F2ECE0"/>
<path fill-rule="evenodd" clip-rule="evenodd" d="M40.2107 40.2928L34.232 44.1167L28.189 40.39L34.2344 36.5674L40.2107 40.2928Z" fill="#D7C792"/>
<path fill-rule="evenodd" clip-rule="evenodd" d="M39.7955 40.296L34.2295 43.8558L28.604 40.3865L34.2325 36.8286L39.7955 40.296Z" fill="#E8DEC1"/>
<path fill-rule="evenodd" clip-rule="evenodd" d="M36.4951 38.5585L34.212 40.0191L31.9038 38.5961L34.2126 37.1362L36.4951 38.5585Z" fill="white"/>
<path fill-rule="evenodd" clip-rule="evenodd" d="M36.4951 41.9899L34.212 43.4504L31.9038 42.0268L34.2126 40.5669L36.4951 41.9899Z" fill="white"/>
<path fill-rule="evenodd" clip-rule="evenodd" d="M39.104 40.2462L36.8203 41.7068L34.5127 40.2831L36.8215 38.8232L39.104 40.2462Z" fill="#D7C792"/>
<path fill-rule="evenodd" clip-rule="evenodd" d="M33.8586 40.3029L31.5748 41.7634L29.2666 40.3398L31.576 38.8799L33.8586 40.3029Z" fill="#D7C792"/>
<path fill-rule="evenodd" clip-rule="evenodd" d="M34.0318 45.2839L26.8769 49.8552L19.6455 45.3958V45.0306L20.0343 45.0279L26.8806 40.6992L33.6479 44.922L34.0318 44.9186V45.2839Z" fill="#7E7E7E"/>
<path fill-rule="evenodd" clip-rule="evenodd" d="M34.0318 44.9183L26.8769 49.4943L19.6455 45.0349L26.8806 40.4609L34.0318 44.9183Z" fill="#F2ECE0"/>
<path fill-rule="evenodd" clip-rule="evenodd" d="M32.8499 44.9285L26.8711 48.7525L20.8281 45.0257L26.8736 41.2031L32.8499 44.9285Z" fill="#D7C792"/>
<path fill-rule="evenodd" clip-rule="evenodd" d="M32.4347 44.9322L26.8686 48.492L21.2432 45.0227L26.8717 41.4648L32.4347 44.9322Z" fill="#E8DEC1"/>
<path fill-rule="evenodd" clip-rule="evenodd" d="M29.1343 43.1948L26.8506 44.6553L24.543 43.2323L26.8518 41.7725L29.1343 43.1948Z" fill="white"/>
<path fill-rule="evenodd" clip-rule="evenodd" d="M29.1343 46.6261L26.8506 48.0867L24.543 46.663L26.8518 45.2031L29.1343 46.6261Z" fill="white"/>
<path fill-rule="evenodd" clip-rule="evenodd" d="M31.7432 44.882L29.4595 46.3425L27.1519 44.9189L29.4607 43.459L31.7432 44.882Z" fill="#D7C792"/>
<path fill-rule="evenodd" clip-rule="evenodd" d="M26.4977 44.9386L24.214 46.3985L21.9058 44.9755L24.2152 43.5156L26.4977 44.9386Z" fill="#D7C792"/>
<path fill-rule="evenodd" clip-rule="evenodd" d="M37.2817 20.7573L37.9215 27.1645C37.9215 27.2704 37.9699 27.3616 38.0538 27.4139L43.086 30.5957C43.337 30.7545 43.6248 30.7545 43.8758 30.5957L48.9104 27.4139C48.9943 27.3609 49.0426 27.2704 49.0426 27.1645L49.6825 20.7573H37.2817Z" fill="#487AB1"/>
<path fill-rule="evenodd" clip-rule="evenodd" d="M37.2817 20.7573L37.9215 27.1645C37.9215 27.2704 37.9699 27.3616 38.0538 27.4139L42.887 30.4616C42.9488 30.5005 43.0205 30.5005 43.0823 30.4616C43.1441 30.4221 43.1796 30.355 43.1796 30.2766V20.7573H37.2817Z" fill="#345B88"/>
<path fill-rule="evenodd" clip-rule="evenodd" d="M50.1994 21.2352L43.969 25.1731C43.658 25.3695 43.3023 25.3695 42.9918 25.1731L36.7639 21.2352C36.6605 21.1695 36.6011 21.0569 36.6011 20.9262C36.6011 20.7948 36.6605 20.6829 36.7639 20.6172L42.9931 16.68C43.3035 16.4836 43.6598 16.4836 43.9702 16.68L50.1994 20.6172C50.3028 20.6829 50.3622 20.7955 50.3622 20.9262C50.3622 21.0576 50.3035 21.1695 50.1994 21.2352Z" fill="#639DD7"/>
<path fill-rule="evenodd" clip-rule="evenodd" d="M50.1994 21.0668L43.969 25.0046C43.658 25.201 43.3023 25.201 42.9918 25.0046L36.7639 21.0668C36.6605 21.0011 36.6011 20.8885 36.6011 20.7578C36.6011 20.6264 36.6605 20.5144 36.7639 20.4488L42.9931 16.5116C43.3035 16.3152 43.6598 16.3152 43.9702 16.5116L50.1994 20.4488C50.3028 20.5144 50.3622 20.6271 50.3622 20.7578C50.3622 20.8885 50.3035 21.0011 50.1994 21.0668Z" fill="#77B3EC"/>
<path fill-rule="evenodd" clip-rule="evenodd" d="M49.5344 21.0362L43.9206 24.5839C43.6408 24.7609 43.32 24.7609 43.0396 24.5839L37.4282 21.0362C37.3351 20.9772 37.2812 20.876 37.2812 20.758C37.2812 20.64 37.3345 20.5388 37.4282 20.4798L43.0408 16.932C43.3206 16.7551 43.6414 16.7551 43.9212 16.932L49.5332 20.4791C49.6263 20.5381 49.6801 20.6393 49.6801 20.7573C49.6814 20.8759 49.6275 20.9772 49.5344 21.0362Z" fill="#487AB1"/>
<path fill-rule="evenodd" clip-rule="evenodd" d="M43.6123 24.7043V17.5659C43.6123 17.1885 43.8639 16.8976 44.1676 17.0866L49.5341 20.4789C49.6278 20.5379 49.6816 20.6391 49.6816 20.7571C49.6816 20.875 49.6278 20.9762 49.5341 21.0359L43.9203 24.5837C43.8223 24.646 43.7182 24.6856 43.6123 24.7043Z" fill="#345B88"/>
<path fill-rule="evenodd" clip-rule="evenodd" d="M39.6338 22.4296L43.0416 20.2753C43.3214 20.0983 43.6423 20.0983 43.9221 20.2753L47.3293 22.4289L43.9208 24.5832C43.641 24.7601 43.3202 24.7601 43.0404 24.5832L39.6338 22.4296Z" fill="#ADADAD"/>
<path d="M42.6283 29.1017C42.4115 29.1017 42.1825 29.0125 41.9989 28.8966L35.7709 24.9587C35.632 24.8702 35.5518 24.7194 35.5518 24.5431C35.5518 24.3876 35.6326 24.2884 35.7036 24.2013L35.7409 24.155L37.3377 22.0939C37.3787 22.0423 37.4492 22.0363 37.4963 22.0798C37.5434 22.1234 37.5496 22.2012 37.5092 22.2528L35.8714 24.3655C35.8089 24.4419 35.7765 24.4841 35.7765 24.5431C35.7765 24.6303 35.8144 24.702 35.883 24.7455L42.1109 28.6834C42.3968 28.8644 42.7666 28.9435 42.9466 28.7102L47.1039 23.3426C47.1443 23.291 47.2159 23.285 47.2619 23.3286C47.309 23.3728 47.3151 23.4499 47.2747 23.5015L43.1175 28.8691C42.9883 29.0373 42.8132 29.1017 42.6283 29.1017Z" fill="#CACACA"/>
<path fill-rule="evenodd" clip-rule="evenodd" d="M21.1884 14.6679C22.615 14.7892 23.9503 14.5613 25.176 13.9111L24.8687 15.4561C23.5976 16.1954 22.3327 16.3603 20.9043 16.2377L21.1884 14.6679Z" fill="#4165BD"/>
<path fill-rule="evenodd" clip-rule="evenodd" d="M22.8024 4.68164C22.4411 5.37873 21.9562 6.32583 21.3244 6.72666C21.0427 7.27025 21.2607 7.98611 21.7358 8.66309C22.7589 10.1236 24.0679 9.92589 24.213 8.91645C24.3257 8.57528 24.0753 8.04442 24.1334 7.67711C24.2008 7.27092 23.5714 6.95321 23.7557 6.5973L22.8024 4.68164Z" fill="#D99E72"/>
<path fill-rule="evenodd" clip-rule="evenodd" d="M28.0302 4.07243C27.8239 4.48532 27.7657 4.95317 27.6555 5.40628C27.6139 5.80442 27.2925 5.83191 27.1455 6.14091C27.088 6.26223 27.1474 6.49817 27.08 6.67311C26.889 7.16778 26.4469 7.86889 26.1077 8.25899C25.8849 8.5653 25.6063 9.03986 24.9512 9.10555C23.9514 9.22955 23.5442 7.98886 22.9307 7.27904C22.3215 6.57658 23.1267 5.74813 23.2124 4.94245C23.6244 1.12589 28.3039 1.50995 28.0302 4.07243Z" fill="#ECC19A"/>
<path fill-rule="evenodd" clip-rule="evenodd" d="M22.3753 3.66455L22.3643 3.74335C22.3673 3.71641 22.3716 3.69014 22.3753 3.66455Z" fill="#262424"/>
<path fill-rule="evenodd" clip-rule="evenodd" d="M24.687 4.49993C24.4268 4.49255 24.3643 4.48787 24.1617 4.74928C23.9902 4.97047 23.8163 4.8954 23.618 5.42894C23.5757 5.50267 22.9708 4.1259 22.7204 4.83104C22.443 5.61325 21.8571 6.23663 21.6012 6.50943C21.0122 5.93835 22.0849 4.19027 22.2624 3.70096C22.5128 2.4643 23.3786 1.34358 24.0374 1.16797C25.3574 2.05072 25.6458 2.20891 25.7762 3.33833C25.6801 3.82227 25.0225 4.50931 24.687 4.49993Z" fill="#643F42"/>
<path fill-rule="evenodd" clip-rule="evenodd" d="M22.7405 4.59687C22.6266 5.11231 22.7025 5.57348 22.9088 5.6271C23.1152 5.68206 23.3289 5.26783 23.5542 4.89985C23.9191 4.38977 23.605 3.83411 23.3184 3.76708C23.1103 3.71815 22.8531 4.08411 22.7405 4.59687Z" fill="#ECC19A"/>
<path fill-rule="evenodd" clip-rule="evenodd" d="M26.4069 7.8997C26.3977 7.71404 26.4222 7.56994 26.034 7.42248C25.8368 7.34473 25.6464 7.32462 25.4505 7.34741V7.96606C25.5362 7.96539 25.6281 7.97545 25.7248 8.00159C26.3279 8.16648 25.7481 8.57535 25.5981 8.24155C25.5613 8.27037 25.5099 8.28914 25.4505 8.29987V9.64511C25.9562 9.09079 26.4246 8.25026 26.4069 7.8997ZM25.4505 7.34741C25.175 7.37958 24.8903 7.49821 24.5652 7.66578C24.0368 7.93858 24.0399 7.09002 23.9842 6.36746C23.9499 5.92038 23.479 5.79838 23.7135 5.21256L23.5543 4.90088C23.0296 5.58121 22.7002 6.07789 22.5472 6.49011C22.4492 6.75487 22.3929 7.02769 22.3721 7.29848V7.77638C22.4755 9.11492 23.4313 10.2852 24.684 10.17C24.9062 10.1492 25.1836 9.93736 25.4499 9.64578V8.30054C25.1572 8.35216 24.6876 8.20335 25.0195 8.05991C25.126 8.01366 25.2754 7.96808 25.4499 7.96741L25.4505 7.34741Z" fill="#643F42"/>
<path fill-rule="evenodd" clip-rule="evenodd" d="M24.0381 1.16869C24.5787 0.24773 26.7694 1.09027 27.8776 2.47975C28.4219 2.96168 28.7935 3.07296 29.3231 2.87456C29.1945 4.19434 28.6496 5.05899 27.209 4.7319C27.291 3.81764 26.1363 3.9041 25.6306 3.13127C25.1634 2.54143 24.5052 1.75787 24.0381 1.16869Z" fill="#643F42"/>
<path fill-rule="evenodd" clip-rule="evenodd" d="M45.2061 40.0025L45.9677 40.4837V38.2725L45.2061 37.7905V40.0025Z" fill="#363636"/>
<path fill-rule="evenodd" clip-rule="evenodd" d="M45.9678 40.4835L61.0765 30.9388V28.7275L45.9678 38.2723V40.4835Z" fill="#D39F25"/>
<path fill-rule="evenodd" clip-rule="evenodd" d="M45.9678 40.4838L46.108 40.3953V38.1841L45.9678 38.2726V40.4838Z" fill="#4D4D4D"/>
<path fill-rule="evenodd" clip-rule="evenodd" d="M45.2061 37.7908L45.9677 38.2728L61.0771 28.728L60.3105 28.2534L45.2061 37.7908Z" fill="#EDC52E"/>
<path fill-rule="evenodd" clip-rule="evenodd" d="M45.2061 37.7909L45.9677 38.2729L46.1079 38.1844L45.345 37.7031L45.2061 37.7909Z" fill="#666666"/>
<path fill-rule="evenodd" clip-rule="evenodd" d="M51.7969 33.6289L52.5646 34.1034L55.0106 32.5578L54.2122 32.104L51.7969 33.6289Z" fill="#585857"/>
<path fill-rule="evenodd" clip-rule="evenodd" d="M52.5723 34.0992V34.7789C52.5723 34.8185 52.59 34.8527 52.6219 34.8721C52.6531 34.8915 52.6892 34.8915 52.7204 34.8714L54.8646 33.4953C54.9576 33.4357 55.0109 33.3345 55.0109 33.2165V32.5576L52.5723 34.0992Z" fill="#222221"/>
<path fill-rule="evenodd" clip-rule="evenodd" d="M52.7212 34.006V34.5255C52.7212 34.5456 52.7304 34.563 52.7457 34.5724C52.7616 34.5824 52.7794 34.5824 52.7953 34.5724L54.7655 33.3036C54.8274 33.2633 54.8629 33.1963 54.8629 33.1179V32.6514L52.7212 34.006Z" fill="#7C9A3F"/>
<path fill-rule="evenodd" clip-rule="evenodd" d="M51.9526 33.5312L52.7198 34.0058L54.8652 32.6538L54.0637 32.1987L51.9526 33.5312Z" fill="#99BB57"/>
<path fill-rule="evenodd" clip-rule="evenodd" d="M60.937 31.0273L61.0772 30.9388V28.7275L60.937 28.816V31.0273Z" fill="#4D4D4D"/>
<path fill-rule="evenodd" clip-rule="evenodd" d="M60.1753 28.3351L60.9369 28.8163L61.0772 28.7278L60.3143 28.2466L60.1753 28.3351Z" fill="#666666"/>
<path fill-rule="evenodd" clip-rule="evenodd" d="M52.4421 33.8335L53.9788 32.8442C54.0407 32.8047 54.0762 32.737 54.0762 32.6585V32.2048L54.0658 32.1987L51.9565 33.5333L52.4421 33.8335Z" fill="#BDDE7B"/>
<path fill-rule="evenodd" clip-rule="evenodd" d="M54.0864 32.7153L52.3672 33.787L52.7211 34.0055V34.1684L54.3221 33.171C54.597 32.9988 54.3625 32.5437 54.0864 32.7153Z" fill="#DBF6A5"/>
<path fill-rule="evenodd" clip-rule="evenodd" d="M53.4443 33.1904L53.0219 33.4538C52.7696 33.6106 52.9398 33.9498 53.1878 33.7956L53.6182 33.5275C53.8221 33.4002 53.6482 33.063 53.4443 33.1904Z" fill="white"/>
<path fill-rule="evenodd" clip-rule="evenodd" d="M47.837 38.3264C47.8076 38.815 47.5829 39.2956 47.335 39.3995C47.087 39.5034 46.9088 39.1911 46.9382 38.7024C46.967 38.2138 47.1923 37.7332 47.4403 37.6293C47.6883 37.5254 47.8658 37.8378 47.837 38.3264Z" fill="#4D4D4D"/>
<path fill-rule="evenodd" clip-rule="evenodd" d="M47.7746 38.3527C47.7495 38.7737 47.5561 39.1872 47.3424 39.277C47.1287 39.3662 46.9756 39.0974 47.0001 38.6765C47.0252 38.2555 47.2187 37.842 47.4324 37.7522C47.6467 37.6623 47.7997 37.9311 47.7746 38.3527Z" fill="#7C9A3F"/>
<path fill-rule="evenodd" clip-rule="evenodd" d="M47.4844 38.9447L47.4881 37.7368C47.4703 37.7395 47.4519 37.7442 47.433 37.7522C47.2334 37.8354 47.0521 38.2013 47.0081 38.5914L47.0068 38.9165C47.0154 38.9869 47.0307 39.0486 47.0509 39.1015C47.1685 39.2771 47.4838 39.2275 47.4844 38.9447Z" fill="#DBF6A5"/>
<path fill-rule="evenodd" clip-rule="evenodd" d="M60.3776 30.3968C60.3488 30.8854 60.1235 31.366 59.8755 31.4699C59.6269 31.5738 59.4494 31.2614 59.4788 30.7728C59.5075 30.2841 59.7329 29.8042 59.9808 29.7003C60.2288 29.5958 60.407 29.9081 60.3776 30.3968Z" fill="#4D4D4D"/>
<path fill-rule="evenodd" clip-rule="evenodd" d="M60.3157 30.4233C60.2906 30.8443 60.0971 31.2585 59.8834 31.3476C59.6697 31.4368 59.5167 31.168 59.5418 30.747C59.5669 30.3261 59.7603 29.9126 59.974 29.8227C60.1877 29.7336 60.3408 30.0024 60.3157 30.4233Z" fill="#7C9A3F"/>
<path fill-rule="evenodd" clip-rule="evenodd" d="M59.6788 31.1997L60.2476 29.9563C60.1858 29.8296 60.089 29.774 59.9746 29.8216C59.7603 29.9114 59.5668 30.3249 59.5417 30.7459C59.5282 30.9751 59.5674 31.1594 59.6403 31.2653C59.6543 31.2459 59.6672 31.2245 59.6788 31.1997Z" fill="#DBF6A5"/>
<path fill-rule="evenodd" clip-rule="evenodd" d="M4.58552 37.5124C5.77331 38.1351 6.86252 38.7531 7.80968 39.6205L8.95706 38.9173C7.55315 38.2357 6.36781 37.2604 5.18737 36.2389C5.03982 36.1115 4.81696 36.0881 4.58552 36.1296V36.4849L4.60573 36.4842C4.84818 36.4835 5.03553 36.5968 5.02451 36.7376C5.01349 36.875 4.81879 36.9869 4.58491 36.9936V37.5124H4.58552ZM3.89918 37.1552C4.13122 37.2758 4.36021 37.3945 4.58552 37.5124V36.9936H4.56532C4.32286 36.9943 4.1349 36.881 4.14592 36.7396C4.15694 36.6022 4.35225 36.4909 4.58552 36.4836V36.1283C4.16551 36.204 3.7204 36.4963 3.66162 36.7778V36.8985C3.68305 36.993 3.75652 37.0808 3.89918 37.1552Z" fill="#C18B21"/>
<path fill-rule="evenodd" clip-rule="evenodd" d="M4.59419 37.3521C5.78197 37.9748 6.87118 38.5928 7.81835 39.4601L8.96572 38.757C7.56181 38.0746 6.37648 37.1001 5.19604 36.0785C5.04848 35.9512 4.82501 35.9271 4.59419 35.9693V36.3245L4.61439 36.3239C4.85685 36.3232 5.04481 36.4365 5.03318 36.5779C5.02216 36.7153 4.82746 36.8272 4.59357 36.8339L4.59419 37.3521ZM3.90784 36.9948C4.13989 37.1155 4.36887 37.2334 4.59419 37.3521L4.59357 36.8339H4.57398C4.33153 36.8346 4.14356 36.7213 4.15458 36.5799C4.1656 36.4425 4.36092 36.3312 4.59419 36.3239V35.9686C4.17418 36.0444 3.72968 36.3366 3.6709 36.6181V36.7388C3.69233 36.8326 3.76519 36.9211 3.90784 36.9948Z" fill="#EDC52E"/>
<path fill-rule="evenodd" clip-rule="evenodd" d="M15.2468 36.148V35.969C14.3676 35.4616 13.3923 35.2692 12.5456 35.8135L3.28145 41.7341C2.39306 42.3051 2.39367 43.2335 3.26859 43.8186L15.2468 36.148Z" fill="#C18B21"/>
<path fill-rule="evenodd" clip-rule="evenodd" d="M15.1278 36.1929L3.3589 43.649L3.354 43.7268L4.91833 45.1739L5.37263 44.8676L4.90853 44.5787L5.45161 44.2369L5.91203 44.5271L6.44714 44.1893L5.98611 43.9017L6.52919 43.5599L6.98716 43.8481L7.52166 43.5103L7.06308 43.2248L7.60615 42.8829L8.06167 43.1691L8.59679 42.8313L8.14004 42.5471L8.68373 42.2059L9.13619 42.4908L9.67069 42.153L9.21762 41.8701L9.76069 41.529L10.2107 41.8118L10.7452 41.474L10.2952 41.1931L10.8377 40.852L11.2852 41.1335L11.8203 40.7957L11.3722 40.5162L11.9152 40.1743L12.3597 40.4545L12.8949 40.1167L12.4491 39.8392L12.9922 39.4973L13.4343 39.7762L13.9694 39.4384L13.5267 39.1622L14.0698 38.8204L14.5094 39.0972L15.0439 38.7594L14.6037 38.4852L15.1467 38.1434L15.5839 38.4182L16.1184 38.0804L15.6812 37.8082L16.2243 37.4664L16.6584 37.7399L17.1929 37.4021L15.1278 36.1929Z" fill="#666666"/>
<path fill-rule="evenodd" clip-rule="evenodd" d="M15.1326 36.1152L3.35889 43.6492L4.9226 45.0963L5.37751 44.79L4.91341 44.5004L5.45649 44.1592L5.91691 44.4488L6.45203 44.1116L5.99099 43.8241L6.53346 43.4823L6.99204 43.7705L7.52654 43.4327L7.06796 43.1471L7.61103 42.8046L8.06655 43.0915L8.60106 42.7537L8.14492 42.4695L8.68861 42.1283L9.14046 42.4132L9.67557 42.0753L9.2225 41.7925L9.76558 41.4513L10.2156 41.7342L10.7501 41.3964L10.2995 41.1155L10.8425 40.7737L11.2901 41.0552L11.8252 40.7174L11.377 40.4385L11.9201 40.0967L12.3646 40.3769L12.8997 40.039L12.454 39.7615L12.9971 39.4197L13.4391 39.6979L13.9743 39.3601L13.5316 39.0846L14.074 38.7427L14.5137 39.0196L15.0488 38.6817L14.6086 38.4069L15.1516 38.0657L15.5888 38.3406L16.1233 38.0027L15.6855 37.7306L16.2286 37.3888L16.6633 37.6622L17.1978 37.3244L15.1326 36.1152Z" fill="url(#paint0_linear_1195_22795)"/>
<path fill-rule="evenodd" clip-rule="evenodd" d="M15.247 35.948C14.3212 35.3956 13.4341 35.0424 12.5451 35.6135L3.28096 41.5341C2.39257 42.1051 2.39318 43.0335 3.2681 43.6186L15.247 35.948Z" fill="#EDC52E"/>
<path fill-rule="evenodd" clip-rule="evenodd" d="M54.969 27.9477C54.737 28.0683 54.508 28.187 54.2827 28.3049V27.7861H54.3029C54.5453 27.7868 54.7333 27.6735 54.7223 27.5321C54.7113 27.3947 54.5166 27.2827 54.2827 27.276V26.9208C54.7027 26.9965 55.1472 27.2888 55.2066 27.5696V27.6923C55.1851 27.7855 55.1111 27.8739 54.969 27.9477ZM54.2827 28.3049C53.0955 28.9276 52.0057 29.5456 51.0585 30.4129L49.9111 29.7098C51.315 29.0275 52.5004 28.0529 53.6808 27.0314C53.8284 26.904 54.0518 26.8806 54.2827 26.9221V27.2774L54.2619 27.2767C54.0194 27.276 53.8314 27.3893 53.8431 27.5308C53.8541 27.6682 54.0488 27.7801 54.2827 27.7868V28.3049Z" fill="#C18B21"/>
<path fill-rule="evenodd" clip-rule="evenodd" d="M48.2026 29.3518V29.1728C49.0818 28.6654 50.0572 28.4737 50.9039 29.0173L51.6986 29.514C52.8968 30.2761 52.5864 31.0134 51.7115 31.5986L48.2026 29.3518Z" fill="#C18B21"/>
<path fill-rule="evenodd" clip-rule="evenodd" d="M48.3068 29.4004L51.6216 31.4287L51.6265 31.5064L50.0628 32.9535L46.2417 30.6096L48.3068 29.4004Z" fill="#666666"/>
<path fill-rule="evenodd" clip-rule="evenodd" d="M48.3018 29.3228L51.6215 31.4288L50.0578 32.8759L46.2373 30.5319L48.3018 29.3228Z" fill="url(#paint1_linear_1195_22795)"/>
<path fill-rule="evenodd" clip-rule="evenodd" d="M48.2026 29.1506C49.1284 28.5983 50.0155 28.2451 50.9045 28.8161L51.6993 29.3128C52.8766 30.0943 52.587 30.8122 51.7121 31.398L48.2026 29.1506Z" fill="#EDC52E"/>
<path fill-rule="evenodd" clip-rule="evenodd" d="M54.9599 27.7871C54.7278 27.9077 54.4988 28.0263 54.2735 28.1443V27.6255H54.2937C54.5362 27.6262 54.7241 27.5129 54.7131 27.3715C54.7021 27.2341 54.5074 27.1228 54.2735 27.1154V26.7602C54.6935 26.8359 55.138 27.1275 55.1974 27.409V27.5317C55.1754 27.6255 55.1019 27.7133 54.9599 27.7871ZM54.2735 28.1443C53.0863 28.767 51.9965 29.385 51.0487 30.2523L49.9014 29.5492C51.3053 28.8675 52.4912 27.8923 53.6711 26.8708C53.8186 26.7434 54.0421 26.7193 54.2729 26.7609V27.1161L54.2521 27.1154C54.0096 27.1148 53.8223 27.228 53.8333 27.3695C53.8443 27.5069 54.0396 27.6188 54.2735 27.6255V28.1443Z" fill="#EDC52E"/>
<defs>
<linearGradient id="paint0_linear_1195_22795" x1="5.40512" y1="46.6239" x2="16.1667" y2="35.3156" gradientUnits="userSpaceOnUse">
<stop stop-color="#848484"/>
<stop offset="1" stop-color="white"/>
</linearGradient>
<linearGradient id="paint1_linear_1195_22795" x1="50.9049" y1="33.8503" x2="46.564" y2="28.5883" gradientUnits="userSpaceOnUse">
<stop stop-color="#848484"/>
<stop offset="1" stop-color="white"/>
</linearGradient>
</defs>
</svg>
