<svg width="44" height="56" viewBox="0 0 44 56" fill="none" xmlns="http://www.w3.org/2000/svg">
<path d="M12.2911 16.9487L10.8281 16.024L34.6871 0.943848L36.1501 1.86853L12.2911 16.9487Z" fill="#EFE1BC"/>
<path opacity="0.1" d="M29.0445 27.1362L0.302734 45.3028L12.2913 50.3627L36.1503 35.2821V32.1961L29.0445 27.1362Z" fill="black"/>
<path d="M12.2911 50.3628L10.8281 49.4381V16.0239L12.2911 16.9486V50.3628Z" fill="#CAA58B"/>
<path d="M12.291 50.3625V16.9483L36.15 1.86816V35.2819L12.291 50.3625Z" fill="#FFBB00"/>
<path opacity="0.1" d="M28.5395 55.3235L24.9555 53.0581C24.4948 52.767 24.5526 52.2579 25.0848 51.9218L26.3724 51.108C26.9045 50.7714 27.7096 50.7349 28.1707 51.0264L32.9335 54.0367L30.7381 55.4246L28.5395 55.3235Z" fill="black"/>
<path d="M27.1452 48.1397C27.1961 48.0199 27.2768 47.9171 27.363 47.8627C27.4356 47.8168 27.5043 47.81 27.5547 47.8423C27.564 47.8482 27.573 47.8559 27.5811 47.8644L28.4611 48.826V51.21L26.2656 52.5979V50.2139L27.1452 48.1397Z" fill="#DE3222"/>
<path d="M26.983 48.038C27.0338 47.9182 27.115 47.8149 27.2008 47.7609C27.2737 47.715 27.3428 47.7082 27.3933 47.7414C27.4022 47.7473 27.554 47.843 27.554 47.843C27.5035 47.8107 27.4348 47.8175 27.3622 47.8633C27.2761 47.9177 27.1953 48.0206 27.1445 48.1404L26.2645 50.2146L26.103 50.1126L26.983 48.038Z" fill="#FB4432"/>
<path d="M28.3344 51.1309L30.7065 52.6301L30.6284 52.8137L28.1504 51.2473L28.3344 51.1309Z" fill="#CF2313"/>
<path d="M31.4512 50.8749L30.707 52.6295L28.335 51.1303V48.9053L31.4512 50.8749Z" fill="#C91716"/>
<path d="M30.8144 53.5571L30.1533 51.627L30.2077 51.6856L30.8683 53.6153L30.8144 53.5571Z" fill="#91AD0B"/>
<path d="M31.0512 53.5034L30.3901 51.5732L30.3257 51.6587L30.9867 53.5888L31.0512 53.5034Z" fill="#C3E022"/>
<path d="M30.9874 53.5888L30.3264 51.6587L30.208 51.6859L30.8687 53.6156L30.9874 53.5888Z" fill="#AFCD15"/>
<path d="M30.2559 51.4263L30.3366 51.5151L30.3912 51.574L30.2594 51.4442L30.2559 51.4263Z" fill="#DED397"/>
<path d="M30.2593 51.4438L30.3905 51.573L30.3261 51.6584L30.2368 51.4681L30.2593 51.4438Z" fill="#E8E2B5"/>
<path d="M30.237 51.4683L30.3263 51.6586L30.2079 51.6858L30.1963 51.4763L30.237 51.4683Z" fill="#DED397"/>
<path d="M30.196 51.4762L30.1797 51.4541L30.1533 51.627L30.2077 51.6857L30.196 51.4762Z" fill="#D9C879"/>
<path d="M30.2441 51.4642C30.2625 51.4492 30.2648 51.4326 30.2539 51.424L30.2176 51.3886C30.2063 51.3775 30.188 51.3848 30.186 51.4018L30.1802 51.4543C30.1771 51.4689 30.1888 51.48 30.2118 51.4778C30.2231 51.477 30.2344 51.4723 30.2441 51.4642Z" fill="#AFCD15"/>
<path d="M28.4607 48.8262L31.5133 50.7554C31.4915 50.7894 31.4721 50.826 31.4558 50.8647L31.4512 50.8753L28.335 48.9056L28.4607 48.8262Z" fill="#59A3DE"/>
<path d="M31.4557 50.8651C31.5065 50.7453 31.5872 50.642 31.6734 50.588C31.7456 50.5426 31.8139 50.5358 31.8644 50.5672C31.8741 50.5732 32.0267 50.6696 32.0267 50.6696C31.9762 50.6378 31.9075 50.6446 31.8353 50.69C31.7491 50.7444 31.6684 50.8473 31.6175 50.9671L30.7375 53.0413L30.5757 52.9393L31.4557 50.8651Z" fill="#DE3222"/>
<path d="M27.5323 51.0264C27.5323 51.0264 28.1626 52.8524 28.1669 52.8651C28.1712 52.8774 28.1681 52.8932 28.1564 52.9089L28.0675 53.0279C28.0443 53.0593 27.9953 53.0793 27.9589 53.0729L27.6829 53.0236C27.6646 53.0202 27.653 53.0109 27.6483 52.9986C27.644 52.9862 27.0137 51.1602 27.0137 51.1602L27.5323 51.0264Z" fill="#C92C2C"/>
<path d="M27.2216 50.952L27.4976 51.0013C27.5158 51.0047 27.5275 51.014 27.5317 51.0264C27.536 51.0387 27.5329 51.0544 27.5213 51.0701L27.4324 51.1891C27.4091 51.2206 27.3602 51.2405 27.3237 51.2342L27.0477 51.1845C27.0295 51.1811 27.0178 51.1717 27.0135 51.1594C27.0093 51.147 27.0124 51.1313 27.024 51.1156L27.1129 50.9966C27.1366 50.9656 27.1851 50.9452 27.2216 50.952Z" fill="#AB1818"/>
<path d="M26.894 49.1758C26.894 49.1758 27.5282 51.0141 27.5325 51.0264C27.5368 51.0388 27.5337 51.0545 27.522 51.0702L27.4331 51.1892C27.4192 51.2079 27.3959 51.2228 27.3718 51.23L26.6816 49.2306L26.894 49.1758Z" fill="#BAA664"/>
<path d="M26.6818 49.23L27.372 51.2294C27.3557 51.2345 27.3394 51.2362 27.3247 51.2336L27.0487 51.1839C27.0304 51.1805 27.0188 51.1711 27.0145 51.1588C27.0102 51.1465 26.376 49.3082 26.376 49.3082L26.6818 49.23Z" fill="#CFBD80"/>
<path d="M26.5835 49.1013L26.8595 49.151C26.8777 49.1544 26.8894 49.1633 26.8936 49.1761C26.8979 49.1884 26.8948 49.2041 26.8832 49.2198L26.7943 49.3388C26.771 49.3703 26.7221 49.3903 26.6856 49.3839L26.4096 49.3342C26.3913 49.3308 26.3797 49.3214 26.375 49.3091C26.3704 49.2968 26.3739 49.281 26.3855 49.2653L26.4744 49.1463C26.4981 49.1149 26.547 49.0949 26.5835 49.1013Z" fill="#AB1818"/>
<path d="M27.3024 49.3577L27.5795 48.9875L26.9495 48.7007L26.6724 49.0708L27.3024 49.3577Z" fill="#363636"/>
<path d="M26.6719 49.0705L26.9491 48.7004L25.9705 48.5249L25.6934 48.895L26.6719 49.0705Z" fill="#4A4A4A"/>
<path d="M26.4373 48.6873L26.7133 48.7366C26.7315 48.74 26.7432 48.7494 26.7475 48.7617C26.7517 48.774 26.7486 48.7898 26.737 48.8055L26.6481 48.9245C26.6248 48.9559 26.5759 48.9759 26.5394 48.9695L26.2634 48.9198C26.2452 48.9164 26.2335 48.907 26.2289 48.8947C26.2246 48.8824 26.2277 48.8667 26.2394 48.8509L26.3283 48.732C26.3519 48.7009 26.4008 48.6805 26.4373 48.6873Z" fill="#CFBD80"/>
<path d="M27.3167 49.4003L27.3019 49.3574L26.6719 49.0705L25.6934 48.895L25.8362 49.3085L26.8148 49.484L27.3167 49.4003Z" fill="#262626"/>
<path d="M27.317 49.4008L27.5941 49.0303L27.5794 48.9878L27.3022 49.3579L27.317 49.4008Z" fill="#262626"/>
<path d="M27.5186 46.6428L27.5737 46.5293L27.4545 46.6963L27.3994 46.8098L27.4472 46.9394L27.5663 46.7724L27.5186 46.6428Z" fill="#1C1C1C"/>
<path d="M28.8325 50.2077L29.0122 50.2353C29.0309 50.2383 29.0518 50.2561 29.0588 50.2753L29.2129 50.693C29.2199 50.7121 29.2106 50.7253 29.1919 50.7227L29.0122 50.6951L30.2784 54.1304L31.0338 54.2468L28.3217 46.8888L27.5659 46.772L28.8325 50.2077ZM30.6367 53.4738C30.6887 53.6153 30.6192 53.7131 30.481 53.6918C30.3429 53.6706 30.1884 53.5384 30.1363 53.3969C30.0839 53.2554 30.1538 53.1577 30.292 53.1789C30.4302 53.1997 30.5847 53.3319 30.6367 53.4738ZM28.3325 47.4315C28.4672 47.5467 28.527 47.709 28.4661 47.7944C28.4051 47.8794 28.2468 47.8552 28.1121 47.7396C27.9774 47.6244 27.9176 47.4617 27.9785 47.3767C28.0395 47.2917 28.1979 47.3159 28.3325 47.4315Z" fill="#FCC901"/>
<path d="M31.0266 54.4898L30.9071 54.6568L30.3574 54.5718L30.4766 54.4048L31.0266 54.4898Z" fill="#1C1C1C"/>
<path d="M30.4768 54.4051L30.3576 54.5721L30.207 54.4268L30.3262 54.2598L30.4768 54.4051Z" fill="#2B2B2B"/>
<path d="M30.3261 54.2595L30.2069 54.4266L30.1592 54.2974L30.2783 54.1304L30.3261 54.2595Z" fill="#1C1C1C"/>
<path d="M30.3261 54.2595L30.4767 54.4049L31.0267 54.4899L31.0818 54.3764L31.0341 54.2468L30.2783 54.1304L30.3261 54.2595Z" fill="#404040"/>
<path d="M28.2743 46.7592L28.1237 46.6143L27.5737 46.5293L27.5186 46.6428L27.5663 46.7724L28.3221 46.8888L28.2743 46.7592Z" fill="#404040"/>
<path d="M28.0922 47.768C28.2518 47.9044 28.4392 47.9333 28.5114 47.8326C28.5833 47.7319 28.5126 47.5394 28.3531 47.403C28.1935 47.2666 28.006 47.2377 27.9342 47.3384C27.8617 47.4391 27.9327 47.6312 28.0922 47.768ZM28.3325 47.4314C28.4672 47.5466 28.527 47.7089 28.466 47.7943C28.4051 47.8793 28.2467 47.8551 28.112 47.7395C27.9773 47.6244 27.9175 47.4616 27.9785 47.3766C28.0394 47.2916 28.1978 47.3159 28.3325 47.4314Z" fill="#404040"/>
<path d="M27.9576 47.4933C27.9502 47.4482 27.9564 47.4074 27.9781 47.3764C28.0391 47.2914 28.1975 47.3156 28.3321 47.4312C28.4668 47.5464 28.5266 47.7087 28.4657 47.7941C28.4435 47.8247 28.409 47.8413 28.3671 47.8443C28.3539 47.7648 28.2984 47.6717 28.2126 47.5982C28.1268 47.5243 28.0313 47.4877 27.9576 47.4933Z" fill="#1C1C1C"/>
<path d="M28.09 47.5462C28.1024 47.5287 28.1574 47.553 28.2124 47.6C28.2678 47.6474 28.3021 47.6999 28.2896 47.7174C28.2772 47.7349 28.2222 47.7106 28.1672 47.6632C28.1118 47.6158 28.0775 47.5637 28.09 47.5462Z" fill="white"/>
<path opacity="0.6" d="M28.4543 47.7809C28.4527 47.7932 28.45 47.8043 28.4461 47.8149C28.4213 47.8353 28.3875 47.8451 28.3487 47.8442L27.9617 47.5127C27.9516 47.472 27.952 47.4337 27.9644 47.4023C27.973 47.3955 27.9823 47.3895 27.9928 47.3853L28.4543 47.7809Z" fill="#AFCD15"/>
<path d="M30.1591 54.2972L28.9209 50.938L29.0404 50.771L30.2783 54.1302L30.1591 54.2972Z" fill="#FFAD0D"/>
<path d="M28.8042 50.1313L28.685 50.2983L27.4468 46.9395L27.5659 46.7725L28.8042 50.1313Z" fill="#FFAD0D"/>
<path d="M28.8322 50.2074L29.0119 50.235C29.0305 50.238 29.0515 50.2559 29.0584 50.275L29.2126 50.6927C29.2195 50.7118 29.2102 50.725 29.1916 50.7224L29.0119 50.6948L29.0398 50.7713L29.244 50.8028C29.2867 50.8096 29.308 50.7794 29.2921 50.7356L29.1147 50.2542C29.0984 50.2104 29.0511 50.1696 29.0084 50.1628L28.8042 50.1313L28.8322 50.2074Z" fill="#404040"/>
<path d="M29.0123 50.2352C29.0309 50.2382 29.0519 50.256 29.0588 50.2752L29.2129 50.6929C29.2199 50.712 29.2106 50.7252 29.192 50.7226L29.034 50.6984L28.9397 50.4426C28.9327 50.4235 28.9117 50.4056 28.8931 50.4026L28.7134 50.375L28.8325 50.208L29.0123 50.2352Z" fill="#1C1C1C"/>
<path d="M28.8322 50.2078L28.713 50.3748L28.6851 50.2984L28.8042 50.1313L28.8322 50.2078Z" fill="#2B2B2B"/>
<path d="M29.0401 50.7709L28.9205 50.9379L28.8926 50.8614L29.0117 50.6948L29.0401 50.7709Z" fill="#2B2B2B"/>
<path d="M28.9166 50.45C28.945 50.4543 28.9852 50.5051 29.0067 50.5631C29.0281 50.6212 29.0226 50.6648 28.9942 50.6605C28.9657 50.6562 28.9255 50.6054 28.9041 50.5473C28.8826 50.4893 28.8885 50.4457 28.9166 50.45Z" fill="white"/>
<path opacity="0.6" d="M28.8543 50.266C28.8889 50.2507 28.9238 50.2562 28.9315 50.2779C28.9397 50.3 29.0895 50.7067 29.0895 50.7067L29.0119 50.6948L28.9638 50.7619C28.9638 50.7619 28.8139 50.3552 28.8058 50.3336C28.798 50.3115 28.8194 50.2813 28.8543 50.266Z" fill="#AFCD15"/>
<path d="M30.0903 53.3896C30.152 53.5574 30.3348 53.7138 30.4986 53.7393C30.6624 53.7648 30.7447 53.6492 30.683 53.4814C30.6213 53.3135 30.4385 53.1571 30.2747 53.1321C30.1112 53.1061 30.0286 53.2217 30.0903 53.3896ZM30.6368 53.4741C30.6888 53.6156 30.6193 53.7134 30.4812 53.6921C30.343 53.6709 30.1885 53.5387 30.1365 53.3972C30.0841 53.2557 30.1539 53.158 30.2921 53.1792C30.4303 53.2 30.5848 53.3322 30.6368 53.4741Z" fill="#404040"/>
<path d="M30.5173 53.641C30.4653 53.4995 30.3108 53.3673 30.1726 53.3456C30.1544 53.3426 30.1377 53.3422 30.1222 53.3435C30.1035 53.2317 30.1719 53.1604 30.2918 53.1786C30.43 53.1999 30.5845 53.332 30.6365 53.4735C30.6819 53.5968 30.6349 53.686 30.5313 53.6937C30.5286 53.6771 30.5239 53.6592 30.5173 53.641Z" fill="#1C1C1C"/>
<path d="M30.3224 53.4021C30.3509 53.4064 30.3911 53.4572 30.4125 53.5153C30.434 53.5734 30.4281 53.6169 30.4 53.6126C30.3716 53.6084 30.3314 53.5576 30.31 53.4995C30.2885 53.4414 30.294 53.3979 30.3224 53.4021Z" fill="white"/>
<path opacity="0.6" d="M30.341 53.6364C30.2972 53.517 30.2176 53.3019 30.2122 53.2862C30.204 53.2641 30.2257 53.2339 30.2603 53.2186C30.2948 53.2033 30.3298 53.2089 30.3375 53.2305C30.3449 53.2509 30.4885 53.6406 30.5083 53.6942C30.4998 53.6937 30.4905 53.6929 30.4812 53.6916C30.4346 53.6844 30.3864 53.6648 30.341 53.6364Z" fill="#AFCD15"/>
<path d="M27.7488 51.3446C27.7771 51.0616 27.9378 50.6328 27.9378 50.6328C27.9832 50.7 28.0457 50.7586 28.1133 50.7918C28.0706 50.9537 28.0213 51.0497 27.9697 51.2889C27.9398 51.4279 27.8788 51.6531 27.9875 52.0849C28.0104 52.1754 28.0391 52.319 27.9794 52.3207C27.9196 52.3224 27.9064 52.2795 27.8625 52.1461C27.8191 52.0126 27.7201 51.6276 27.7488 51.3446Z" fill="#FFBB00"/>
<path d="M27.9933 52.3171C28.0341 52.2937 28.0085 52.1675 27.9875 52.0846C27.8785 51.6525 27.9398 51.4276 27.9697 51.2887C28.0213 51.0499 28.0706 50.9534 28.1133 50.7915L28.1649 50.811C28.13 50.9198 28.0923 51.0188 28.0527 51.2012C28.0229 51.3401 27.9619 51.5653 28.0706 51.9971C28.0888 52.0685 28.1106 52.1734 28.0892 52.2151C28.0842 52.2257 28.0426 52.295 27.9933 52.3171Z" fill="#F09300"/>
<path d="M27.7488 51.3446C27.7686 51.147 27.8528 50.8789 27.9021 50.7344L27.9887 50.8083C28.0085 50.8253 28.0197 50.8517 28.0139 50.8674C27.9774 50.9706 27.8575 51.3323 27.8602 51.5966C27.8618 51.7415 27.9076 52.1078 28.0003 52.3109C27.9949 52.3169 27.9883 52.3199 27.9794 52.3203C27.9196 52.322 27.9064 52.2791 27.8625 52.1456C27.8191 52.0126 27.7201 51.6276 27.7488 51.3446Z" fill="#1C72D9"/>
<path d="M27.8999 50.3358C27.8999 50.3358 27.9174 50.3175 27.983 50.2486C28.0486 50.1798 28.1899 50.2244 28.2989 50.3489C28.408 50.473 28.4429 50.6298 28.3777 50.6987C28.3121 50.7675 28.2947 50.7858 28.2947 50.7858L27.8999 50.3358Z" fill="#BABABA"/>
<path d="M27.9782 50.6853C28.0873 50.8094 28.2286 50.8544 28.2942 50.7856C28.3598 50.7167 28.3245 50.5604 28.2154 50.4358C28.1063 50.3113 27.965 50.2667 27.8994 50.3356C27.8342 50.4044 27.8695 50.5608 27.9782 50.6853Z" fill="#E3E3E3"/>
<path d="M28.0042 50.5308C28.017 50.5877 28.069 50.6468 28.1203 50.6634C28.1715 50.6795 28.2029 50.6468 28.1901 50.5898C28.1773 50.5329 28.1253 50.4738 28.0741 50.4572C28.0228 50.4411 27.9918 50.4738 28.0042 50.5308Z" fill="#404040"/>
<path d="M28.043 49.7838L28.1264 49.6963L28.1814 49.7232L28.098 49.8107L28.043 49.7838Z" fill="#C9C9C9"/>
<path d="M28.0981 49.8103L28.1812 49.7231L28.3842 50.3474L28.3011 50.4349L28.0981 49.8103Z" fill="#A6A6A6"/>
<path d="M28.0767 50.103L28.0937 50.1115L28.1097 50.3448L28.0918 50.3185L28.0767 50.103Z" fill="#F2F2F2"/>
<path d="M28.0822 49.9883L28.081 49.9695L28.0771 49.9678L28.0654 49.9802L28.0822 49.9883Z" fill="#A6A6A6"/>
<path d="M28.0852 50.0249L28.0836 50.0074L28.0704 50.001L28.0591 50.0125L28.0852 50.0249Z" fill="#A6A6A6"/>
<path d="M28.0801 49.9511L28.0786 49.9323L28.0747 49.9302L28.063 49.943L28.0801 49.9511Z" fill="#A6A6A6"/>
<path d="M28.0772 49.9136L28.0761 49.8961L28.0714 49.8936L28.0601 49.9051L28.0772 49.9136Z" fill="#A6A6A6"/>
<path d="M28.05 49.8835L28.043 49.7832L28.0973 49.81L28.3007 50.4347L28.2409 50.4678C28.2044 50.4189 28.1586 50.3756 28.109 50.3454L28.0927 50.1121L28.0643 50.0981L28.0585 50.0127L28.0841 50.0254L28.0829 50.008L28.0663 49.9995L28.0651 49.9808L28.0818 49.9893L28.0806 49.9706L28.0639 49.9621L28.0628 49.9434L28.0795 49.9519L28.0783 49.9332L28.0612 49.9247L28.0601 49.906L28.0767 49.9145L28.0756 49.8971L28.05 49.8835Z" fill="#E3E3E3"/>
<path d="M27.7324 49.6945L27.8159 49.6069L27.8658 49.6133L27.7823 49.7009L27.7324 49.6945Z" fill="#A6A6A6"/>
<path d="M27.875 49.9537L27.8513 49.9507L27.8443 49.9316L27.8599 49.9333L27.8521 49.9124L27.837 49.9108L27.8292 49.8899L27.8447 49.8921L27.837 49.8712L27.8214 49.8691L27.8141 49.8483L27.8296 49.8504L27.8218 49.8296L27.8063 49.8279L27.7993 49.8083L27.823 49.8113L27.7822 49.7004L27.8653 49.6133L27.9061 49.7242L27.8901 49.7408L27.9049 49.7425L27.9126 49.7633L27.8971 49.7612L27.9045 49.782L27.92 49.7841L27.9278 49.8045L27.9123 49.8028L27.9196 49.8236L27.9352 49.8253L27.9429 49.8462L27.9274 49.844L27.9344 49.8636L27.9581 49.8666L27.9926 49.9613L27.9095 50.0484L27.875 49.9537Z" fill="#C9C9C9"/>
<path d="M27.8838 50.0454L27.9098 50.0488L27.9284 50.0293C27.9269 50.0425 27.9292 50.0578 27.9354 50.0748C27.9544 50.127 28.0049 50.1738 28.0476 50.1793L28.0612 50.2163L27.9781 50.3034L27.8838 50.0454Z" fill="#404040"/>
<path d="M27.9648 50.2667L28.0483 50.1792L28.0619 50.2163L27.9785 50.3039L27.9648 50.2667Z" fill="#919191"/>
<path d="M27.9235 50.0342L28.0175 50.2909L28.0143 50.2942L27.9204 50.038L27.9235 50.0342Z" fill="#A6A6A6"/>
<path d="M27.9203 50.0376L27.9098 50.0482L27.8838 50.0448L27.9785 50.3032L28.0142 50.2938L27.9203 50.0376Z" fill="#F2F2F2"/>
<path d="M27.8145 49.8488L27.8979 49.7612L27.9053 49.7822L27.8219 49.8697L27.8145 49.8488Z" fill="#919191"/>
<path d="M27.8223 49.8116L27.8063 49.8282L27.7993 49.8086L27.8223 49.8116Z" fill="#919191"/>
<path d="M27.8296 49.8907L27.9131 49.8032L27.9205 49.8241L27.8374 49.9117L27.8296 49.8907Z" fill="#919191"/>
<path d="M27.8438 49.9303L27.9272 49.8428L27.9346 49.8637L27.8512 49.9512L27.8438 49.9303Z" fill="#919191"/>
<path d="M27.7324 49.6943L27.7825 49.7007L27.8229 49.8116L27.7992 49.8087L27.8062 49.8282L27.8217 49.8303L27.8295 49.8511L27.8139 49.849L27.8217 49.8698L27.8372 49.872L27.845 49.8928L27.8295 49.8907L27.8372 49.9115L27.8528 49.9136L27.8605 49.9344L27.845 49.9323L27.852 49.9518L27.8757 49.9548L27.9102 50.0496L27.8842 50.0462L27.9785 50.3046C27.9362 50.3054 27.9044 50.3241 27.8857 50.356L27.8007 50.2769L27.7324 49.6943Z" fill="#E3E3E3"/>
<path d="M27.8223 49.8297L27.9057 49.7422L27.9135 49.7631L27.8301 49.8506L27.8223 49.8297Z" fill="#C9C9C9"/>
<path d="M27.8222 49.83L27.9057 49.7424L27.8909 49.7407L27.8234 49.8116H27.8226L27.8066 49.8283L27.8222 49.83Z" fill="#A6A6A6"/>
<path d="M27.8369 49.8717L27.9204 49.7842L27.9282 49.8047L27.8447 49.8926L27.8369 49.8717Z" fill="#C9C9C9"/>
<path d="M27.8374 49.8719L27.9208 49.7844L27.9052 49.7822L27.8218 49.8697L27.8374 49.8719Z" fill="#A6A6A6"/>
<path d="M27.8521 49.9127L27.9355 49.8252L27.9433 49.8461L27.8598 49.9336L27.8521 49.9127Z" fill="#C9C9C9"/>
<path d="M27.8521 49.913L27.9356 49.8254L27.92 49.8237L27.8369 49.9113L27.8521 49.913Z" fill="#A6A6A6"/>
<path d="M27.8754 49.9538L27.9588 49.8663L27.935 49.8633L27.8516 49.9508L27.8754 49.9538Z" fill="#A6A6A6"/>
<path d="M28.8787 51.7036C28.7086 51.3577 28.3158 50.7534 28.3158 50.7534C28.296 50.7997 28.2521 50.8248 28.1904 50.8172C28.3181 51.033 28.4214 51.1779 28.5968 51.4886C28.6989 51.6696 28.8783 51.9709 28.9621 52.395C28.9796 52.4838 29.0161 52.63 29.0859 52.6729C29.1558 52.7158 29.1504 52.6755 29.136 52.5509C29.1213 52.426 29.0487 52.0495 28.8787 51.7036Z" fill="#FFBB00"/>
<path d="M28.4063 50.8946C28.3519 50.8092 28.3162 50.7539 28.3154 50.7526L28.3985 50.6655C28.3985 50.6655 28.4346 50.7208 28.4893 50.8075C28.4893 50.8075 28.4695 50.8644 28.4063 50.8946Z" fill="#F09300"/>
<path d="M28.8787 51.7032C28.7599 51.4618 28.5329 51.0947 28.4063 50.8945L28.3427 50.9209C28.3279 50.9268 28.3279 50.9493 28.3423 50.9719C28.4343 51.1159 28.7479 51.6148 28.8729 51.9182C28.9416 52.0844 29.0658 52.4758 29.0573 52.6466C29.0662 52.6568 29.0759 52.6653 29.086 52.6717C29.1559 52.7146 29.1504 52.6742 29.1361 52.5497C29.1213 52.4256 29.0487 52.0491 28.8787 51.7032Z" fill="#1C72D9"/>
<path d="M29.1263 52.6888C29.1523 52.6884 29.1465 52.6425 29.136 52.5503C29.1216 52.4258 29.0487 52.0488 28.8787 51.7029C28.7603 51.4616 28.5328 51.0944 28.4062 50.8943C28.4699 50.8641 28.4893 50.8071 28.4893 50.8071C28.6159 51.0073 28.8429 51.3744 28.9617 51.6158C29.1317 51.9617 29.2043 52.3386 29.2191 52.4632C29.2264 52.5277 29.228 52.5685 29.2222 52.5885C29.2144 52.6149 29.1574 52.6888 29.1263 52.6888Z" fill="#0258BF"/>
<path d="M30.7373 53.041V55.4249L30.5755 55.323L26.2649 52.5982L26.103 52.4962V50.1118L30.7373 53.041Z" fill="#DE3222"/>
<path d="M31.6173 50.9669C31.6681 50.8471 31.7493 50.7438 31.835 50.6898C31.9072 50.6439 31.9759 50.6371 32.0264 50.6694C32.0361 50.6754 32.0447 50.683 32.0528 50.6919L32.9328 51.6536V54.0376L30.7373 55.4255V53.0415L31.6173 50.9669Z" fill="#FB4432"/>
<path d="M31.7087 51.2676C31.7785 51.3118 31.8922 51.24 31.9621 51.1074C32.032 50.9744 32.032 50.8312 31.9621 50.787C31.8922 50.7428 31.7785 50.8146 31.7087 50.9472C31.6388 51.0798 31.6388 51.2234 31.7087 51.2676Z" fill="#404040"/>
<path d="M26.3914 50.1348L26.2656 50.2142L30.5762 52.939L30.6294 52.8137L26.3914 50.1348Z" fill="#FB4432"/>
<path opacity="0.5" d="M30.6291 52.8135L30.5757 52.9395V52.7798L30.6291 52.8135Z" fill="black"/>
<path d="M27.2353 48.1202C27.3056 47.9867 27.4193 47.9149 27.49 47.9595C27.5567 48.0016 31.2796 50.355 31.6612 50.5959C31.5797 50.652 31.5044 50.7506 31.4558 50.8649L31.3739 51.0578C30.9831 50.8109 27.3017 48.4839 27.2353 48.4418C27.1651 48.3977 27.1651 48.2536 27.2353 48.1202Z" fill="#2B2B2B"/>
<path opacity="0.3" d="M31.462 50.8496L27.2139 48.1647C27.2201 48.1499 27.2271 48.135 27.2348 48.1201C27.2566 48.0785 27.283 48.0428 27.3105 48.0151L31.5543 50.6974C31.519 50.7416 31.4872 50.7935 31.462 50.8496Z" fill="white"/>
<path d="M30.9879 11.7838C31.0454 11.8204 31.1385 11.7613 31.196 11.6521C31.2534 11.5429 31.2534 11.4252 31.196 11.3891C31.1385 11.353 31.0454 11.4116 30.9879 11.5208C30.9305 11.6296 30.9305 11.7477 30.9879 11.7838Z" fill="#363636"/>
<path d="M30.9337 11.4866C30.9912 11.3774 31.0843 11.3188 31.1418 11.3549C31.1585 11.3655 31.1965 11.3893 31.1965 11.3893C31.1391 11.3532 31.0459 11.4118 30.9884 11.521C30.931 11.6303 30.931 11.748 30.9884 11.7841C30.9884 11.7841 30.9543 11.7624 30.9337 11.7497C30.8763 11.7135 30.8763 11.5958 30.9337 11.4866Z" fill="#666666"/>
<path d="M30.6546 11.3104C30.6741 11.2738 30.7051 11.2543 30.7241 11.2662C30.7241 11.2662 30.8604 11.352 30.9745 11.4243C30.9597 11.4425 30.9458 11.4634 30.9337 11.4863C30.9213 11.5097 30.9124 11.533 30.9054 11.5564C30.7913 11.4842 30.655 11.3979 30.655 11.3979C30.6352 11.386 30.6352 11.3465 30.6546 11.3104Z" fill="#363636"/>
<path opacity="0.1" d="M33.1732 37.6396L27.6689 41.1187L37.3816 47.2605L38.3979 47.2622L38.762 47.1929L43.5201 44.1822L33.1732 37.6396ZM31.419 42.496L35.5332 39.8957L36.0716 40.2361L31.9574 42.8364L31.419 42.496ZM33.002 43.4963L37.1161 40.896L37.6545 41.2364L33.5404 43.8367L33.002 43.4963ZM34.5849 44.497L38.6991 41.8968L39.2375 42.2372L35.1233 44.8374L34.5849 44.497ZM36.7062 45.8378L36.1679 45.4974L40.282 42.8971L40.8204 43.2375L36.7062 45.8378Z" fill="black"/>
<path d="M33.4897 38.123L33.0747 37.6275L38.1997 26.3153C38.2113 26.2894 38.2276 26.2707 38.247 26.2584C38.3115 26.218 38.4112 26.2537 38.4997 26.3591C38.6142 26.4959 38.6659 26.6982 38.6146 26.8108L33.4897 38.123Z" fill="#C9C9C9"/>
<path d="M38.7187 26.2212C38.6302 26.1153 38.5301 26.0796 38.4656 26.1204C38.4466 26.1323 38.2475 26.2586 38.2475 26.2586C38.3119 26.2182 38.4117 26.2539 38.5002 26.3593C38.6147 26.4961 38.6663 26.6984 38.6151 26.811L33.4897 38.1231L33.7083 37.985L38.8333 26.6729C38.8845 26.5603 38.8332 26.358 38.7187 26.2212Z" fill="#A1A1A1"/>
<path d="M42.9176 44.4056L43.3326 44.4345L37.014 22.5012C36.9631 22.324 36.8288 22.174 36.7143 22.1663C36.6879 22.1646 36.665 22.1701 36.646 22.1825C36.5816 22.2233 36.5598 22.3363 36.5994 22.4727L42.9176 44.4056Z" fill="#C9C9C9"/>
<path d="M38.1827 26.8844C38.1827 26.983 38.1194 27.0225 38.0418 26.9737C37.9638 26.9244 37.9009 26.8049 37.9009 26.7064C37.9009 26.6078 37.9642 26.5683 38.0418 26.6171C38.1198 26.6664 38.1827 26.7863 38.1827 26.8844Z" fill="#666666"/>
<path d="M37.3785 22.2707C37.3276 22.0935 37.1933 21.9435 37.0788 21.9358C37.0528 21.9341 37.0303 21.9397 37.0113 21.9516C36.9464 21.9919 36.646 22.1823 36.646 22.1823C36.665 22.1704 36.6879 22.1645 36.7143 22.1662C36.8288 22.1742 36.9631 22.3243 37.014 22.501L43.3325 44.4344L43.697 44.204L37.3785 22.2707Z" fill="#F7F7F7"/>
<path d="M35.5622 32.8877L32.1704 30.7439L36.3257 28.1177L39.7175 30.2611L35.5622 32.8877Z" fill="#D46D17"/>
<path opacity="0.4" d="M35.1543 29.7276C36.2047 29.0638 37.6048 28.8726 38.2822 29.3005C38.9595 29.7285 38.6567 30.6136 37.6064 31.2774C36.556 31.9412 35.1559 32.1324 34.4785 31.7045C33.8012 31.2766 34.1039 30.3914 35.1543 29.7276Z" fill="black"/>
<path d="M35.5622 33.3546L32.1704 31.2107V30.7441L35.5622 32.888V33.3546Z" fill="#A14D02"/>
<path d="M33.0562 31.411C33.0011 31.3065 32.9119 31.2504 32.8571 31.2852C32.802 31.3201 32.7026 31.3826 32.7026 31.3826L32.8253 31.8088C32.8253 31.8088 33.0011 31.6979 33.0562 31.663C33.1114 31.6282 33.1114 31.5151 33.0562 31.411Z" fill="#303030"/>
<path d="M35.562 33.3539L39.7173 30.7273V30.2607L35.562 32.8874V33.3539Z" fill="#BF5902"/>
<path d="M36.2563 35.5252L34.9365 34.6911L39.0918 32.0645L40.4116 32.8986L36.2563 35.5252Z" fill="#D46D17"/>
<path d="M36.2563 35.9841L34.9365 35.1499V34.6914L36.2563 35.5256V35.9841Z" fill="#A14D02"/>
<path d="M36.2563 35.9836L40.4117 33.357V32.8984L36.2563 35.5251V35.9836Z" fill="#BF5902"/>
<path d="M37.2255 38.8871L35.9058 38.0529L40.0611 35.4263L41.3809 36.2604L37.2255 38.8871Z" fill="#D46D17"/>
<path d="M37.2255 39.3459L35.9058 38.5117V38.0532L37.2255 38.8874V39.3459Z" fill="#A14D02"/>
<path d="M37.2256 39.3459L41.3809 36.7193V36.2607L37.2256 38.8874V39.3459Z" fill="#BF5902"/>
<path d="M38.1938 42.2489L36.874 41.4148L41.0293 38.7886L42.3491 39.6227L38.1938 42.2489Z" fill="#D46D17"/>
<path d="M38.1938 42.7077L36.874 41.8736V41.415L38.1938 42.2492V42.7077Z" fill="#A14D02"/>
<path d="M38.1943 42.7073L42.3496 40.0811V39.6226L38.1943 42.2488V42.7073Z" fill="#BF5902"/>
<path d="M39.163 45.6117L37.8433 44.7775L41.999 42.1509L43.3187 42.9851L39.163 45.6117Z" fill="#D46D17"/>
<path d="M39.163 46.07L37.8433 45.2359V44.7773L39.163 45.6115V46.07Z" fill="#A14D02"/>
<path d="M39.1631 46.0705L43.3188 43.4439V42.9854L39.1631 45.612V46.0705Z" fill="#BF5902"/>
<path d="M34.2159 36.2857L33.9255 35.939L29.8141 38.5375L29.4775 39.2808L34.2159 36.2857Z" fill="#E3E3E3"/>
<path d="M29.4775 39.2812L34.2158 36.2861L34.064 36.6214L29.3257 39.6165L29.4775 39.2812Z" fill="#C9C9C9"/>
<path d="M32.8587 25.1275L32.9034 25.2826C32.9034 25.2826 36.865 22.7788 36.9368 22.7333C37.0086 22.6879 37.0086 22.5408 36.9368 22.4044C36.865 22.2684 36.7485 22.1945 36.6767 22.24C36.6053 22.2854 32.6425 24.7901 32.6157 24.8067C32.7143 24.8496 32.8156 24.9792 32.8587 25.1275Z" fill="#404040"/>
<path opacity="0.2" d="M32.8416 25.0853L36.9655 22.4787C36.9574 22.454 36.9492 22.4294 36.9364 22.4047C36.924 22.381 36.9089 22.3618 36.8941 22.3423L32.771 24.9485C32.7997 24.9893 32.823 25.0356 32.8416 25.0853Z" fill="white"/>
<path d="M38.3977 47.263L38.8127 47.2919L32.4941 25.3586C32.4433 25.1814 32.309 25.0318 32.1944 25.0237C32.168 25.022 32.1451 25.028 32.1257 25.0399C32.0617 25.0807 32.04 25.1933 32.0792 25.3297L38.3977 47.263Z" fill="#E3E3E3"/>
<path d="M34.5997 32.9733C34.5997 33.0714 34.5364 33.1114 34.4588 33.0625C34.3808 33.0132 34.3179 32.8938 34.3179 32.7952C34.3179 32.6966 34.3811 32.6571 34.4588 32.706C34.5364 32.7553 34.5997 32.8751 34.5997 32.9733Z" fill="#666666"/>
<path d="M32.8583 25.1276C32.8075 24.9504 32.6732 24.8004 32.5587 24.7928C32.5319 24.7911 32.5086 24.797 32.4892 24.8098C32.4255 24.8514 32.1255 25.0397 32.1255 25.0397C32.1445 25.0273 32.1678 25.0214 32.1942 25.0235C32.3087 25.0316 32.443 25.1816 32.4939 25.3584L38.8124 47.2917L39.1769 47.0614L32.8583 25.1276Z" fill="#F7F7F7"/>
<path d="M28.3861 41.3485L27.9712 40.8531L33.0965 29.5409C33.1082 29.515 33.1245 29.4963 33.1435 29.484C33.2079 29.4436 33.3081 29.4793 33.3962 29.5847C33.5107 29.7215 33.5623 29.9238 33.5115 30.0364L28.3861 41.3485Z" fill="#E3E3E3"/>
<path d="M33.6152 29.4468C33.5275 29.3418 33.4281 29.3057 33.3637 29.3452C33.3439 29.3571 33.1436 29.4842 33.1436 29.4842C33.208 29.4438 33.3082 29.4795 33.3963 29.5849C33.5108 29.7217 33.5624 29.924 33.5116 30.0366L28.3862 41.3487L28.6052 41.2106L33.7301 29.8985C33.7814 29.7859 33.7297 29.5836 33.6152 29.4468Z" fill="#C9C9C9"/>
<path d="M33.4444 29.8795C33.4444 29.9781 33.3811 30.0176 33.3035 29.9688C33.2255 29.9195 33.1626 29.8001 33.1626 29.7015C33.1626 29.6029 33.2259 29.5634 33.3035 29.6122C33.3811 29.6615 33.4444 29.7814 33.4444 29.8795Z" fill="#666666"/>
<path d="M32.5142 31.9316C32.5142 32.0301 32.451 32.0697 32.3733 32.0208C32.2953 31.9715 32.2324 31.8521 32.2324 31.7535C32.2324 31.6553 32.2953 31.6154 32.3733 31.6647C32.4513 31.7136 32.5142 31.8334 32.5142 31.9316Z" fill="#666666"/>
<path d="M31.8912 13.5062L32.074 13.3975L31.1591 14.1964C31.1404 14.2125 31.1203 14.2274 31.0993 14.2397L31.0508 14.2686C31.0321 14.2797 31.0104 14.2899 30.9883 14.2945L31.8912 13.5062Z" fill="#962121"/>
<path d="M30.8393 14.0357L31.7282 13.2598L31.8912 13.5067L30.9887 14.2949C30.9573 14.3013 30.9254 14.2954 30.9018 14.2597L30.8257 14.1441C30.8032 14.1097 30.809 14.0621 30.8393 14.0357Z" fill="#C92C2C"/>
<path d="M31.8911 13.5061L32.0739 13.3973L31.9109 13.1504L31.728 13.2596L31.8911 13.5061Z" fill="#B22727"/>
<path d="M32.6289 12.8625L32.8121 12.7532L32.6486 12.5063L32.4658 12.6151L32.6289 12.8625Z" fill="#B7A771"/>
<path d="M32.4655 12.6147L31.728 13.2594L31.8911 13.5059L32.6286 12.8621L32.4655 12.6147Z" fill="#EFE1BC"/>
<path d="M31.8911 13.5064L32.0739 13.3976L32.8118 12.7534L32.6286 12.8626L31.8911 13.5064Z" fill="#D9CCB9"/>
<path d="M33.0386 13.2672L33.2223 13.1579L33.2441 13.1387L33.0604 13.2484L33.0386 13.2672Z" fill="#303030"/>
<path d="M33.0602 13.2479L33.243 13.1387L33.1203 12.7393L32.9375 12.8485L33.0602 13.2479Z" fill="#666666"/>
<path d="M32.498 12.1846L32.3365 12.3257C32.3144 12.3452 32.3097 12.3805 32.3264 12.4055L32.4654 12.6155L32.6288 12.8624L32.7356 13.0247L33.0383 13.2673L33.0601 13.2482L32.9374 12.8488L32.498 12.1846Z" fill="#363636"/>
<path d="M32.9374 12.8482L33.1203 12.7394L32.7084 12.1169C32.6925 12.0931 32.6634 12.0859 32.6397 12.0999L32.498 12.1845L32.9374 12.8482Z" fill="#4A4A4A"/>
<path d="M32.8853 12.6394L32.9381 12.6071C32.9544 12.5969 32.9594 12.5735 32.9482 12.5569L32.8216 12.3657C32.8123 12.3517 32.7948 12.3474 32.7809 12.3559L32.7281 12.3882C32.7118 12.3984 32.7067 12.4218 32.718 12.4384L32.8445 12.6296C32.8538 12.6436 32.8713 12.6479 32.8853 12.6394Z" fill="#CFBD80"/>
<path d="M33.2548 12.938C33.2579 12.9307 33.2614 12.9235 33.2672 12.9188C33.2742 12.9129 33.2839 12.912 33.2929 12.912C33.3872 12.912 33.4714 12.9873 33.5145 13.079C33.5327 13.1173 33.5444 13.1581 33.5529 13.2002C33.5525 13.1186 33.5572 13.0374 33.5471 12.9567C33.5339 12.85 33.518 12.7909 33.4555 12.6668C33.4221 12.6001 33.3755 12.53 33.3903 12.4556C33.3934 12.4403 33.3992 12.425 33.4093 12.414C33.4291 12.3919 33.4605 12.3894 33.4885 12.3911C33.582 12.3966 33.7439 12.4263 33.8736 12.5253C34.0257 12.6418 34.1631 12.7544 34.2528 13.1764C34.2835 13.3217 34.2769 13.4742 34.2582 13.6221C34.2392 13.7696 34.1891 13.9158 34.0952 14.0237C34.0839 14.0365 34.0176 14.0721 33.9966 14.0751C33.9031 14.0879 33.8041 14.0896 33.7191 14.045C33.6834 14.0263 33.6515 13.9999 33.6216 13.9714C33.4652 13.8227 33.3631 13.6077 33.3414 13.382C33.3363 13.3276 33.3352 13.272 33.315 13.2222C33.2987 13.1819 33.2711 13.1483 33.2548 13.1079C33.2319 13.0548 33.2323 12.9911 33.2548 12.938Z" fill="#FFCEA1"/>
<path d="M33.4972 13.9012C33.548 13.7891 33.628 13.6913 33.7336 13.6229C33.8551 13.5443 33.9909 13.5167 34.1206 13.5345C34.1804 13.5426 34.239 13.5604 34.2941 13.5872C34.4059 13.6416 34.5037 13.7334 34.5709 13.857C34.5709 13.857 35.7676 16.0672 35.768 16.0681C36.0346 16.561 35.6166 17.1903 35.1046 17.0607C34.9427 17.0199 34.801 16.9061 34.7164 16.7497L33.5197 14.5391C33.4102 14.3368 33.4091 14.0976 33.4972 13.9012Z" fill="#D9B9AE"/>
<path d="M35.0149 15.8145C34.7078 15.9674 34.572 16.3639 34.7117 16.7005C34.8515 17.0366 35.3215 17.1365 35.6286 16.9839L37.522 15.9827C37.8291 15.8298 37.9649 15.4333 37.8252 15.0972C37.6855 14.761 37.3233 14.6123 37.0159 14.7653L35.0149 15.8145Z" fill="#D9B9AE"/>
<path d="M36.5342 29.1013C36.5342 28.7295 36.9344 28.5238 37.5287 28.6963L38.1326 28.5446C38.3325 28.4945 38.5227 28.6606 38.5227 28.885V29.7566L38.5173 29.7549C38.5255 29.8373 38.4843 29.921 38.3846 29.9839C38.2002 30.1004 37.9017 30.1004 37.7173 29.9839L36.6724 29.3236C36.5765 29.2628 36.533 29.1825 36.5373 29.103L36.5342 29.1013Z" fill="black"/>
<path d="M38.0967 24.825L36.4567 24.8488L36.4559 24.8092L36.4307 22.7419L36.3984 20.1199L37.9581 20.0957C37.9581 20.0957 38.2213 20.6282 38.2213 21.6085C38.2213 22.4491 38.0707 22.9484 38.0916 24.4417L38.0967 24.825Z" fill="#0258BF"/>
<path d="M36.4568 24.8098C36.4913 24.4869 36.7067 23.9357 36.9951 23.8571C37.2339 23.7921 37.4807 23.9115 37.6935 24.0475C37.8445 24.1439 38.004 24.6628 38.0968 24.8251C38.1119 25.607 38.3281 27.1492 38.6014 28.8265C38.6142 28.9565 38.5482 29.0959 38.4011 29.2136C38.1065 29.449 37.5976 29.5089 37.2637 29.3474C37.0968 29.2667 37.0056 29.1456 36.9932 29.0156C36.9311 28.835 36.4222 25.1328 36.4568 24.8098Z" fill="#0258BF"/>
<path d="M38.4294 27.7365L38.377 27.3872C38.3913 27.5185 38.3389 27.6553 38.1914 27.776C37.8964 28.0174 37.3833 28.0841 37.0448 27.9252C36.8814 27.8483 36.794 27.7327 36.7754 27.6065L36.8227 27.9435C36.8418 28.0773 36.9217 28.195 37.091 28.2745C37.4294 28.4334 37.943 28.3667 38.2376 28.1253C38.3851 28.0047 38.4499 27.8712 38.4294 27.7365Z" fill="#FFC50C"/>
<path opacity="0.2" d="M37.2198 22.4341C36.8417 22.9555 36.5941 24.3204 36.5917 26.2068C36.5436 25.7228 36.4807 25.5167 36.4559 24.8091L36.4307 22.7417C36.7152 22.7417 37.0001 22.633 37.2198 22.4341Z" fill="#1D1D1B"/>
<path d="M34.4058 30.4589C34.4058 30.0871 34.806 29.8814 35.4002 30.0535L35.8963 29.929C36.1513 29.8648 36.3943 30.0769 36.3943 30.3633V31.1138L36.3889 31.1121C36.397 31.1945 36.3559 31.2782 36.2561 31.3411C36.0718 31.4575 35.7733 31.4575 35.5889 31.3411L34.5439 30.6807C34.4477 30.62 34.4046 30.5397 34.4089 30.4602L34.4058 30.4589Z" fill="black"/>
<path d="M35.1589 20.9339L34.6846 25.6353L36.3147 25.8324L36.7891 21.1311L35.1589 20.9339Z" fill="#0258BF"/>
<path d="M34.6735 25.6786C34.7317 25.3595 34.9731 25.1164 35.2666 25.0637C35.5096 25.02 35.7468 25.1611 35.9486 25.3149C36.0918 25.4245 36.2265 25.6672 36.3069 25.8372C36.2475 26.755 36.395 28.757 36.4808 30.2358C36.473 30.3663 36.3865 30.4912 36.223 30.5796C35.8958 30.7564 35.385 30.7194 35.0818 30.498C34.9301 30.3871 34.8594 30.2511 34.8672 30.1202C34.8183 29.9354 34.6153 25.9974 34.6735 25.6786Z" fill="#0258BF"/>
<path d="M36.3906 28.7547C36.3894 28.8907 36.3227 29.025 36.162 29.127C35.841 29.331 35.3232 29.3254 35.006 29.1138C34.8527 29.0118 34.7782 28.8941 34.77 28.7505L34.7898 29.1057C34.798 29.2468 34.8523 29.3713 35.0118 29.4771C35.3313 29.6888 35.8526 29.6947 36.176 29.4903C36.3378 29.3883 36.4178 29.2591 36.412 29.1227L36.3906 28.7547Z" fill="#FFC50C"/>
<path d="M38.0218 20.3859C38.1273 21.2489 35.1323 22.3835 35.1051 21.3581C35.0601 19.6677 34.8881 18.9151 34.8213 17.9207C34.7476 17.0075 34.689 16.2719 34.689 16.2719C34.8299 15.8555 35.0969 15.5113 36.0759 15.0353C36.6201 14.7706 36.874 14.7281 37.2722 14.7464C37.9989 14.7799 38.0676 15.748 38.0924 16.3539C38.12 17.0173 38.0373 17.6517 37.9868 18.3091C37.934 19.001 37.9631 19.6957 38.0218 20.3859Z" fill="#0258BF"/>
<path d="M35.5384 15.8669C36.0608 16.1729 35.9727 16.8821 35.977 17.5174C35.9813 18.1527 35.564 18.2079 35.0982 18.0439C34.9992 18.0099 34.8769 17.9683 34.823 17.9202C34.7488 17.0083 34.6895 16.2714 34.6895 16.2714C34.7325 16.1444 34.7912 16.0237 34.8742 15.9039C35.0489 15.7747 35.2721 15.7114 35.5384 15.8669Z" fill="#E4C6BB"/>
<path opacity="0.1" d="M35.6285 17.1253C35.4274 17.1882 35.1914 17.3093 35.0606 17.4245C34.9298 17.5397 34.8036 17.6935 34.8234 17.9213L34.7427 16.9277L35.6285 17.1253Z" fill="#1D1D1B"/>
<path d="M35.1572 15.6006C35.3622 15.426 35.6486 15.2437 36.0764 15.0354C36.3947 14.8808 36.6128 14.8068 36.8193 14.772C36.8609 14.7958 36.902 14.8204 36.9455 14.84C37.3667 15.0269 37.5491 15.4162 37.6217 15.8054C37.657 15.9954 37.5681 16.1875 37.4148 16.2844L37.1151 16.4739C36.8194 16.6609 36.4226 16.5593 36.2332 16.2478L36.1296 16.0774C35.9165 15.729 35.6207 15.5348 35.2395 15.579C35.2112 15.5819 35.1848 15.5938 35.1572 15.6006Z" fill="#E4C6BB"/>
<path d="M36.7379 13.5087C36.7282 13.7063 36.7181 13.9052 36.6774 14.0981C36.6366 14.291 36.5632 14.4793 36.4406 14.625C36.3024 14.7886 36.104 14.8868 35.9014 14.8991C35.8378 14.9034 35.7741 14.8991 35.7112 14.8855C35.6487 14.8719 35.5866 14.8494 35.5354 14.8082C35.455 14.7444 35.4096 14.6433 35.377 14.5388V14.5383C35.3696 14.515 35.363 14.4916 35.3568 14.4682C35.2835 14.192 35.2419 13.9073 35.2233 13.6196C35.2171 13.5236 35.2602 13.4564 35.2586 13.36C35.2574 13.2869 35.2113 13.1845 35.2124 13.1118C35.2144 13.0094 35.2182 12.907 35.2245 12.805C35.2291 12.7225 35.2353 12.6384 35.259 12.5594C35.3289 12.3261 35.5474 12.1722 35.7702 12.1421C35.993 12.1119 36.2174 12.1858 36.4204 12.2908C36.4759 12.3197 36.5318 12.3516 36.5761 12.3983C36.6184 12.4429 36.6486 12.499 36.6878 12.5475C36.736 12.6065 36.7527 13.2112 36.7379 13.5087Z" fill="#FFCEA1"/>
<path opacity="0.1" d="M35.9399 14.4331C35.9403 14.5525 35.9376 14.6715 35.9348 14.7909C35.9341 14.8164 35.9337 14.8431 35.924 14.8665C35.9189 14.8793 35.9108 14.8903 35.9019 14.8992C35.8382 14.9035 35.7745 14.8992 35.7116 14.8856C35.6492 14.872 35.5871 14.8495 35.5358 14.8083C35.4555 14.7446 35.41 14.6434 35.3774 14.5389V14.5385C35.5871 14.7599 35.7214 14.5712 35.7707 13.9414C35.8064 14.2359 35.9399 14.1352 35.9399 14.4331Z" fill="#1D1D1B"/>
<path d="M37.0339 13.4062V15.1966C37.0339 15.299 36.9722 15.4014 36.8487 15.4796C36.6019 15.636 36.202 15.636 35.9552 15.4796C35.8317 15.4014 35.77 15.299 35.77 15.1966V13.4062H37.0339Z" fill="#FFCEA1"/>
<path opacity="0.1" d="M37.0339 14.6603C37.0339 14.7619 36.9803 14.8554 36.8949 14.8953C36.7598 14.9586 36.6003 14.9922 36.4885 14.9939C36.3379 14.996 36.1799 14.988 36.0503 14.9042C35.8973 14.8052 35.8077 14.6642 35.77 14.4861V14.0586H37.0335V14.6603H37.0339Z" fill="#1D1D1B"/>
<path d="M35.4853 12.986C35.6712 13.1041 35.7551 13.326 35.7749 13.5601C35.7947 13.7947 35.7628 14.0314 35.7818 14.2659C35.8009 14.5005 35.8944 14.6811 36.0796 14.801C36.2092 14.8847 36.3672 14.8927 36.5178 14.8906C36.715 14.8876 37.0612 14.7857 37.1591 14.5957C38.1008 12.1408 36.689 11.9317 36.3284 11.9054C35.6949 11.859 34.924 12.2785 35.2233 12.8241C35.2691 12.9074 35.4216 12.9452 35.4853 12.986Z" fill="#2F2F2F"/>
<path d="M35.8233 13.4063C35.7538 13.4093 35.7021 13.4722 35.6804 13.5321C35.6532 13.6074 35.6532 13.6864 35.654 13.7642C35.6548 13.8627 35.6563 13.9652 35.7049 14.0514C35.7177 14.0744 35.7355 14.0973 35.7623 14.1067C35.8027 14.1207 35.8524 14.0994 35.8803 14.0671C35.9083 14.0349 35.9195 13.9941 35.9281 13.955C35.9533 13.8411 35.9657 13.7255 35.9653 13.6108C35.9649 13.5649 35.9626 13.5177 35.9409 13.4773C35.9195 13.4365 35.8745 13.4042 35.8233 13.4063Z" fill="#FFCEA1"/>
<path d="M35.6284 17.1253L32.8949 17.1725C32.8118 17.1742 32.7323 17.1576 32.6593 17.1262C32.4695 17.0437 32.3255 16.8606 32.2847 16.6358C32.2777 16.5971 32.2738 16.5568 32.2731 16.5155C32.2696 16.3184 32.3449 16.139 32.4671 16.0141C32.5735 15.9053 32.7156 15.8373 32.8724 15.8343L35.2196 15.7876C35.8186 15.7876 36.1446 17.1181 35.6284 17.1253Z" fill="#E4C6BB"/>
<path d="M31.8337 13.7087C31.864 13.6029 31.8861 13.565 31.925 13.5081C31.9564 13.4622 31.996 13.4108 32.0465 13.3968C32.0744 13.3891 32.1144 13.4078 32.1334 13.4312C32.1567 13.4597 32.1458 13.5043 32.1334 13.54C32.1097 13.6092 32.0861 13.6789 32.062 13.7482C32.0356 13.8251 31.9793 13.9258 31.9607 14.0418C31.8955 13.9713 31.8062 13.8051 31.8337 13.7087Z" fill="#FFCEA1"/>
<path d="M31.3534 14.5158C31.5708 14.608 31.6216 14.4776 31.7742 14.3662C31.8467 14.3131 31.9007 14.1805 31.9407 14.0956C31.9884 13.9944 31.9756 13.8695 31.9329 13.7658C31.8898 13.6621 31.8196 13.5754 31.7505 13.4904C31.7035 13.4322 31.643 13.306 31.5948 13.2486C31.459 13.0872 31.327 13.3052 31.2657 13.3515C31.2043 13.3974 31.131 13.4637 31.0432 13.5622C30.9893 13.6226 30.9163 13.8155 30.9474 13.9409C30.9691 14.0288 31.0122 14.1444 31.063 14.2294C31.1822 14.4283 31.235 14.4657 31.3534 14.5158Z" fill="#FFCEA1"/>
<path d="M32.3695 16.8585L31.3483 15.0767C31.1693 14.7635 31.1363 14.56 31.3145 14.3755C31.3145 14.3755 31.993 13.6383 32.3082 14.2298L33.4052 16.148V16.1484C33.5313 16.369 33.5259 16.6393 33.411 16.8483C33.3628 16.9359 33.2957 17.0124 33.2115 17.0702C32.9258 17.2665 32.5485 17.1717 32.3695 16.8585Z" fill="#E4C6BB"/>
<path d="M34.9264 11.7983C35.11 11.6929 35.3212 11.6007 35.5789 11.6585C35.8367 11.7163 35.8281 11.7422 36.4224 12.043L35.7086 13.3765L34.6644 12.819C34.3434 12.6418 34.5134 12.0354 34.9264 11.7983Z" fill="#186FD9"/>
<path d="M35.3891 13.1844C35.5571 13.3379 35.7741 13.459 36.0082 13.5376C36.4398 13.6829 36.9037 13.6311 37.1894 13.4687C37.5632 13.2563 37.6206 13.0859 37.5391 12.5781C37.4588 12.0762 36.9895 11.5888 36.632 11.542C36.1984 11.4855 35.6798 11.5981 35.4597 11.9865C35.1643 12.5075 35.1325 12.723 35.2198 12.935C35.2652 13.0459 35.3335 13.1258 35.3891 13.1844Z" fill="#0258BF"/>
<path d="M36.9698 13.4454C36.9954 13.4407 37.0114 13.4365 37.0315 13.4301C37.0797 13.4148 37.1259 13.3935 37.1709 13.3693C37.2551 13.3243 37.3359 13.2661 37.3995 13.19C37.4116 13.1751 37.4248 13.1611 37.4337 13.1432C37.4457 13.1186 37.4414 13.085 37.4403 13.0578C37.4391 13.034 37.4364 13.0102 37.4298 12.9873C37.4205 12.9541 37.4026 12.9227 37.3735 12.9074C37.3196 12.8789 37.2536 12.9091 37.2062 12.9397C37.1942 12.9473 37.1825 12.955 37.1705 12.9618C37.0374 13.0408 36.9357 13.2104 36.936 13.4008C36.9357 13.4288 36.9446 13.4501 36.9698 13.4454Z" fill="#2F2F2F"/>
<path opacity="0.1" d="M35.6296 12.2842C35.5492 12.6144 35.5275 12.8515 35.5589 13.0342C35.595 13.2454 35.7072 13.3848 35.9638 13.5229C35.7468 13.4439 35.5461 13.3287 35.3889 13.1851C35.3357 13.129 35.2709 13.0529 35.2251 12.9492C35.3982 13.1141 35.4778 12.7159 35.6296 12.2842Z" fill="black"/>
<path d="M18.3451 18.1497C18.3645 18.1132 18.3956 18.0936 18.4146 18.1055C18.4146 18.1055 18.5509 18.1914 18.665 18.2636C18.6502 18.2819 18.6362 18.3027 18.6242 18.3257C18.6118 18.349 18.6029 18.3724 18.5959 18.3958C18.4818 18.3235 18.3451 18.2373 18.3451 18.2373C18.3257 18.2258 18.3257 18.1863 18.3451 18.1497Z" fill="#363636"/>
<path d="M15.3941 21.3847C15.3681 21.3847 15.3425 21.3728 15.3235 21.3499C15.2897 21.3074 15.2932 21.2423 15.3316 21.205L18.2343 18.3999C18.4257 18.2154 18.6291 18.0875 18.8228 18.0297L21.7255 17.1654C21.7748 17.1501 21.8272 17.1828 21.8408 17.2372C21.854 17.292 21.8249 17.3485 21.7748 17.3634L18.8721 18.2278C18.7056 18.2775 18.5282 18.3901 18.3581 18.5537L15.4558 21.3588C15.4384 21.3762 15.4159 21.3847 15.3941 21.3847Z" fill="#404040"/>
<path d="M18.6783 18.6234C18.7358 18.6595 18.8289 18.6008 18.8864 18.4916C18.9438 18.3824 18.9438 18.2647 18.8864 18.2286C18.8289 18.192 18.7358 18.2511 18.6783 18.3603C18.6209 18.4695 18.6209 18.5868 18.6783 18.6234Z" fill="#363636"/>
<path d="M18.6241 18.3255C18.6816 18.2163 18.7748 18.1576 18.8322 18.1938C18.8489 18.2044 18.8869 18.2282 18.8869 18.2282C18.8295 18.1916 18.7363 18.2507 18.6789 18.3599C18.6214 18.4691 18.6214 18.5868 18.6789 18.623C18.6789 18.623 18.6447 18.6013 18.6241 18.5885C18.5667 18.5524 18.5667 18.4347 18.6241 18.3255Z" fill="#666666"/>
<path opacity="0.5" d="M13.5557 22.4953L13.5564 31.6831L23.3258 25.5086L23.325 16.3208L13.5557 22.4953Z" fill="black"/>
<path d="M14.025 22.3078L13.8188 22.1777L13.8196 31.0978L14.0257 31.2279L14.025 22.3078Z" fill="#A14D02"/>
<path d="M23.3041 16.1831L13.8188 22.1779L14.025 22.3079L23.5098 16.3131L23.3041 16.1831Z" fill="#BF5902"/>
<path d="M14.0249 22.3082L14.0257 31.2283L23.5105 25.2336L23.5097 16.3135L14.0249 22.3082Z" fill="#D46D17"/>
<path d="M14.5525 22.6416L14.2769 22.4678L14.2772 30.7458L14.5525 29.7318V22.6416Z" fill="#A14D02"/>
<path d="M22.593 24.6504L14.5526 29.7319L14.2773 30.7459L23.2572 25.0702L22.593 24.6504Z" fill="#BF5902"/>
<path d="M22.5925 17.5599L23.2571 16.792L14.2769 22.4676L14.5525 22.6414L22.5925 17.5599Z" fill="#914502"/>
<path d="M22.5928 17.5599L22.5932 24.6502L23.2573 25.07V16.792L22.5928 17.5599Z" fill="#A14D02"/>
<path d="M14.5527 29.7319L22.5932 24.6503L22.5928 17.5601L14.5527 22.6416V29.7319Z" fill="#D9CCB9"/>
<path d="M23.1702 35.6504L24.8533 44.565L24.1884 44.1672L22.7812 36.714L23.1702 35.6504Z" fill="#A14D02"/>
<path d="M24.1888 44.1675L24.8537 44.5652L15.2505 50.6348L15.6425 49.5694L24.1888 44.1675Z" fill="#BF5902"/>
<path d="M22.7816 36.7144L24.1887 44.1675L15.6425 49.5695L14.2354 42.1159L22.7816 36.7144Z" fill="#E3D6C1"/>
<path d="M13.5674 41.7207L14.235 42.1159L15.6421 49.5695L15.2501 50.6349L13.5674 41.7207Z" fill="#A14D02"/>
<path d="M13.3638 41.5994L23.2931 35.3237L25.06 44.6837L15.1307 50.9593L13.3638 41.5994ZM24.8535 44.5651L23.1704 35.6505L13.5676 41.7201L15.2507 50.6346L24.8535 44.5651Z" fill="#D46D17"/>
<path d="M23.1702 35.6504L22.7813 36.714L14.235 42.1156L13.5674 41.7204L23.1702 35.6504Z" fill="#914502"/>
<path d="M13.3637 41.5997L13.1724 41.5432L23.1016 35.2671L23.293 35.324L13.3637 41.5997Z" fill="#984902"/>
<path d="M15.1307 50.9598L14.9393 50.9029L13.1724 41.543L13.3637 41.5995L15.1307 50.9598Z" fill="#A14D02"/>
<path opacity="0.2" d="M14.5682 48.9233L12.7993 50.0414L14.9389 50.9027L14.5682 48.9233Z" fill="black"/>
<path opacity="0.5" d="M13.1863 41.543L12.7993 50.0415L14.5682 48.9235L13.1863 41.543Z" fill="black"/>
</svg>
