<svg width="41" height="40" viewBox="0 0 41 40" fill="none" xmlns="http://www.w3.org/2000/svg">
<rect x="0.5" width="40" height="40" rx="8" fill="#E9E9E9"/>
<path d="M10.5 12.6888C10.5 12.0475 10.7252 11.5184 11.1757 11.1015C11.6261 10.6846 12.2117 10.4762 12.9324 10.4762C13.6403 10.4762 14.213 10.6814 14.6506 11.0919C15.101 11.5152 15.3263 12.0667 15.3263 12.7465C15.3263 13.3622 15.1075 13.8753 14.6699 14.2857C14.2194 14.709 13.6274 14.9206 12.8938 14.9206H12.8745C12.1667 14.9206 11.594 14.709 11.1564 14.2857C10.7188 13.8624 10.5 13.3301 10.5 12.6888ZM10.751 29.5238V16.6715H15.0367V29.5238H10.751ZM17.4112 29.5238H21.6969V22.3473C21.6969 21.8983 21.7484 21.552 21.8514 21.3083C22.0315 20.8722 22.305 20.5034 22.6718 20.202C23.0386 19.9006 23.4987 19.7499 24.0521 19.7499C25.4936 19.7499 26.2143 20.7183 26.2143 22.6551V29.5238H30.5V22.1549C30.5 20.2565 30.0496 18.8167 29.1486 17.8355C28.2477 16.8543 27.0573 16.3636 25.5772 16.3636C23.917 16.3636 22.6236 17.0755 21.6969 18.4993V18.5378H21.6776L21.6969 18.4993V16.6715H17.4112C17.4369 17.0819 17.4498 18.3582 17.4498 20.5002C17.4498 22.6423 17.4369 25.6501 17.4112 29.5238Z" fill="#939393"/>
</svg>
