<svg width="16" height="16" viewBox="0 0 16 16" fill="none" xmlns="http://www.w3.org/2000/svg">
<path d="M7.99996 8.00016C8.36663 8.00016 8.68051 7.86961 8.94163 7.6085C9.20274 7.34739 9.33329 7.0335 9.33329 6.66683C9.33329 6.30016 9.20274 5.98627 8.94163 5.72516C8.68051 5.46405 8.36663 5.3335 7.99996 5.3335C7.63329 5.3335 7.3194 5.46405 7.05829 5.72516C6.79718 5.98627 6.66663 6.30016 6.66663 6.66683C6.66663 7.0335 6.79718 7.34739 7.05829 7.6085C7.3194 7.86961 7.63329 8.00016 7.99996 8.00016ZM7.99996 12.9002C9.35551 11.6557 10.3611 10.5252 11.0166 9.5085C11.6722 8.49183 12 7.58905 12 6.80016C12 5.58905 11.6138 4.59739 10.8416 3.82516C10.0694 3.05294 9.12218 2.66683 7.99996 2.66683C6.87774 2.66683 5.93051 3.05294 5.15829 3.82516C4.38607 4.59739 3.99996 5.58905 3.99996 6.80016C3.99996 7.58905 4.32774 8.49183 4.98329 9.5085C5.63885 10.5252 6.6444 11.6557 7.99996 12.9002ZM7.99996 14.6668C6.21107 13.1446 4.87496 11.7307 3.99163 10.4252C3.10829 9.11961 2.66663 7.91127 2.66663 6.80016C2.66663 5.1335 3.20274 3.80572 4.27496 2.81683C5.34718 1.82794 6.58885 1.3335 7.99996 1.3335C9.41107 1.3335 10.6527 1.82794 11.725 2.81683C12.7972 3.80572 13.3333 5.1335 13.3333 6.80016C13.3333 7.91127 12.8916 9.11961 12.0083 10.4252C11.125 11.7307 9.78885 13.1446 7.99996 14.6668Z" fill="#575757"/>
</svg>
