<svg width="120" height="120" viewBox="0 0 120 120" fill="none" xmlns="http://www.w3.org/2000/svg">
<path d="M118.901 47.6536L102.026 64.5286C101.678 64.8773 101.264 65.1539 100.809 65.3426C100.354 65.5313 99.8659 65.6285 99.3731 65.6285C98.8803 65.6285 98.3923 65.5313 97.937 65.3426C97.4818 65.1539 97.0682 64.8773 96.7199 64.5286L79.8449 47.6536L79.6856 47.4755L79.5262 47.6536L63.4246 63.7505L79.5262 79.8474C79.8749 80.1957 80.1515 80.6092 80.3402 81.0645C80.5289 81.5197 80.626 82.0077 80.626 82.5005C80.626 82.9933 80.5289 83.4813 80.3402 83.9365C80.1515 84.3918 79.8749 84.8054 79.5262 85.1536L62.6512 102.029C62.3029 102.377 61.8893 102.654 61.4341 102.843C60.9788 103.031 60.4909 103.128 59.9981 103.128C59.5053 103.128 59.0173 103.031 58.562 102.843C58.1068 102.654 57.6932 102.377 57.3449 102.029L40.4699 85.1536C40.1213 84.8054 39.8447 84.3918 39.656 83.9365C39.4673 83.4813 39.3701 82.9933 39.3701 82.5005C39.3701 82.0077 39.4673 81.5197 39.656 81.0645C39.8447 80.6092 40.1213 80.1957 40.4699 79.8474L56.5715 63.7505L40.4699 47.6536L40.3106 47.4755L40.1512 47.6536L23.2762 64.5286C22.9279 64.8773 22.5143 65.1539 22.0591 65.3426C21.6038 65.5313 21.1159 65.6285 20.6231 65.6285C20.1303 65.6285 19.6423 65.5313 19.187 65.3426C18.7318 65.1539 18.3182 64.8773 17.9699 64.5286L1.09494 47.6536C0.74628 47.3054 0.469684 46.8918 0.280968 46.4365C0.0922521 45.9813 -0.00488281 45.4933 -0.00488281 45.0005C-0.00488281 44.5077 0.0922521 44.0197 0.280968 43.5645C0.469684 43.1092 0.74628 42.6957 1.09494 42.3474L17.9699 25.4724C18.3182 25.1237 18.7318 24.8471 19.187 24.6584C19.6423 24.4697 20.1303 24.3726 20.6231 24.3726C21.1159 24.3726 21.6038 24.4697 22.0591 24.6584C22.5143 24.8471 22.9279 25.1237 23.2762 25.4724L40.1512 42.3474L40.3106 42.5255L40.4699 42.3474L57.3449 25.4724C57.6932 25.1237 58.1068 24.8471 58.562 24.6584C59.0173 24.4697 59.5053 24.3726 59.9981 24.3726C60.4909 24.3726 60.9788 24.4697 61.4341 24.6584C61.8893 24.8471 62.3029 25.1237 62.6512 25.4724L79.5262 42.3474L79.6856 42.5255L79.8449 42.3474L96.7199 25.4724C97.0682 25.1237 97.4818 24.8471 97.937 24.6584C98.3923 24.4697 98.8803 24.3726 99.3731 24.3726C99.8659 24.3726 100.354 24.4697 100.809 24.6584C101.264 24.8471 101.678 25.1237 102.026 25.4724L118.901 42.3474C119.25 42.6957 119.526 43.1092 119.715 43.5645C119.904 44.0197 120.001 44.5077 120.001 45.0005C120.001 45.4933 119.904 45.9813 119.715 46.4365C119.526 46.8918 119.25 47.3054 118.901 47.6536Z" fill="url(#paint0_linear_415_3805)"/>
<defs>
<linearGradient id="paint0_linear_415_3805" x1="10" y1="25" x2="130" y2="100" gradientUnits="userSpaceOnUse">
<stop stop-color="#FF8334"/>
<stop offset="1" stop-color="#BF4A00"/>
</linearGradient>
</defs>
</svg>
