<svg width="40" height="40" viewBox="0 0 40 40" fill="none" xmlns="http://www.w3.org/2000/svg">
<path d="M39.6338 15.8844L34.0088 21.5094C33.8927 21.6256 33.7548 21.7178 33.6031 21.7807C33.4513 21.8436 33.2887 21.876 33.1244 21.876C32.9601 21.876 32.7975 21.8436 32.6457 21.7807C32.494 21.7178 32.3561 21.6256 32.24 21.5094L26.615 15.8844L26.5619 15.825L26.5088 15.8844L21.1416 21.25L26.5088 26.6156C26.625 26.7317 26.7172 26.8696 26.7801 27.0213C26.843 27.1731 26.8754 27.3357 26.8754 27.5C26.8754 27.6643 26.843 27.8269 26.7801 27.9787C26.7172 28.1304 26.625 28.2683 26.5088 28.3844L20.8838 34.0094C20.7677 34.1256 20.6298 34.2178 20.4781 34.2807C20.3263 34.3436 20.1637 34.376 19.9994 34.376C19.8351 34.376 19.6725 34.3436 19.5207 34.2807C19.369 34.2178 19.2311 34.1256 19.115 34.0094L13.49 28.3844C13.3738 28.2683 13.2816 28.1304 13.2187 27.9787C13.1558 27.8269 13.1234 27.6643 13.1234 27.5C13.1234 27.3357 13.1558 27.1731 13.2187 27.0213C13.2816 26.8696 13.3738 26.7317 13.49 26.6156L18.8572 21.25L13.49 15.8844L13.4369 15.825L13.3838 15.8844L7.75877 21.5094C7.64268 21.6256 7.50482 21.7178 7.35307 21.7807C7.20132 21.8436 7.03867 21.876 6.8744 21.876C6.71013 21.876 6.54747 21.8436 6.39572 21.7807C6.24397 21.7178 6.10611 21.6256 5.99002 21.5094L0.365021 15.8844C0.248801 15.7683 0.156602 15.6304 0.0936968 15.4787C0.0307914 15.3269 -0.00158691 15.1643 -0.00158691 15C-0.00158691 14.8357 0.0307914 14.6731 0.0936968 14.5213C0.156602 14.3696 0.248801 14.2317 0.365021 14.1156L5.99002 8.49063C6.10611 8.37441 6.24397 8.28221 6.39572 8.21931C6.54747 8.1564 6.71013 8.12402 6.8744 8.12402C7.03867 8.12402 7.20132 8.1564 7.35307 8.21931C7.50482 8.28221 7.64268 8.37441 7.75877 8.49063L13.3838 14.1156L13.4369 14.175L13.49 14.1156L19.115 8.49063C19.2311 8.37441 19.369 8.28221 19.5207 8.21931C19.6725 8.1564 19.8351 8.12402 19.9994 8.12402C20.1637 8.12402 20.3263 8.1564 20.4781 8.21931C20.6298 8.28221 20.7677 8.37441 20.8838 8.49063L26.5088 14.1156L26.5619 14.175L26.615 14.1156L32.24 8.49063C32.3561 8.37441 32.494 8.28221 32.6457 8.21931C32.7975 8.1564 32.9601 8.12402 33.1244 8.12402C33.2887 8.12402 33.4513 8.1564 33.6031 8.21931C33.7548 8.28221 33.8927 8.37441 34.0088 8.49063L39.6338 14.1156C39.75 14.2317 39.8422 14.3696 39.9051 14.5213C39.968 14.6731 40.0004 14.8357 40.0004 15C40.0004 15.1643 39.968 15.3269 39.9051 15.4787C39.8422 15.6304 39.75 15.7683 39.6338 15.8844Z" fill="url(#paint0_linear_277_1633)"/>
<defs>
<linearGradient id="paint0_linear_277_1633" x1="3.33337" y1="8.33317" x2="43.3334" y2="33.3332" gradientUnits="userSpaceOnUse">
<stop stop-color="#FF8334"/>
<stop offset="1" stop-color="#BF4A00"/>
</linearGradient>
</defs>
</svg>
