<svg width="20" height="20" viewBox="0 0 20 20" fill="none" xmlns="http://www.w3.org/2000/svg">
<path d="M3.33341 16.6668C2.87508 16.6668 2.48272 16.5036 2.15633 16.1772C1.82994 15.8509 1.66675 15.4585 1.66675 15.0002V5.00016C1.66675 4.54183 1.82994 4.14947 2.15633 3.82308C2.48272 3.49669 2.87508 3.3335 3.33341 3.3335H16.6667C17.1251 3.3335 17.5174 3.49669 17.8438 3.82308C18.1702 4.14947 18.3334 4.54183 18.3334 5.00016V15.0002C18.3334 15.4585 18.1702 15.8509 17.8438 16.1772C17.5174 16.5036 17.1251 16.6668 16.6667 16.6668H3.33341ZM10.0001 10.8335L3.33341 6.66683V15.0002H16.6667V6.66683L10.0001 10.8335ZM10.0001 9.16683L16.6667 5.00016H3.33341L10.0001 9.16683ZM3.33341 6.66683V5.00016V15.0002V6.66683Z" fill="#939393"/>
</svg>
