<svg width="32" height="56" viewBox="0 0 32 56" fill="none" xmlns="http://www.w3.org/2000/svg">
<path opacity="0.4" fill-rule="evenodd" clip-rule="evenodd" d="M14.5326 35.5522C22.5594 35.5522 29.0687 39.3306 29.0687 43.9902C29.0687 48.6498 22.559 52.4285 14.5326 52.4285C6.5058 52.4285 -0.00390625 48.6502 -0.00390625 43.9902C-0.00390625 39.3306 6.5058 35.5522 14.5326 35.5522Z" fill="#D2D2E1"/>
<path fill-rule="evenodd" clip-rule="evenodd" d="M1.52273 48.1511V10.7899L0.811035 10.3438L0.812963 47.7012L1.52273 48.1511Z" fill="#AFAFAF"/>
<path fill-rule="evenodd" clip-rule="evenodd" d="M16.4213 1.39209L1.52246 10.7902V48.151L16.4256 38.7495L16.4213 1.39209Z" fill="#EFD0D0"/>
<path fill-rule="evenodd" clip-rule="evenodd" d="M16.4212 1.39209L1.52234 10.7902L0.811035 10.3441L15.6891 0.943848L16.4212 1.39209Z" fill="#E3E3E3"/>
<path fill-rule="evenodd" clip-rule="evenodd" d="M14.9377 50.2797L10.944 47.7393L10.5781 48.6159L14.5834 51.155L14.9377 50.2797Z" fill="#A59828"/>
<path fill-rule="evenodd" clip-rule="evenodd" d="M3.34863 52.5841L7.84394 55.4254L11.3384 53.2168L12.1735 52.0109L14.7284 50.4105L14.5865 51.1639L14.7307 51.0727L15.459 49.953L10.5712 48.1343C9.39339 48.8695 3.34863 52.0793 3.34863 52.5841Z" fill="#C5B945"/>
<path fill-rule="evenodd" clip-rule="evenodd" d="M3.34849 52.5841L7.8438 55.4254L7.84418 55.425L7.77325 54.4906C7.89469 48.5323 6.25155 52.1464 3.00537 51.7404L3.34849 52.5841Z" fill="#A59828"/>
<path fill-rule="evenodd" clip-rule="evenodd" d="M2.82568 51.7979L7.70112 54.8123L15.6658 49.8231V48.9941L2.82684 50.9057L2.82568 51.7979Z" fill="#DACF69"/>
<path fill-rule="evenodd" clip-rule="evenodd" d="M2.82568 51.798L7.70112 54.812L7.70151 54.8116V49.9316C5.57453 49.9316 4.58062 50.9214 2.82684 50.9053L2.82568 51.798Z" fill="#C5B945"/>
<path fill-rule="evenodd" clip-rule="evenodd" d="M2.82666 50.905L7.70094 53.9827L15.6656 48.9938L10.7582 45.8921L2.82666 50.905Z" fill="#F6F0AB"/>
<path fill-rule="evenodd" clip-rule="evenodd" d="M3.23291 50.8936L7.71395 53.7265L15.2322 48.9728L10.7562 46.1416L3.23291 50.8936Z" fill="#DACF69"/>
<path fill-rule="evenodd" clip-rule="evenodd" d="M10.0878 52.2257L6.84702 50.1724L4.47021 51.6762L7.71369 53.7266L10.0878 52.2257Z" fill="#88BD2C"/>
<path fill-rule="evenodd" clip-rule="evenodd" d="M15.077 49.1043L10.8042 46.4014L7.54834 48.8143L11.5278 51.3319L15.077 49.1043Z" fill="#F6F0AB"/>
<path fill-rule="evenodd" clip-rule="evenodd" d="M7.54812 48.8135L11.5276 51.3311L10.0876 52.2255L6.84375 50.178L7.54812 48.8135Z" fill="#E6DC80"/>
<path fill-rule="evenodd" clip-rule="evenodd" d="M28.4322 40.9648C29.7835 41.0652 30.7353 41.8406 30.5584 42.697C30.3814 43.5533 29.1419 44.1662 27.791 44.0661C26.4401 43.9661 25.4883 43.1903 25.6652 42.334C25.8422 41.4776 27.0817 40.8648 28.4322 40.9648Z" fill="#979797"/>
<path fill-rule="evenodd" clip-rule="evenodd" d="M28.4322 40.8501C29.7835 40.9505 30.7353 41.7258 30.5584 42.5822C30.3814 43.4386 29.1419 44.0514 27.791 43.9514C26.4401 43.8509 25.4883 43.0756 25.6652 42.2192C25.8422 41.3629 27.0817 40.75 28.4322 40.8501Z" fill="#E3E3E3"/>
<path fill-rule="evenodd" clip-rule="evenodd" d="M30.6723 38.3818C30.6723 37.5098 29.4171 37.1616 28.1344 37.1616C27.4316 37.1616 25.5486 37.8909 25.5479 38.3953C25.5679 38.733 25.7753 42.2572 25.7869 42.4703C26.0541 44.319 30.1785 44.2675 30.4322 42.4066L30.6723 38.3818Z" fill="#979797"/>
<path fill-rule="evenodd" clip-rule="evenodd" d="M25.7545 41.8885C26.0329 42.5841 27.0245 43.1361 28.109 43.1361C28.855 43.1361 30.145 42.7989 30.4619 41.8995L30.6373 38.9556C29.7379 40.3944 26.4975 40.4666 25.5811 38.9919C25.6273 39.809 25.7218 41.3542 25.7545 41.8885Z" fill="#668A22"/>
<path fill-rule="evenodd" clip-rule="evenodd" d="M30.544 40.5298C30.214 42.2657 26.3289 42.5249 25.6816 40.6881L25.7587 41.9572C26.3232 43.6619 29.8724 43.5336 30.4588 41.9589L30.544 40.5298Z" fill="#CACACA"/>
<path fill-rule="evenodd" clip-rule="evenodd" d="M28.4584 36.7528C29.9203 36.8613 30.9505 37.7004 30.7589 38.6268C30.5673 39.5532 29.2268 40.2163 27.7648 40.1078C26.3033 39.9994 25.2735 39.1603 25.4648 38.2339C25.6564 37.3074 26.9972 36.6444 28.4584 36.7528Z" fill="#979797"/>
<path fill-rule="evenodd" clip-rule="evenodd" d="M28.4584 36.6283C29.9203 36.7368 30.9505 37.5758 30.7589 38.5023C30.5673 39.4287 29.2268 40.0918 27.7648 39.9833C26.3033 39.8748 25.2735 39.0358 25.4648 38.1093C25.6564 37.1833 26.9972 36.5198 28.4584 36.6283Z" fill="#E3E3E3"/>
<path fill-rule="evenodd" clip-rule="evenodd" d="M28.3515 37.1452C29.3631 37.2203 30.076 37.8011 29.9434 38.4418C29.8107 39.0829 28.8831 39.5417 27.8715 39.4665C26.8603 39.3914 26.1474 38.8111 26.28 38.1699C26.4127 37.5292 27.3403 37.0705 28.3515 37.1452Z" fill="#CACACA"/>
<path fill-rule="evenodd" clip-rule="evenodd" d="M28.3521 37.2937C29.2415 37.3595 29.9 37.8166 29.9555 38.3619C29.9528 38.3881 29.9493 38.4147 29.9435 38.4413C29.8113 39.0824 28.8837 39.5416 27.8721 39.4661C26.9827 39.4002 26.3246 38.9431 26.269 38.3978C26.2717 38.3712 26.2756 38.345 26.281 38.3185C26.4128 37.6778 27.3404 37.2186 28.3521 37.2937Z" fill="#979797"/>
<path fill-rule="evenodd" clip-rule="evenodd" d="M28.459 37.9448C29.0431 37.9883 29.5578 38.1478 29.9537 38.3834C29.951 38.4028 29.9479 38.4222 29.9441 38.442C29.8118 39.0831 28.8842 39.5423 27.8726 39.4668C26.9924 39.4014 26.339 38.9531 26.2715 38.4154C26.8347 38.071 27.627 37.8828 28.459 37.9448Z" fill="#668A22"/>
<path fill-rule="evenodd" clip-rule="evenodd" d="M27.9488 37.937C28.8043 38.0898 29.3734 38.6195 29.2539 39.1977L29.2496 39.2163C28.873 39.4058 28.3833 39.5046 27.8721 39.4666C26.9919 39.4012 26.3385 38.9529 26.271 38.4152C26.7178 38.1421 27.3089 37.967 27.9488 37.937Z" fill="#88BD2C"/>
<path fill-rule="evenodd" clip-rule="evenodd" d="M29.9121 39.738C28.131 40.2471 26.6648 41.8589 26.4824 43.44C27.7369 44.2001 30.2363 43.8422 30.4322 42.4063L30.5714 40.0744C30.5189 39.7199 30.1477 39.6709 29.9121 39.738Z" fill="#CACACA"/>
<path fill-rule="evenodd" clip-rule="evenodd" d="M29.9121 39.7378C28.3812 40.1755 27.0831 41.4274 26.6328 42.7746C27.0503 42.9987 27.5685 43.1363 28.1094 43.1363C28.8554 43.1363 30.1454 42.7991 30.4623 41.8997L30.571 40.0746C30.502 39.707 30.1477 39.6707 29.9121 39.7378Z" fill="#88BD2C"/>
<path fill-rule="evenodd" clip-rule="evenodd" d="M27.0938 41.8323C26.8767 42.1653 26.709 42.5164 26.6011 42.8735C27.8587 43.5159 30.0134 43.155 30.4587 41.9589L30.5439 40.5298C30.3207 41.7048 28.4682 42.2029 27.0938 41.8323Z" fill="#E3E3E3"/>
<path fill-rule="evenodd" clip-rule="evenodd" d="M30.5242 43.4759C31.362 43.5379 31.9526 44.0191 31.8427 44.55C31.7328 45.081 30.9645 45.4613 30.1267 45.3992C29.2889 45.3372 28.6987 44.856 28.8086 44.3251C28.9181 43.7941 29.6868 43.4138 30.5242 43.4759Z" fill="#979797"/>
<path fill-rule="evenodd" clip-rule="evenodd" d="M30.5242 43.4052C31.362 43.4672 31.9526 43.9483 31.8427 44.4793C31.7328 45.0103 30.9645 45.3905 30.1267 45.3281C29.2889 45.266 28.6987 44.7849 28.8086 44.2539C28.9181 43.723 29.6868 43.3427 30.5242 43.4052Z" fill="#E3E3E3"/>
<path fill-rule="evenodd" clip-rule="evenodd" d="M31.9351 41.8025C31.9351 41.2547 31.1463 41.0356 30.3401 41.0356C29.8987 41.0356 28.7151 41.494 28.7144 41.811C28.7267 42.0233 28.8574 44.2383 28.8647 44.3721C29.0328 45.534 31.6247 45.5015 31.7843 44.332L31.9351 41.8025Z" fill="#979797"/>
<path fill-rule="evenodd" clip-rule="evenodd" d="M28.8445 44.0067C29.0195 44.4439 29.6425 44.7909 30.3241 44.7909C30.7929 44.7909 31.6037 44.579 31.803 44.0134L31.9133 42.1631C31.3481 43.0676 29.3113 43.1127 28.7354 42.1859C28.7643 42.7 28.8236 43.6707 28.8445 44.0067Z" fill="#D39F25"/>
<path fill-rule="evenodd" clip-rule="evenodd" d="M31.8541 43.1528C31.6467 44.2439 29.2051 44.4068 28.7983 43.252L28.8469 44.0497C29.2016 45.1213 31.4323 45.0403 31.8009 44.051L31.8541 43.1528Z" fill="#CACACA"/>
<path fill-rule="evenodd" clip-rule="evenodd" d="M30.5438 40.7792C31.4625 40.8472 32.1102 41.3748 31.9896 41.9568C31.8693 42.5388 31.0265 42.9558 30.1078 42.8879C29.1894 42.8199 28.5417 42.2923 28.6624 41.7099C28.7827 41.1283 29.6251 40.7113 30.5438 40.7792Z" fill="#979797"/>
<path fill-rule="evenodd" clip-rule="evenodd" d="M30.5438 40.7011C31.4625 40.7691 32.1102 41.2966 31.9896 41.8787C31.8693 42.4607 31.0265 42.8777 30.1078 42.8097C29.1894 42.7418 28.5417 42.2142 28.6624 41.6322C28.7827 41.0501 29.6251 40.6332 30.5438 40.7011Z" fill="#E3E3E3"/>
<path fill-rule="evenodd" clip-rule="evenodd" d="M30.4901 40.9601C31.1829 41.0116 31.6714 41.4092 31.5808 41.8481C31.4898 42.2875 30.8545 42.6015 30.1617 42.5504C29.4689 42.4989 28.9808 42.1014 29.0714 41.662C29.162 41.2231 29.7973 40.9086 30.4901 40.9601Z" fill="#CACACA"/>
<path fill-rule="evenodd" clip-rule="evenodd" d="M31.4573 42.6548C30.3377 42.9747 29.4163 43.9877 29.3018 44.9816C30.0902 45.4594 31.6612 45.2345 31.7842 44.3321L31.8717 42.8663C31.8386 42.6434 31.6049 42.6126 31.4573 42.6548Z" fill="#CACACA"/>
<path fill-rule="evenodd" clip-rule="evenodd" d="M31.4571 42.6549C30.4951 42.9301 29.679 43.7168 29.396 44.5635C29.6585 44.7044 29.9839 44.7905 30.324 44.7905C30.7928 44.7905 31.6036 44.5786 31.8029 44.0131L31.8711 42.8659C31.8275 42.6359 31.6047 42.6127 31.4571 42.6549Z" fill="#F0CA30"/>
<path fill-rule="evenodd" clip-rule="evenodd" d="M29.686 43.9717C29.5496 44.181 29.4443 44.4018 29.3765 44.6263C30.1672 45.0302 31.5212 44.8032 31.8011 44.0515L31.8547 43.1533C31.7143 43.8915 30.55 44.2043 29.686 43.9717Z" fill="#E3E3E3"/>
<path fill-rule="evenodd" clip-rule="evenodd" d="M30.4715 41.0674C31.0868 41.113 31.5205 41.4662 31.44 41.8562C31.3594 42.2462 30.795 42.5256 30.1793 42.48C29.564 42.4345 29.1302 42.0812 29.2108 41.6912C29.2918 41.3008 29.8558 41.0218 30.4715 41.0674Z" fill="#E3E3E3"/>
<path fill-rule="evenodd" clip-rule="evenodd" d="M13.004 40.9083V31.7883L12.4866 32.0648C11.8763 32.391 11.377 32.1116 11.377 31.4435V7.09665C10.5979 7.4858 9.73506 8.25606 8.92622 8.69881C8.08306 9.16097 6.78536 9.54842 6.022 10.1389V23.423C6.022 24.0236 5.57325 24.8002 5.02463 25.1492L1.52246 27.376V12.7641V10.7901L16.4213 1.3916L16.4256 38.749L13.004 40.9083Z" fill="#668A22"/>
<path fill-rule="evenodd" clip-rule="evenodd" d="M26.6182 26.3857C25.767 26.4756 24.1088 30.2101 23.6357 31.3235C23.6662 31.8422 24.1458 32.1524 24.4319 31.8131C24.7773 31.5197 26.7547 29.4373 27.6661 27.9837C28.1353 27.1788 27.3014 26.6816 26.6182 26.3857Z" fill="#CB6117"/>
<path d="M26.0928 35.5692L26.0909 35.5666L9.03919 11.8841C8.85568 11.6292 9.54462 11.3105 9.66722 11.4794L26.7401 35.1876C26.7687 35.2239 26.7748 35.2754 26.7517 35.3358C26.6981 35.4767 26.4745 35.6194 26.3253 35.6434C26.1761 35.6675 26.1237 35.6312 26.0928 35.5692Z" fill="#487AB1"/>
<path fill-rule="evenodd" clip-rule="evenodd" d="M9.43371 11.4019C9.25212 11.431 9.0609 11.5686 9.00731 11.7096C8.95372 11.8506 9.05704 11.9413 9.23863 11.9122C9.42021 11.8831 9.61144 11.7455 9.66541 11.6045C9.719 11.4635 9.61529 11.3728 9.43371 11.4019Z" fill="#558BC5"/>
<path d="M9.70817 11.6162L26.6862 35.194C26.751 35.2844 26.7086 35.3498 26.66 35.2827L9.67578 11.6964C9.68465 11.6816 9.69236 11.666 9.69814 11.6508C9.70238 11.6382 9.70585 11.6272 9.70817 11.6162Z" fill="#77B3EC"/>
<path fill-rule="evenodd" clip-rule="evenodd" d="M5.83734 10.1174L5.85314 10.1448L9.65179 7.70276C9.76244 7.63143 9.85882 7.14986 9.64948 6.78604C9.44013 6.42222 9.10164 6.24242 8.89345 6.38466L5.09326 8.83094L5.10984 8.86007C5.00343 9.04831 5.6357 10.1398 5.83734 10.1174Z" fill="#88BD2C"/>
<path fill-rule="evenodd" clip-rule="evenodd" d="M5.09523 9.74718C5.30458 10.111 5.64307 10.2908 5.85088 10.1486C6.05906 10.0063 6.05791 9.59566 5.84856 9.23184C5.63922 8.86802 5.30072 8.68822 5.09292 8.83046C4.88473 8.97312 4.88589 9.38336 5.09523 9.74718Z" fill="#668A22"/>
<path fill-rule="evenodd" clip-rule="evenodd" d="M5.25933 9.63526C5.37768 9.84081 5.56852 9.9421 5.68611 9.86191C5.8037 9.78171 5.80293 9.54958 5.68495 9.34446C5.56698 9.13892 5.37576 9.03761 5.25817 9.1178C5.14058 9.198 5.14135 9.42972 5.25933 9.63526Z" fill="#979797"/>
<path d="M9.33178 11.708C9.30981 11.708 9.2886 11.6974 9.27395 11.6772L8.13625 10.1062C8.07803 10.0252 7.98782 10.0277 7.83168 10.0636L6.12261 10.446C5.99346 10.4751 5.79838 10.5194 5.6727 10.3455L5.24052 9.74663C5.21507 9.71159 5.22085 9.66095 5.25285 9.6331L5.38625 9.51744C5.41825 9.48959 5.46451 9.49592 5.48996 9.53053C5.5154 9.56556 5.51 9.61664 5.478 9.6445L5.40244 9.71033L5.78913 10.2459C5.84657 10.3261 5.93679 10.3232 6.09293 10.2877L7.80237 9.90533C7.93153 9.8762 8.12661 9.8323 8.25229 10.0066L9.38961 11.5771C9.41505 11.6122 9.40966 11.6632 9.37766 11.6911C9.36417 11.7016 9.34797 11.708 9.33178 11.708Z" fill="#666666"/>
<path fill-rule="evenodd" clip-rule="evenodd" d="M21.6787 46.8695C21.2585 47.1941 21.5141 48.1691 21.9571 48.3328C22.9629 48.7051 23.7205 49.1677 24.3844 49.4036C24.6196 49.4872 25.1794 49.564 25.4161 49.0866C25.4747 48.9026 25.1057 48.2248 25.1057 48.2248C23.9237 48.3649 22.2019 46.5538 21.6787 46.8695Z" fill="#9B9B9A"/>
<path fill-rule="evenodd" clip-rule="evenodd" d="M23.0571 46.9472C22.537 47.0911 22.0944 46.691 21.9206 46.7214C21.7818 46.7438 21.5898 46.9003 21.5497 47.1375C21.4822 47.5339 21.6823 47.9319 22.0054 48.1083C22.3524 48.2978 22.7483 48.2109 23.3362 48.4704C23.6593 48.6131 24.4504 49.1175 24.7484 49.1221C25.0476 49.1272 25.3013 48.9136 25.3306 48.6705C25.309 47.2009 24.0541 46.6716 23.0571 46.9472Z" fill="#3E3E3D"/>
<path fill-rule="evenodd" clip-rule="evenodd" d="M22.0859 40.7677C22.0007 40.4929 21.6522 39.4306 21.6044 39.0453C20.5546 34.6085 20.3318 33.2098 20.6641 30.4558C21.5057 30.1447 23.514 31.0906 24.2719 30.2612C25.8349 31.9731 23.8551 38.1551 24.3274 40.3047C23.987 40.931 22.8362 41.4865 22.0859 40.7677Z" fill="#314A8D"/>
<path fill-rule="evenodd" clip-rule="evenodd" d="M25.268 48.1643C24.5502 48.9021 23.7968 48.6598 23.3623 47.6131C23.3454 45.9464 22.5597 42.7492 22.0369 40.6068C21.7308 39.2836 23.6719 38.5927 24.3447 40.305C25.177 42.2077 25.1855 47.3919 25.268 48.1643Z" fill="#314A8D"/>
<path fill-rule="evenodd" clip-rule="evenodd" d="M17.4585 48.5815C17.0383 48.906 17.2939 49.881 17.7369 50.0448C18.7427 50.417 19.5007 50.8796 20.1642 51.1155C20.3994 51.1991 20.9591 51.2759 21.1955 50.7986C21.2545 50.6145 20.8851 49.9367 20.8851 49.9367C19.7031 50.0768 17.9817 48.2658 17.4585 48.5815Z" fill="#9B9B9A"/>
<path fill-rule="evenodd" clip-rule="evenodd" d="M18.8364 48.6596C18.3132 48.7913 17.8737 48.4034 17.6999 48.4338C17.5611 48.4562 17.3691 48.6128 17.329 48.8496C17.2615 49.2459 17.4616 49.6439 17.7851 49.8203C18.132 50.0094 18.528 49.9229 19.1159 50.182C19.439 50.3247 20.2301 50.8291 20.5281 50.8337C20.8273 50.8388 21.081 50.6252 21.1103 50.3821C21.0883 48.9133 19.9965 48.368 18.8364 48.6596Z" fill="#3E3E3D"/>
<path fill-rule="evenodd" clip-rule="evenodd" d="M18.9067 41.8759C18.8547 41.5944 18.7263 40.9554 18.7251 40.5692C18.2132 36.0645 18.3454 33.6094 19.0104 30.9318C19.8883 30.7267 22.402 31.5505 23.259 30.8237C25.0351 33.2873 20.9358 38.5425 21.3649 41.6928C20.9493 42.2706 19.5691 42.6762 18.9067 41.8759Z" fill="#4165BD"/>
<path fill-rule="evenodd" clip-rule="evenodd" d="M21.0206 49.615C20.1994 50.2616 19.5829 49.797 19.3131 48.7038C19.5498 47.0451 19.0532 43.7872 18.8628 41.5945C18.7614 40.2427 20.9597 39.9105 21.3637 41.6933C21.5877 43.3575 21.0564 48.8376 21.0206 49.615Z" fill="#4165BD"/>
<path fill-rule="evenodd" clip-rule="evenodd" d="M25.0724 19.1928C24.0854 18.4209 22.7311 20.1817 23.7126 22.3081C23.7462 22.36 25.2868 26.3329 26.4715 28.057C26.9808 28.4525 28.0711 28.0199 27.9088 26.9077C27.7044 25.5128 27.3147 20.9465 25.0724 19.1928Z" fill="#DE7E32"/>
<path fill-rule="evenodd" clip-rule="evenodd" d="M21.364 20.3002C21.221 20.3436 20.3558 20.7944 19.7243 21.6875C19.2628 22.3455 19.2879 23.8151 19.306 24.0093C19.3635 24.6348 19.2251 27.7121 19.082 30.515C19.3531 31.4423 23.3626 31.2549 24.5786 30.1318C24.5897 28.8841 25.2394 26.1998 25.3608 25.5025C25.4815 24.8036 26.0467 20.9814 25.2077 19.7038C25.0146 19.4092 24.3592 19.1019 24.0604 19.1399C22.994 19.272 21.5417 20.2461 21.364 20.3002Z" fill="#CB6117"/>
<path fill-rule="evenodd" clip-rule="evenodd" d="M20.4663 20.8812C21.3611 20.5537 22.9341 22.5817 23.6331 25.9033C23.9947 26.0359 24.088 25.6087 24.45 25.4998C23.8586 22.7514 22.5833 20.0818 21.3646 20.2996C20.8738 20.5119 20.8461 20.4874 20.4663 20.8812Z" fill="#4165BD"/>
<path fill-rule="evenodd" clip-rule="evenodd" d="M23.9922 19.1489C24.9082 19.1173 24.8431 20.4134 24.8384 21.2732C24.8307 22.6884 24.4606 24.2812 24.0442 25.6774C24.3534 25.8099 24.4367 25.3398 24.8419 25.2309C25.3358 23.9883 25.3797 22.6833 25.5204 21.4618C25.6669 20.1872 25.2714 19.1409 24.4286 18.9991C24.2729 18.9738 23.9922 19.1489 23.9922 19.1489Z" fill="#4165BD"/>
<path fill-rule="evenodd" clip-rule="evenodd" d="M22.4619 31.1175C23.0256 29.5824 23.6551 27.7886 23.6316 25.7855C24.0453 25.5665 24.459 25.347 24.873 25.1279C24.9609 26.3561 24.858 28.5007 24.5789 30.1307C23.9628 30.971 23.2465 31.2394 22.4619 31.1175Z" fill="#314A8D"/>
<path fill-rule="evenodd" clip-rule="evenodd" d="M18.9883 31.0205C19.7721 31.7684 23.5025 32.4391 24.5542 30.8403C24.5419 30.6542 24.5912 30.3169 24.5793 30.1304C23.3876 31.0788 20.4097 31.3349 19.0827 30.5136C19.0511 30.6824 19.0195 30.8513 18.9883 31.0205Z" fill="#314A8D"/>
<path fill-rule="evenodd" clip-rule="evenodd" d="M21.2225 21.1314C23.7235 23.9892 16.7129 25.2182 15.5367 25.3014C14.6947 25.2887 14.7055 23.9571 15.6265 23.454C17.5411 22.4917 20.2552 20.0264 21.2225 21.1314Z" fill="#DE7E32"/>
<path fill-rule="evenodd" clip-rule="evenodd" d="M14.9226 18.4779C14.8809 18.2761 14.8181 18.0508 14.746 17.9419C14.611 17.7389 14.5081 17.6122 14.4063 17.3784C14.2602 17.5135 14.2201 17.7085 14.4418 18.1099C14.64 18.694 14.3751 18.7843 14.7009 19.0553C14.8108 19.1464 14.8867 19.3132 14.9256 19.1511C14.995 18.8438 14.9804 18.7598 14.9226 18.4779Z" fill="#D99E72"/>
<path fill-rule="evenodd" clip-rule="evenodd" d="M13.3422 19.1561C13.2119 19.0084 13.1895 18.9502 13.1764 18.9016C13.1595 18.8388 13.1579 18.7307 13.2238 18.7193C13.161 18.6024 13.193 18.3876 13.2728 18.3656C13.2408 18.2538 13.1818 18.1086 13.3376 17.9773C13.3873 17.9355 13.4918 17.8207 13.5122 17.8376C13.7 18.258 13.5411 18.8493 13.3422 19.1561Z" fill="#D99E72"/>
<path fill-rule="evenodd" clip-rule="evenodd" d="M14.9231 19.2482C15.0287 18.9503 15.0094 18.7295 14.893 18.5425C14.4712 17.8153 13.8733 17.8503 13.7094 17.7959C13.5317 17.7566 13.492 17.6908 13.475 17.9124C13.2522 18.1276 13.3208 18.2298 13.4187 18.445C13.3243 18.4771 13.2526 18.7426 13.3748 18.9194C13.2842 19.0621 13.3069 19.1474 13.4326 19.2655C13.7954 19.5682 14.0159 19.6256 14.2989 19.729C14.8895 19.9455 14.9408 19.6779 14.9231 19.2482Z" fill="#ECC19A"/>
<path fill-rule="evenodd" clip-rule="evenodd" d="M13.5751 18.1276L12.8958 17.9047C12.6891 17.8368 12.7774 17.5713 12.9883 17.6215L13.6691 17.7844C13.88 17.8351 13.7821 18.1955 13.5751 18.1276Z" fill="#ECC19A"/>
<path fill-rule="evenodd" clip-rule="evenodd" d="M15.1896 24.9537C14.4775 24.4354 14.0774 21.0281 14.139 19.802C14.3889 19.3601 15.0069 19.1465 15.1129 19.5931C15.291 20.0303 16.3624 22.9092 16.7263 24.2088C16.7942 25.1614 15.9198 25.0457 15.1896 24.9537Z" fill="#DE7E32"/>
<path fill-rule="evenodd" clip-rule="evenodd" d="M20.1851 16.4468L20.4152 17.4652L21.2626 17.2107L20.9985 16.1636L20.1851 16.4468Z" fill="#C4C4C4"/>
<path d="M20.7274 17.2866L21.1708 17.1536C21.096 16.8582 21.0216 16.5623 20.9472 16.2669C20.8751 16.2829 20.8042 16.2973 20.7274 16.32V16.1453C20.8369 16.112 20.9429 16.0866 21.0497 16.0601C21.1511 16.4627 21.2529 16.8654 21.3543 17.2676L20.727 17.4558L20.7274 17.2866ZM20.2841 16.5454C20.3153 16.8455 20.3685 17.1262 20.4691 17.3642L20.7274 17.2866L20.727 17.4558L20.399 17.5546C20.2914 17.2743 20.1734 16.8573 20.106 16.4365C20.3373 16.2842 20.5374 16.2027 20.7274 16.1453V16.32C20.6033 16.3572 20.4653 16.4171 20.2841 16.5454Z" fill="#222221"/>
<path fill-rule="evenodd" clip-rule="evenodd" d="M20.7323 17.6886C20.5202 17.8304 20.5106 18.0549 20.5206 18.1752C20.6247 19.4215 21.3511 20.283 21.6391 19.0408C21.7624 18.5086 22.087 18.0418 21.6071 17.6957C21.2439 17.434 20.7789 17.6869 20.7323 17.6886Z" fill="#4D4D4D"/>
<path fill-rule="evenodd" clip-rule="evenodd" d="M20.8 15.2121C20.7063 15.4889 20.5937 15.7667 20.5374 16.0545C20.4977 16.2558 20.4796 16.3157 20.5513 16.4951C20.6608 16.7712 20.7263 16.8286 20.5393 17.051C20.357 17.2675 20.5914 17.9703 20.6789 18.2952C20.7479 18.5514 20.7849 18.8515 20.9966 19.0047C21.524 19.3871 22.115 19.1575 22.6451 18.9503C23.1702 18.7477 24.1992 17.2848 24.3611 16.8066C24.4783 15.8266 24.2478 14.9791 22.7546 14.3844C22.1069 14.1265 21.0348 14.5186 20.8 15.2121Z" fill="#ECC19A"/>
<path fill-rule="evenodd" clip-rule="evenodd" d="M21.4529 17.9421C21.4529 17.9421 21.3773 19.1247 21.641 20.1938C22.4757 19.9819 23.5101 20.5475 24.2781 19.768C24.1323 19.4506 23.7152 18.5562 23.8266 17.2132C23.8617 16.7903 21.5103 16.7358 21.4529 17.9421Z" fill="#D99E72"/>
<path fill-rule="evenodd" clip-rule="evenodd" d="M21.0898 16.6411C21.128 16.7597 21.2988 16.937 21.015 17.2016C20.6091 17.5604 21.0401 18.4729 21.2976 18.058C21.4202 17.86 21.357 17.1168 21.4395 17.0535C21.687 16.8623 21.9469 17.5376 22.2191 18.088C22.6451 18.9502 23.7485 18.5788 23.8248 18.5155C24.2242 18.185 24.5739 17.7723 24.6001 17.1138C24.6306 16.3486 24.8704 15.4999 24.3719 14.8414C23.5129 13.7069 21.6974 13.2768 20.5331 14.7912C19.9332 15.5712 20.8693 15.9574 21.0898 16.6411Z" fill="#4D4D4D"/>
<path fill-rule="evenodd" clip-rule="evenodd" d="M21.8372 17.0374L20.1475 16.4385L20.218 16.7504L21.823 17.2522L21.9637 17.8739L22.286 17.9735L21.8372 17.0374Z" fill="#363636"/>
<path fill-rule="evenodd" clip-rule="evenodd" d="M21.9585 17.4014C21.9142 17.7501 21.6952 18.2376 21.5595 18.2084C21.214 18.0759 21.3806 17.8235 21.4241 17.4753C21.4693 17.1275 21.3871 16.9148 21.5209 16.884C21.7731 16.8283 22.0024 17.0515 21.9585 17.4014Z" fill="#ECC19A"/>
</svg>
