<svg width="46" height="56" viewBox="0 0 46 56" fill="none" xmlns="http://www.w3.org/2000/svg">
<path opacity="0.4" d="M22.9999 54.1639C35.2499 54.1639 45.1805 48.3994 45.1805 41.2885C45.1805 34.1776 35.2499 28.4131 22.9999 28.4131C10.7499 28.4131 0.819336 34.1776 0.819336 41.2885C0.819336 48.3994 10.7499 54.1639 22.9999 54.1639Z" fill="#D2D2E1"/>
<path fill-rule="evenodd" clip-rule="evenodd" d="M22.8107 7.15242C24.3139 7.40529 25.9483 7.45587 27.69 7.3431C28.2756 6.87631 28.5778 5.71543 27.9878 5.47012C27.3645 5.21086 23.7601 4.42086 22.7714 4.41504C21.4407 4.41156 22.5993 5.94679 22.8107 7.15242Z" fill="#CB6117"/>
<path fill-rule="evenodd" clip-rule="evenodd" d="M14.1283 8.38136C14.9609 11.9744 22.1224 7.65647 22.8105 7.15248C23.6675 5.9451 23.3564 5.05687 22.7712 4.41452C20.8469 4.33023 12.7105 4.83771 14.1283 8.38136Z" fill="#DE7E32"/>
<path fill-rule="evenodd" clip-rule="evenodd" d="M17.5611 35.3347C17.5611 35.3347 18.0072 37.2978 17.1358 36.8717C16.7652 36.6909 16.7986 37.5984 16.8469 37.8977C16.9117 38.3017 17.4268 38.6238 17.9503 38.89C18.5636 39.1295 19.272 39.8945 19.495 40.0712C20.1062 40.5555 21.4496 40.5194 22.0783 40.2753C22.4447 40.1329 22.6804 39.8835 22.613 39.5684C22.5689 39.4597 22.5976 39.4173 22.4531 39.2981C22.3061 39.1772 21.337 38.3628 20.9308 38.121C19.8927 37.503 19.4738 36.2753 19.384 35.9951C19.2916 35.7149 18.9937 34.8598 18.9937 34.8598C18.9937 34.8598 18.5238 34.6848 17.5611 35.3347Z" fill="#979796"/>
<path fill-rule="evenodd" clip-rule="evenodd" d="M10.8012 7.29075C10.5958 7.33842 8.10381 8.72949 7.04607 9.83339C6.33614 10.7147 6.50287 12.4458 6.51243 12.7196C6.54004 13.609 7.88185 21.2346 8.17337 22.8623C8.64701 26.1792 14.7582 28.8247 15.7214 24.2539C15.2441 21.7903 16.4611 16.5347 16.5806 12.3545C16.6092 11.3489 17.4238 8.24351 16.048 6.91057C15.697 6.56934 14.9881 6.34903 14.5612 6.37228C13.041 6.45425 11.0572 7.23262 10.8012 7.29075Z" fill="#CB6117"/>
<path fill-rule="evenodd" clip-rule="evenodd" d="M17.3519 35.081C17.4485 35.9983 16.7317 35.832 16.9149 37.4457C16.9823 38.0422 18.0161 38.3811 18.4229 38.6322C19.0006 38.9885 19.1073 39.2559 19.3627 39.5873C19.598 39.8931 19.9431 40.0308 20.3913 40.0977C21.4341 40.2529 22.6628 40.0878 22.529 39.1036C22.477 38.724 21.1208 38.0759 20.6536 37.7724C19.5534 37.1004 19.5433 35.5408 19.4535 35.2606C19.3611 34.9804 18.9937 34.8601 18.9937 34.8601C18.9937 34.8601 18.3146 34.4311 17.3519 35.081Z" fill="#3E3E3D"/>
<path fill-rule="evenodd" clip-rule="evenodd" d="M21.1908 27.7395C22.762 24.2167 25.3995 25.7025 25.4515 26.0141C25.0846 28.7474 20.4395 35.2151 19.874 36.6933C19.6568 38.142 16.8027 37.3903 16.8224 36.9131C17.7224 32.4265 19.2899 29.4282 21.1908 27.7395Z" fill="#314A8D"/>
<path fill-rule="evenodd" clip-rule="evenodd" d="M12.4862 29.073C15.4061 30.5181 18.2342 27.629 20.9486 27.9633C21.4015 27.8807 21.5853 26.8251 23.5595 27.2593C24.7707 27.5255 26.0031 25.9659 25.2114 25.3468C22.6287 23.3279 18.2575 23.0541 15.4751 22.7373C15.4751 22.7373 12.7591 22.9071 11.4619 25.266C11.8182 25.645 12.2956 28.9782 12.4862 29.073Z" fill="#314A8D"/>
<path fill-rule="evenodd" clip-rule="evenodd" d="M27.3434 45.0859C24.5244 44.793 22.1429 43.5356 21.4229 41.7987L24.1628 20.9541L27.6854 23.0497L27.3434 45.0859Z" fill="#CFDAE5"/>
<path fill-rule="evenodd" clip-rule="evenodd" d="M33.3165 41.3257L27.3413 45.0803L27.6827 23.0493L33.0601 19.519L33.5088 19.9091V40.9623C33.5088 41.1164 33.4387 41.2489 33.3165 41.3257Z" fill="#E5EBF2"/>
<path fill-rule="evenodd" clip-rule="evenodd" d="M33.5088 24.9448L27.6196 28.6762L27.6807 23.1817L33.1138 19.5659L33.5088 19.9095V24.9448Z" fill="#BCCCDD"/>
<path fill-rule="evenodd" clip-rule="evenodd" d="M6.48207 30.2065C5.26238 30.0844 5.47 28.9201 4.47439 29.2939C3.95561 29.4892 3.91154 31.3889 3.84994 31.8958C3.76233 32.6155 3.57595 32.8236 3.38957 33.2067C3.21806 33.5589 3.22922 33.9618 3.33913 34.4419C3.59507 35.5592 4.25615 36.9288 5.04095 36.4265C5.34362 36.2329 5.32504 34.4315 5.4084 33.8438C5.85709 28.2609 7.06828 34.7204 6.48207 30.2065Z" fill="#979796"/>
<path fill-rule="evenodd" clip-rule="evenodd" d="M6.48236 30.2066C5.73313 29.9136 5.70287 29.0184 4.70779 29.3928C4.18848 29.5881 4.14493 31.4878 4.08334 31.9947C3.99572 32.7144 3.80935 32.9225 3.62297 33.305C3.45146 33.6578 3.46261 34.0601 3.57253 34.5403C3.82847 35.6575 4.4253 36.8452 5.21063 36.3429C5.5133 36.1493 5.55843 34.5298 5.64233 33.9421C5.76127 32.4592 7.20929 32.0895 7.41372 31.8942C7.61709 31.6959 7.49496 31.1722 7.49496 31.1722C7.49496 31.1722 7.39142 30.9431 6.48236 30.2066Z" fill="#3E3E3D"/>
<path fill-rule="evenodd" clip-rule="evenodd" d="M13.6956 36.6658C14.6275 38.6242 15.5153 41.1087 13.7301 40.4704C12.4345 39.7013 6.81664 33.7034 5.28313 32.7919C4.17124 31.1549 5.63412 29.3872 6.56548 30.0917C9.61178 32.6925 11.4156 32.6757 13.6956 36.6658Z" fill="#314A8D"/>
<path fill-rule="evenodd" clip-rule="evenodd" d="M12.9089 39.2213C13.5233 41.3105 16.0211 41.4547 16.2966 39.0266C16.5828 36.5077 16.029 31.0684 15.1433 27.5922C15.5102 25.9709 14.8274 24.7915 14.4228 23.0952C10.7871 25.7541 9.0709 23.9213 8.17565 23.1545C7.02924 25.6506 11.5326 34.5394 12.9089 39.2213Z" fill="#4165BD"/>
<path fill-rule="evenodd" clip-rule="evenodd" d="M8.02441 23.7015C9.07684 25.0002 13.3274 25.31 15.6123 22.7528C15.5937 22.4686 15.6702 22.2139 15.651 21.9297C13.8329 23.3766 10.2466 24.2218 8.16778 22.929C8.11999 23.1859 8.0722 23.444 8.02441 23.7015Z" fill="#314A8D"/>
<path fill-rule="evenodd" clip-rule="evenodd" d="M12.771 7.20473C14.2673 6.7048 15.5295 9.23117 15.2629 14.2996C15.7621 14.5019 15.9161 13.9299 16.5118 13.7642C16.712 9.57008 16.1566 7.15009 14.0151 6.52344C13.1815 6.84723 13.5085 6.60366 12.771 7.20473Z" fill="#314A8D"/>
<path fill-rule="evenodd" clip-rule="evenodd" d="M10.0503 23.5309C10.9578 21.3336 11.4181 17.8696 10.8202 13.8487C13.2331 13.6196 15.1229 12.4349 16.5199 10.895C16.565 13.6208 16.4073 19.8727 15.9799 21.7725C15.1924 23.2007 12.162 24.2529 10.0503 23.5309Z" fill="#314A8D"/>
<path fill-rule="evenodd" clip-rule="evenodd" d="M7.53564 9.381C8.90082 8.88107 10.1879 9.96812 11.0306 14.8162C11.5829 15.0185 12.4224 15.9213 12.9746 15.7556C12.0719 11.5615 10.8703 8.01434 9.01074 8.34627C8.26204 8.67006 8.11549 8.78051 7.53564 9.381Z" fill="#314A8D"/>
<path fill-rule="evenodd" clip-rule="evenodd" d="M10.7584 5.39844C10.708 6.16925 10.6448 7.21328 10.246 7.84923C10.2067 8.45031 10.6676 8.97406 11.3372 9.34843C12.7809 10.1559 13.845 9.3897 13.5891 8.44507C13.5578 8.09687 13.1388 7.74809 13.0512 7.40221C12.9556 7.01797 12.2876 7.02726 12.3137 6.63372L10.7584 5.39844Z" fill="#D99E72"/>
<path fill-rule="evenodd" clip-rule="evenodd" d="M15.0782 2.49692C15.0548 2.95034 15.1812 3.38342 15.2566 3.82754C15.3713 4.19318 15.1021 4.36292 15.0904 4.69834C15.0861 4.82971 15.2268 5.00876 15.2343 5.19129C15.2555 5.70865 15.136 6.519 14.9884 7.01253C14.9104 7.37991 14.8472 7.91995 14.3024 8.27455C13.4794 8.83609 12.6553 7.94088 11.8524 7.60139C11.0559 7.26598 11.4435 6.1801 11.2131 5.43951C10.1277 1.93073 14.3465 0.142042 15.0782 2.49692Z" fill="#ECC19A"/>
<path fill-rule="evenodd" clip-rule="evenodd" d="M10.002 4.70752L10.0222 4.7811C10.0148 4.75599 10.0078 4.73147 10.002 4.70752Z" fill="#262424"/>
<path fill-rule="evenodd" clip-rule="evenodd" d="M12.3304 4.38521C12.101 4.49683 12.0447 4.52124 11.9677 4.84096C11.9019 5.11127 11.7224 5.12464 11.7516 5.6792C11.7426 5.76291 10.6954 4.83863 10.7443 5.56585C10.7985 6.37212 10.5245 7.18131 10.4055 7.53474C9.677 7.30512 9.94834 5.29671 9.91807 4.7898C9.66797 3.59987 9.99719 2.23146 10.5043 1.77979C11.9873 1.94953 12.2985 1.95651 12.8396 2.8802C12.9383 3.34525 12.6261 4.24163 12.3304 4.38521Z" fill="#643F42"/>
<path fill-rule="evenodd" clip-rule="evenodd" d="M10.6729 5.35351C10.769 5.85402 11.0096 6.22082 11.2092 6.17316C11.4094 6.12723 11.4391 5.67033 11.4954 5.24772C11.6202 4.63792 11.1365 4.29727 10.8614 4.36877C10.6618 4.42051 10.5768 4.85591 10.6729 5.35351Z" fill="#ECC19A"/>
<path fill-rule="evenodd" clip-rule="evenodd" d="M15.114 6.56471C15.0354 6.40717 15.0025 6.27057 14.6085 6.31881C14.5325 6.32695 14.4603 6.34207 14.3913 6.363V7.01581C14.4428 6.9943 14.4986 6.97627 14.558 6.9629C15.1453 6.83269 14.7954 7.45179 14.5384 7.22915C14.5118 7.28147 14.4571 7.33203 14.3908 7.37505V9.37068C14.4184 9.35499 14.446 9.33871 14.4731 9.32128C15.0126 8.97714 15.3402 7.01813 15.114 6.56471ZM14.3918 6.363C14.0212 6.47693 13.7392 6.77282 13.4222 7.19659C13.0654 7.67385 12.7473 6.93326 12.425 6.32987C12.2259 5.95608 11.7703 6.0642 11.7523 5.44744L11.4958 5.24805C11.2967 6.07874 11.1974 6.66004 11.2213 7.08847C11.319 8.87367 13.0266 10.1508 14.3918 9.37068V7.37505C14.1486 7.53259 13.7456 7.59305 13.967 7.33204C14.0562 7.2274 14.1959 7.09719 14.3918 7.01581V6.363Z" fill="#643F42"/>
<path fill-rule="evenodd" clip-rule="evenodd" d="M10.5044 1.78007C10.6265 0.733132 12.8524 0.472708 14.3424 1.179C14.9987 1.35165 15.364 1.28014 15.7506 0.866833C16.1387 2.07421 15.9911 3.07406 14.6132 3.44261C14.3387 2.6096 13.3664 3.20893 12.6337 2.76539C12.0039 2.46485 11.1336 2.08119 10.5044 1.78007Z" fill="#643F42"/>
<path fill-rule="evenodd" clip-rule="evenodd" d="M27.9084 7.23972C27.585 7.27285 27.5537 5.83702 28.0501 5.77017C28.913 5.88178 29.1567 5.37488 29.5778 5.39929C29.7642 5.40336 30.6892 5.50567 31.0152 5.70912C31.3072 5.82539 30.9265 6.39216 30.5894 6.24684C30.7417 6.37589 30.9441 6.26776 31.4097 6.61655C31.3853 6.84035 30.0913 7.02172 31.3465 7.61001C30.6414 8.06808 30.1322 8.09249 30.0371 8.08203C29.7849 8.05354 29.0766 7.97449 28.7787 7.43968C28.6608 7.22925 28.6422 7.16415 27.9084 7.23972Z" fill="#D99E72"/>
<path fill-rule="evenodd" clip-rule="evenodd" d="M28.4263 5.20225C28.6519 4.78196 28.6992 4.82498 29.0624 4.76336C29.4213 4.7029 29.7251 4.51456 29.8297 4.58083C29.9242 4.9238 29.6221 5.27258 29.1463 5.45628C28.3047 6.8892 27.9749 5.73531 28.4263 5.20225Z" fill="#D99E72"/>
<path fill-rule="evenodd" clip-rule="evenodd" d="M37.39 19.8791L27.4828 26.1555C27.3506 26.2392 27.2083 26.2578 27.0617 26.2113L26.9231 26.1671L25.8936 22.7786L26.7538 22.7536L37.7309 15.4478V19.2344C37.7315 19.5076 37.6067 19.7425 37.39 19.8791Z" fill="#CFDAE5"/>
<path fill-rule="evenodd" clip-rule="evenodd" d="M37.363 16.0905L26.7554 22.7569C26.4697 22.9365 26.1426 22.9359 25.8575 22.7552L12.9358 14.5581C12.8025 14.4733 12.726 14.3279 12.7266 14.1593C12.7271 13.9902 12.8036 13.8454 12.9379 13.7617L23.5657 7.10924C24.1031 6.77324 24.7164 6.77964 25.2521 7.11913L37.3688 14.8005C37.5855 14.9377 37.7086 15.1737 37.7076 15.4475C37.706 15.7207 37.5801 15.955 37.363 16.0905Z" fill="url(#paint0_linear_1195_22799)"/>
<path fill-rule="evenodd" clip-rule="evenodd" d="M33.6721 16.8618L26.2558 21.5268C26.046 21.6587 25.806 21.6581 25.5968 21.5256L14.6308 14.5691C14.5734 14.5331 14.541 14.4709 14.541 14.3982C14.5415 14.3261 14.5739 14.2639 14.6318 14.2279L22.2744 9.44254C22.7178 9.16468 23.2249 9.17048 23.6672 9.45068L33.6764 15.7957C33.8548 15.909 33.9573 16.1037 33.9562 16.3299C33.9557 16.5566 33.8521 16.7502 33.6721 16.8618Z" fill="#BCCCDD"/>
<path fill-rule="evenodd" clip-rule="evenodd" d="M18.0669 16.5274L22.5485 13.7656C22.961 13.5116 23.4294 13.5133 23.8388 13.7732L31.0374 18.3364L26.2866 21.3249C26.0769 21.4569 25.8369 21.4563 25.6277 21.3238L18.0669 16.5274Z" fill="#F2F4F6"/>
<path fill-rule="evenodd" clip-rule="evenodd" d="M26.4149 16.1113C27.3192 16.1113 28.0525 16.5374 28.0525 17.0623C28.0525 17.5873 27.3192 18.0128 26.4149 18.0128C25.5106 18.0128 24.7773 17.5873 24.7773 17.0623C24.7773 16.5368 25.5106 16.1113 26.4149 16.1113Z" fill="#D7DFE9"/>
<path fill-rule="evenodd" clip-rule="evenodd" d="M26.4146 16.4478C27.1426 16.4478 27.7331 16.7907 27.7331 17.2133C27.7331 17.6359 27.1426 17.9789 26.4146 17.9789C25.6866 17.9789 25.0962 17.6359 25.0962 17.2133C25.0962 16.7901 25.6866 16.4478 26.4146 16.4478Z" fill="#9B9B9A"/>
<path fill-rule="evenodd" clip-rule="evenodd" d="M26.3272 7.69775C26.7026 7.69775 27.0068 7.87447 27.0068 8.09246C27.0068 8.31045 26.7021 8.48717 26.3272 8.48717C25.9518 8.48717 25.647 8.31045 25.647 8.09246C25.647 7.87447 25.9518 7.69775 26.3272 7.69775Z" fill="#4D4D4D"/>
<path fill-rule="evenodd" clip-rule="evenodd" d="M29.9514 12.578C29.2255 12.3879 28.8098 12.0943 28.5767 11.7322V7.95947L29.9514 8.46172V12.578Z" fill="#6C6D6D"/>
<path fill-rule="evenodd" clip-rule="evenodd" d="M31.1297 7.62821C30.8626 6.63126 29.7279 6.11738 29.0052 6.20923C27.3623 6.23539 26.338 6.51268 25.2681 7.11433C25.2686 7.12014 25.2686 7.12595 25.2686 7.13235C25.5192 7.49159 25.7699 7.85027 26.0205 8.20952C27.7239 7.9177 29.4268 7.92003 31.1297 7.62821Z" fill="#CACACA"/>
<path fill-rule="evenodd" clip-rule="evenodd" d="M31.1291 7.62871C30.3687 7.05555 27.9516 6.96603 26.4086 7.83741C26.3507 8.06238 26.1489 8.39023 26.374 8.48789C27.787 8.02458 29.8727 8.39779 29.9513 9.34823V12.5762L31.0861 11.8647C31.1137 11.8473 31.1296 11.8176 31.1296 11.7827C31.1296 10.2998 31.1301 9.11105 31.1291 7.62871Z" fill="#979797"/>
<path fill-rule="evenodd" clip-rule="evenodd" d="M26.4123 8.43082C26.4107 8.12621 26.4097 8.14132 26.4081 7.83672C26.0629 7.42167 25.6987 7.1002 25.2686 7.11473C25.2701 7.42573 25.2723 7.41759 25.2744 7.72859C25.2744 7.78382 25.2999 7.83091 25.3434 7.85823C25.6721 8.06634 26.0008 8.27503 26.3295 8.48313C26.347 8.49418 26.3677 8.49418 26.3852 8.48313C26.4022 8.47209 26.4123 8.45291 26.4123 8.43082Z" fill="#6C6D6D"/>
<path fill-rule="evenodd" clip-rule="evenodd" d="M29.6037 6.10341C29.7896 6.15107 29.9632 6.22083 30.1114 6.30221L30.5893 6.42545V6.82365V6.82597L30.5898 6.83644C30.5898 7.10151 30.148 7.20207 29.6037 7.06198C29.0595 6.92188 28.6177 6.59403 28.6177 6.32895L28.6182 6.31849H28.6177V5.91797L29.0961 6.0412C29.2448 6.03539 29.4184 6.05516 29.6037 6.10341Z" fill="#6C6D6D"/>
<path fill-rule="evenodd" clip-rule="evenodd" d="M30.5896 6.81154C30.5896 6.51275 30.5891 6.47032 30.5891 6.17211C30.1133 5.75066 28.601 5.67974 27.6357 6.09828C27.6038 6.28546 27.5715 6.00178 27.5391 6.18896C27.564 6.20291 27.5784 6.21861 27.6038 6.23257C27.9246 6.17502 30.0905 6.26162 30.5896 6.81154Z" fill="#979797"/>
<path fill-rule="evenodd" clip-rule="evenodd" d="M30.5894 6.17205C30.2549 5.72095 29.7138 5.37507 29.2603 5.29369C28.2323 5.1751 27.5919 5.26405 26.9224 5.55238C26.9287 5.70352 27.5277 5.92964 27.6355 6.09822C28.6141 5.84942 29.5789 5.90348 30.5894 6.17205Z" fill="#CACACA"/>
<path fill-rule="evenodd" clip-rule="evenodd" d="M27.6376 6.19827C27.6366 6.00818 27.6361 6.28779 27.635 6.09712C27.4189 5.8088 27.1821 5.57917 26.9219 5.55127C26.9251 5.61231 26.9251 5.63905 26.9256 5.66463C26.9261 5.69951 26.9415 5.73089 26.9686 5.75182C27.1741 5.90936 27.3796 6.0669 27.5856 6.22385C27.5968 6.23257 27.6095 6.23373 27.6201 6.2285C27.6313 6.22385 27.6382 6.21222 27.6376 6.19827Z" fill="#6C6D6D"/>
<path fill-rule="evenodd" clip-rule="evenodd" d="M25.7178 7.16357C26.0783 7.33506 26.2668 7.48272 26.4261 7.75419C26.9677 7.42284 27.5194 7.31065 28.0733 7.22927C27.1536 7.33506 26.4936 7.42516 25.7178 7.16357Z" fill="white"/>
<path fill-rule="evenodd" clip-rule="evenodd" d="M27.0938 5.55127C27.3677 5.65532 27.5366 5.82507 27.6465 6.03202C28.1398 5.90239 28.5566 5.87273 29.0696 5.87331C28.4377 5.78961 27.517 5.78147 27.0938 5.55127Z" fill="white"/>
<path fill-rule="evenodd" clip-rule="evenodd" d="M30.5872 6.87276C30.5517 7.30351 29.5396 7.09773 29.2476 6.93787C29.3368 6.76812 29.5173 6.62803 29.8646 6.61931C30.0844 6.61408 30.4598 6.73267 30.5872 6.87276Z" fill="#979797"/>
<path fill-rule="evenodd" clip-rule="evenodd" d="M23.0168 9.49674C23.2005 9.15668 23.2074 8.85731 23.4123 8.66664C23.544 8.53584 24.8216 7.7691 25.1901 7.75224C25.4227 7.64237 25.7933 9.31712 25.6712 9.58162C25.3664 9.99144 24.3984 10.5094 24.1621 10.5425C23.8095 10.5919 23.724 10.5512 23.569 10.6239C23.4904 10.6617 22.3419 10.7477 23.0168 9.49674Z" fill="#ECC19A"/>
<path fill-rule="evenodd" clip-rule="evenodd" d="M25.6577 9.17181L26.6326 9.01137C26.8801 8.97068 26.8949 9.29098 26.6528 9.35957L25.7198 9.62407C25.4862 9.68918 25.4002 9.21367 25.6577 9.17181Z" fill="#ECC19A"/>
<path fill-rule="evenodd" clip-rule="evenodd" d="M25.3807 9.01973C25.3531 8.88894 25.4285 8.75698 25.548 8.72676L26.6806 8.44133C26.9673 8.36866 27.039 8.72559 26.7581 8.82151L25.6478 9.20285C25.531 9.24296 25.4083 9.15111 25.3807 9.01973Z" fill="#ECC19A"/>
<path fill-rule="evenodd" clip-rule="evenodd" d="M25.2463 8.57383C25.2245 8.44129 25.3021 8.3012 25.4343 8.27562L26.6922 8.0367C27.0087 7.97624 27.0867 8.36049 26.774 8.43955L25.5346 8.75171C25.4035 8.78485 25.2739 8.70521 25.2463 8.57383Z" fill="#ECC19A"/>
<path fill-rule="evenodd" clip-rule="evenodd" d="M25.2565 7.72556L26.4114 7.50815C26.7013 7.45351 26.7762 7.84414 26.4894 7.91623L25.3568 8.20165C25.0621 8.27606 24.975 7.77904 25.2565 7.72556Z" fill="#ECC19A"/>
<path fill-rule="evenodd" clip-rule="evenodd" d="M23.2397 9.40928C23.1786 9.20699 23.2498 8.86459 23.4303 8.5594C23.6109 8.25422 23.8557 7.94496 23.9401 7.82637C24.1573 7.52002 24.1843 7.59444 24.402 7.28809C24.5693 7.41365 24.7482 7.64326 24.3197 8.14958C24.2815 8.29258 24.3511 8.37688 23.9964 8.72043C24.247 9.69122 23.3459 9.8069 23.2397 9.40928Z" fill="#ECC19A"/>
<path fill-rule="evenodd" clip-rule="evenodd" d="M16.7976 16.2879C18.0895 16.4879 23.0798 12.2094 24.0488 10.7213C24.1736 9.94001 23.4212 8.87505 22.8865 9.26627C22.2785 9.56681 17.8532 12.0914 16.2342 13.1686C15.2747 14.1795 15.8806 15.5822 16.7976 16.2879Z" fill="#DE7E32"/>
<path d="M26.415 17.6734C26.8537 17.6734 27.2093 17.467 27.2093 17.2124C27.2093 16.9579 26.8537 16.7515 26.415 16.7515C25.9762 16.7515 25.6206 16.9579 25.6206 17.2124C25.6206 17.467 25.9762 17.6734 26.415 17.6734Z" fill="#4D4D4D"/>
<path fill-rule="evenodd" clip-rule="evenodd" d="M26.4149 17.0327C26.7414 17.0327 27.016 17.16 27.0988 17.3344C27.016 17.5088 26.7414 17.6373 26.4149 17.6373C26.0883 17.6373 25.8138 17.5088 25.731 17.3344C25.8138 17.1606 26.0883 17.0327 26.4149 17.0327Z" fill="#9B9B9A"/>
<path fill-rule="evenodd" clip-rule="evenodd" d="M31.4463 7.77156C31.4139 7.64076 31.3056 7.54369 31.1983 7.57915L30.5989 7.77622C30.3408 7.86109 30.4337 8.16859 30.7013 8.13488L31.296 8.06047C31.407 8.04652 31.4787 7.90293 31.4463 7.77156Z" fill="#ECC19A"/>
<path fill-rule="evenodd" clip-rule="evenodd" d="M31.4688 7.25021C31.4343 7.11012 31.309 7.01072 31.1816 7.05025L30.3962 7.29265C30.0904 7.38682 30.1679 7.75595 30.4817 7.70247L31.2857 7.56529C31.4163 7.54203 31.5034 7.39031 31.4688 7.25021Z" fill="#ECC19A"/>
<path fill-rule="evenodd" clip-rule="evenodd" d="M31.4879 6.72889C31.4534 6.5888 31.3148 6.4801 31.1789 6.53416L30.2916 6.88527C29.9656 7.01374 30.0489 7.41891 30.3829 7.31834L31.2835 7.04861C31.4226 7.00676 31.5224 6.86899 31.4879 6.72889Z" fill="#ECC19A"/>
<path fill-rule="evenodd" clip-rule="evenodd" d="M31.1901 5.8701C31.1221 5.73291 30.9777 5.6556 30.8657 5.72651L30.2418 6.12065C29.9726 6.29039 30.1515 6.60836 30.443 6.49326L31.0908 6.23748C31.2124 6.18923 31.2581 6.00729 31.1901 5.8701Z" fill="#ECC19A"/>
<path fill-rule="evenodd" clip-rule="evenodd" d="M24.8496 54.8258L24.7773 50.6369L35.1747 44.1274L34.5508 48.7552L24.8496 54.8258Z" fill="#D39F25"/>
<path fill-rule="evenodd" clip-rule="evenodd" d="M20.437 47.9395L24.7773 50.6367L24.8495 54.8256L21.097 52.5126L20.437 47.9395Z" fill="#C18B21"/>
<path fill-rule="evenodd" clip-rule="evenodd" d="M20.8506 45.5881L24.7773 48.0063L34.8056 41.7352L30.9054 39.3105L20.8506 45.5881Z" fill="#858585"/>
<path fill-rule="evenodd" clip-rule="evenodd" d="M24.7773 50.637L20.437 47.9397L20.8507 45.5889L24.7773 48.0065V50.637Z" fill="#3E3E3D"/>
<path fill-rule="evenodd" clip-rule="evenodd" d="M24.7773 50.6365L35.1747 44.127L34.8072 41.7256L24.7773 48.006V50.6365Z" fill="#585857"/>
<path fill-rule="evenodd" clip-rule="evenodd" d="M24.3906 45.3468L24.8452 44.7527V43.6982L29.8296 41.0318V42.4862L30.1938 42.7124L30.4694 40.1436L24.3906 43.7674V45.3468Z" fill="#C18B21"/>
<path fill-rule="evenodd" clip-rule="evenodd" d="M24.3901 43.7716L24.8733 44.0657L30.8927 40.3017L30.4254 40.0029L24.3901 43.7716Z" fill="#EDC52E"/>
<path fill-rule="evenodd" clip-rule="evenodd" d="M24.4232 46.3032L23.9395 46.0067L24.3903 43.771L24.8735 44.0651L24.4232 46.3032Z" fill="#C18B21"/>
<path fill-rule="evenodd" clip-rule="evenodd" d="M24.4229 46.3037L25.582 45.5974L25.5735 44.1511L30.1937 41.258V42.7124L31.2381 42.0852L30.8935 40.2959L24.8731 44.0657L24.4229 46.3037Z" fill="#D39F25"/>
<path fill-rule="evenodd" clip-rule="evenodd" d="M26.1611 49.2963L26.621 49.5805L27.804 48.8469L27.3606 48.5586L26.1611 49.2963Z" fill="#858585"/>
<path fill-rule="evenodd" clip-rule="evenodd" d="M26.3911 51.6088L26.1606 51.4652L26.1612 49.2964L26.621 49.5806L26.3911 51.6088Z" fill="#3E3E3D"/>
<path fill-rule="evenodd" clip-rule="evenodd" d="M26.3906 51.6084L27.5742 50.8667L27.8041 48.8408L26.6205 49.5802L26.3906 51.6084Z" fill="#585857"/>
<path fill-rule="evenodd" clip-rule="evenodd" d="M32.4741 45.3218L32.934 45.606L34.1165 44.8724L33.6736 44.5835L32.4741 45.3218Z" fill="#858585"/>
<path fill-rule="evenodd" clip-rule="evenodd" d="M32.7041 47.6332L32.4736 47.4902L32.4742 45.3213L32.9345 45.605L32.7041 47.6332Z" fill="#3E3E3D"/>
<path fill-rule="evenodd" clip-rule="evenodd" d="M32.7036 47.6333L33.8872 46.8916L34.1171 44.8657L32.9341 45.6051L32.7036 47.6333Z" fill="#585857"/>
<path fill-rule="evenodd" clip-rule="evenodd" d="M13.1141 42.5883L15.2072 43.9056L14.3199 44.0835L12.5958 42.9813C12.5215 42.9336 12.4939 42.8749 12.4992 42.8156V42.5732L12.7679 42.4849V42.5535C12.8804 42.5168 13.0095 42.518 13.1141 42.5883Z" fill="#3E3E3D"/>
<path fill-rule="evenodd" clip-rule="evenodd" d="M13.1089 42.3179L15.5849 43.8764L14.6928 44.0554L12.5906 42.7115C12.2758 42.5092 12.7977 42.1092 13.1089 42.3179Z" fill="#CACACA"/>
<path fill-rule="evenodd" clip-rule="evenodd" d="M14.1214 43.492L12.8544 42.6927C12.5688 42.5125 12.8831 42.3486 13.079 42.4724L14.6874 43.4873C14.4978 43.4862 14.3078 43.4891 14.1214 43.492Z" fill="#585857"/>
<path fill-rule="evenodd" clip-rule="evenodd" d="M12.7402 42.5579C12.7774 42.4748 12.9484 42.4382 13.0716 42.5161L14.6104 43.4874C14.4463 43.4874 14.2828 43.4898 14.1208 43.4921L12.8539 42.6928C12.7785 42.6451 12.745 42.5986 12.7402 42.5579Z" fill="#858585"/>
<path fill-rule="evenodd" clip-rule="evenodd" d="M14.1649 45.7619L5.65209 40.3842C5.55067 40.3203 5.43226 40.1872 5.43173 40.0383L5.43066 39.5669L14.1655 45.2451L14.1649 45.7619Z" fill="#C18B21"/>
<path fill-rule="evenodd" clip-rule="evenodd" d="M16.4147 43.7346C16.0674 44.3415 15.1637 45.0687 14.1649 45.2454L5.65255 39.8713C5.03926 39.4841 5.78902 38.786 6.66144 39.3376L13.0355 43.3638C13.4029 43.3864 13.7709 43.3515 14.1819 43.3481L13.6158 43.7166L13.8675 43.8736L14.8132 43.2684C15.4462 43.2795 15.9161 43.4509 16.4147 43.7346Z" fill="#EDC52E"/>
<path fill-rule="evenodd" clip-rule="evenodd" d="M13.6854 44.5978L5.97111 39.7235C5.55269 39.459 6.04121 39.2375 6.32741 39.4183L14.0878 44.3222C14.5063 44.5862 13.9726 44.7792 13.6854 44.5978Z" fill="#C18B21"/>
<path fill-rule="evenodd" clip-rule="evenodd" d="M14.1646 45.7618C14.9934 45.5577 15.9959 44.9503 16.4133 44.2364C16.4133 44.069 16.4138 43.9022 16.4144 43.7354C16.1064 44.2853 15.1448 45.0828 14.1646 45.2456C14.1646 45.4171 14.1646 45.5891 14.1646 45.7618Z" fill="#3E3E3D"/>
<path fill-rule="evenodd" clip-rule="evenodd" d="M15.9333 44.4297L16.853 44.9686C16.9953 45.0523 17.1068 45.2104 17.1668 45.3854H17.2098V45.6359C17.2109 45.6592 17.2109 45.6812 17.2098 45.7039V45.708H17.2093C17.2024 45.8481 17.1599 45.9754 17.0606 46.0585C16.1526 46.8194 15.6131 46.7357 15.1353 46.423L15.1422 46.4189H15.1353V46.1445L15.5845 46.1004V46.1387L16.1325 45.7923C16.2195 45.7371 16.2694 45.6423 16.27 45.5324C16.27 45.4226 16.2509 45.3057 16.1643 45.2499L15.6662 44.9308V44.6529C15.7602 44.5663 15.8547 44.5221 15.9333 44.4297Z" fill="#3E3E3D"/>
<path fill-rule="evenodd" clip-rule="evenodd" d="M16.1425 44.272L16.8365 44.7085C17.1748 44.9213 17.359 45.5305 17.0611 45.7805C16.1526 46.5414 15.6136 46.4577 15.1357 46.1449L16.1329 45.5142C16.22 45.459 16.3002 45.3422 16.3007 45.2323C16.3013 45.1224 16.2519 45.0277 16.1648 44.9719L15.6975 44.6731C15.8834 44.5341 16.0029 44.4243 16.1425 44.272Z" fill="#858585"/>
<path fill-rule="evenodd" clip-rule="evenodd" d="M6.33654 39.641L14.0428 44.5106C14.089 44.5396 14.1235 44.5681 14.148 44.5954C14.038 44.6669 13.8304 44.6611 13.677 44.5641L6.06149 39.752C5.75617 39.559 6.10185 39.4927 6.33654 39.641Z" fill="#D39F25"/>
<path fill-rule="evenodd" clip-rule="evenodd" d="M16.1386 44.9861L15.666 44.6879C15.7106 44.6536 15.7526 44.6205 15.7945 44.585L15.8349 44.6106C15.966 44.5966 16.0982 44.4827 16.0297 44.3728L16.1264 44.2705L16.643 44.5966C16.9584 44.7966 16.522 45.2279 16.1386 44.9861Z" fill="#3E3E3D"/>
<path fill-rule="evenodd" clip-rule="evenodd" d="M16.1386 44.9509L15.666 44.6527C15.7106 44.619 15.7526 44.5853 15.7945 44.5498L15.8349 44.5754C15.966 44.5615 16.0982 44.4475 16.0297 44.3377L16.1264 44.2354L16.643 44.5615C16.9584 44.7614 16.522 45.1933 16.1386 44.9509Z" fill="#CACACA"/>
<path fill-rule="evenodd" clip-rule="evenodd" d="M16.1801 44.7943L16.0304 44.3862L16.0293 44.3374L16.4058 44.5752C16.6914 44.7548 16.376 44.9181 16.1801 44.7943Z" fill="#585857"/>
<path fill-rule="evenodd" clip-rule="evenodd" d="M15.8286 44.5723C15.8998 44.5112 15.9672 44.449 16.0304 44.3862L16.3989 44.6188C16.4743 44.6664 16.5077 44.7129 16.5125 44.753C16.4754 44.8362 16.3039 44.8722 16.1801 44.7937L15.8286 44.5723Z" fill="#858585"/>
<path fill-rule="evenodd" clip-rule="evenodd" d="M14.1844 43.6733L13.8684 43.8727L13.6162 43.7157L14.1823 43.3472L14.1844 43.6733Z" fill="#3E3E3D"/>
<path fill-rule="evenodd" clip-rule="evenodd" d="M14.3571 43.1679L14.1686 43.0563C14.1107 43.022 14.0029 43.0226 13.9503 43.0563C13.7905 43.158 13.6763 43.4341 13.6954 43.673C13.6965 43.6858 13.6981 43.6986 13.6997 43.7108L13.9169 43.8416C14.0682 43.6416 14.3226 43.1539 14.3571 43.1679Z" fill="#585857"/>
<path fill-rule="evenodd" clip-rule="evenodd" d="M14.4909 43.4359C14.4723 43.1969 14.3273 43.0859 14.168 43.1876C14.0082 43.2894 13.894 43.5655 13.9126 43.8044C13.9137 43.8172 13.9153 43.83 13.9169 43.8422L14.4925 43.4789C14.493 43.4579 14.4925 43.4562 14.4909 43.4359Z" fill="#3E3E3D"/>
<path fill-rule="evenodd" clip-rule="evenodd" d="M14.4194 43.4803C14.4051 43.3001 14.2962 43.2164 14.1757 43.2931C14.0552 43.3698 13.9692 43.578 13.9835 43.7582C13.9846 43.7721 13.9862 43.7855 13.9888 43.7983L14.4205 43.521C14.421 43.5012 14.421 43.5006 14.4194 43.4803Z" fill="#858585"/>
<path fill-rule="evenodd" clip-rule="evenodd" d="M14.3898 43.4986C14.3776 43.3387 14.2805 43.2643 14.1737 43.3323C14.067 43.4003 13.9905 43.5852 14.0027 43.7451C14.0038 43.7596 14.0059 43.7735 14.0086 43.7863L14.3909 43.5387C14.3914 43.5189 14.3914 43.5183 14.3898 43.4986Z" fill="#3E3E3D"/>
<path fill-rule="evenodd" clip-rule="evenodd" d="M16.3743 45.759L15.8343 46.0991C15.6798 46.1967 15.503 46.1962 15.3485 46.0985L15.2778 46.0537L16.2012 45.4556L16.3664 45.541C16.4051 45.5614 16.429 45.6003 16.4306 45.6474C16.4327 45.6939 16.412 45.7352 16.3743 45.759Z" fill="#CACACA"/>
<path fill-rule="evenodd" clip-rule="evenodd" d="M15.2864 45.9927L15.3456 45.9822L15.4053 45.9717L15.3387 46.0149L15.272 46.0581L15.2789 46.0254L15.2864 45.9927Z" fill="#CACACA"/>
<path fill-rule="evenodd" clip-rule="evenodd" d="M15.4187 45.9063L15.4784 45.8958L15.5382 45.8853L15.471 45.9285L15.4043 45.9711L15.4118 45.939L15.4187 45.9063Z" fill="#CACACA"/>
<path fill-rule="evenodd" clip-rule="evenodd" d="M15.552 45.8203L15.6118 45.8098L15.671 45.7993L15.6043 45.8425L15.5376 45.8852L15.5451 45.853L15.552 45.8203Z" fill="#CACACA"/>
<path fill-rule="evenodd" clip-rule="evenodd" d="M15.6858 45.7344L15.745 45.7239L15.8048 45.7134L15.7381 45.756L15.6714 45.7998L15.6783 45.7671L15.6858 45.7344Z" fill="#CACACA"/>
<path fill-rule="evenodd" clip-rule="evenodd" d="M15.8181 45.648L15.8779 45.6375L15.9371 45.627L15.8704 45.6696L15.8037 45.7128L15.8112 45.6801L15.8181 45.648Z" fill="#CACACA"/>
<path fill-rule="evenodd" clip-rule="evenodd" d="M15.9514 45.562L16.0106 45.5515L16.0704 45.541L16.0037 45.5842L15.937 45.6269L15.9439 45.5942L15.9514 45.562Z" fill="#CACACA"/>
<path fill-rule="evenodd" clip-rule="evenodd" d="M16.0842 45.4761L16.144 45.4656L16.2032 45.4551L16.1365 45.4977L16.0698 45.5409L16.0773 45.5088L16.0842 45.4761Z" fill="#CACACA"/>
<path fill-rule="evenodd" clip-rule="evenodd" d="M15.5674 45.2907L15.5679 45.2901L15.5674 45.2913L15.5689 45.2919L15.5674 45.293L15.561 45.3221L15.5535 45.3541L15.4951 45.3645L15.441 45.3744L15.4351 45.3785L15.4288 45.4081L15.4213 45.4407L15.3624 45.4511L15.3077 45.461L15.3024 45.4639L15.296 45.4942L15.2886 45.5267L15.2302 45.5372L15.1749 45.5471L15.1707 45.55L15.1643 45.5802L15.1569 45.6122L15.098 45.6226L15.0422 45.6325L15.039 45.6348L15.0321 45.6656L15.0252 45.6982L14.9663 45.7087L14.9095 45.7191L14.9068 45.7209L14.8999 45.7517L14.893 45.7842L14.8341 45.7947L14.7767 45.8052L14.7751 45.8063L14.7682 45.8377L14.7613 45.8703L14.7024 45.8807L14.6434 45.8912L14.6445 45.8906L14.2383 45.6476V45.325C14.7045 45.3169 15.1309 45.1186 15.5668 44.9692L15.5674 45.2907Z" fill="#585857"/>
<path fill-rule="evenodd" clip-rule="evenodd" d="M14.6449 45.8902L14.2393 45.6472V45.3246C14.3773 45.3223 14.5122 45.3031 14.6449 45.2734V45.8902Z" fill="#858585"/>
<path fill-rule="evenodd" clip-rule="evenodd" d="M15.398 44.8662L15.5668 44.9679L15.5679 44.9674L15.5674 44.9685L15.5689 44.9691L15.5674 44.9703L15.561 44.9993L15.5535 45.0313L15.4951 45.0418L15.441 45.0516L15.4351 45.0551L15.4288 45.0848L15.4213 45.1173L15.3624 45.1278L15.3077 45.1377L15.3024 45.1412L15.296 45.1708L15.2886 45.2034L15.2302 45.2138L15.1749 45.2237L15.1707 45.2266L15.1643 45.2568L15.1569 45.2888L15.098 45.2993L15.0422 45.3092L15.039 45.3115L15.0321 45.3423L15.0252 45.3743L14.9663 45.3847L14.9095 45.3952L14.9068 45.3969L14.8999 45.4283L14.893 45.4603L14.8341 45.4714L14.7767 45.4818L14.7751 45.483L14.7682 45.5149L14.7613 45.5469L14.7024 45.5574L14.6434 45.5679L14.6445 45.5673L14.2383 45.3237C14.6535 45.2499 15.0502 45.0813 15.398 44.8662Z" fill="#CACACA"/>
<path fill-rule="evenodd" clip-rule="evenodd" d="M30.1157 50.8625L30.9605 52.453L43.0204 44.7466C43.2748 44.6507 43.3178 44.2141 43.1149 43.7642C42.91 43.3102 42.5314 43.0149 42.2701 43.1044C42.2621 43.1073 42.2542 43.1102 42.2462 43.1137L42.2446 43.1113L42.217 43.1294C42.2117 43.1323 42.2069 43.1358 42.2016 43.1387L30.1157 50.8625Z" fill="#E3E3E3"/>
<path fill-rule="evenodd" clip-rule="evenodd" d="M30.0652 51.8237C29.8603 51.3697 29.9059 50.9285 30.1672 50.8384C30.429 50.7483 30.807 51.0442 31.012 51.4982C31.217 51.9522 31.1713 52.3934 30.9095 52.4835C30.6488 52.573 30.2702 52.2777 30.0652 51.8237Z" fill="#AFAFAF"/>
<path fill-rule="evenodd" clip-rule="evenodd" d="M30.139 51.7985C29.9659 51.4148 30.0047 51.0428 30.225 50.9666C30.4459 50.8911 30.765 51.1404 30.9381 51.5235C31.1112 51.9066 31.073 52.2792 30.8521 52.3554C30.6318 52.4315 30.3121 52.1821 30.139 51.7985Z" fill="#666666"/>
<path fill-rule="evenodd" clip-rule="evenodd" d="M30.6504 50.9223L42.6078 43.2246C42.6784 43.2717 42.7485 43.3339 42.8143 43.4083L30.8304 51.0938C30.7731 51.0269 30.7125 50.9694 30.6504 50.9223Z" fill="white"/>
<path fill-rule="evenodd" clip-rule="evenodd" d="M40.147 46.6118L40.8298 47.8976L41.5244 47.45C41.7118 47.3291 41.7644 47.0193 41.6008 46.656C41.4352 46.2886 41.1293 46.0502 40.918 46.1229C40.9111 46.1252 40.9047 46.1276 40.8989 46.1305L40.8978 46.1287L40.8755 46.1433C40.8712 46.1456 40.867 46.1485 40.8633 46.1508L40.147 46.6118Z" fill="white"/>
<path fill-rule="evenodd" clip-rule="evenodd" d="M40.1057 47.388C39.94 47.0212 39.9767 46.6643 40.188 46.5916C40.3993 46.519 40.7052 46.7579 40.8708 47.1247C41.0365 47.4915 40.9993 47.8484 40.788 47.9205C40.5772 47.9937 40.2719 47.7548 40.1057 47.388Z" fill="#979797"/>
<path fill-rule="evenodd" clip-rule="evenodd" d="M40.1656 47.3681C40.0259 47.0583 40.0567 46.7572 40.2351 46.6961C40.4135 46.6345 40.6716 46.8362 40.8118 47.1461C40.952 47.4559 40.9206 47.757 40.7422 47.8181C40.5638 47.8797 40.3052 47.678 40.1656 47.3681Z" fill="#4D4D4D"/>
<path fill-rule="evenodd" clip-rule="evenodd" d="M40.8178 46.7131L41.395 46.3364C41.4736 46.4236 41.5452 46.5323 41.601 46.6556C41.6175 46.6922 41.6318 46.7282 41.644 46.7637L41.0668 47.1404C40.8273 47.0602 40.7445 46.9055 40.8178 46.7131Z" fill="#AFAFAF"/>
<path fill-rule="evenodd" clip-rule="evenodd" d="M41.3269 46.2659L40.7487 46.6431C40.4571 46.6385 40.2872 46.5298 40.3366 46.5147L40.9499 46.1141C41.0641 46.0915 41.2005 46.1508 41.3269 46.2659Z" fill="#DCDCDD"/>
<path fill-rule="evenodd" clip-rule="evenodd" d="M41.0883 47.2302L41.6697 46.8506C41.7239 47.0628 41.6994 47.2441 41.6161 47.3616L41.0654 47.7208C41.0028 47.7318 40.9364 47.6162 41.0883 47.2302Z" fill="#979797"/>
<path fill-rule="evenodd" clip-rule="evenodd" d="M29.311 53.8868L29.7672 54.7454L40.6891 47.7052C40.8266 47.6534 40.85 47.4174 40.7401 47.175C40.6296 46.9297 40.4252 46.7704 40.284 46.8187C40.2797 46.8204 40.2755 46.8216 40.2712 46.8239L40.2707 46.8227L40.2558 46.8326C40.2532 46.8344 40.2505 46.8361 40.2479 46.8379L29.311 53.8868Z" fill="#666666"/>
<path fill-rule="evenodd" clip-rule="evenodd" d="M29.2835 54.4049C29.173 54.1596 29.1975 53.9213 29.3387 53.873C29.4799 53.8242 29.6839 53.9841 29.7948 54.2294C29.9058 54.4747 29.8809 54.7124 29.7396 54.7613C29.5984 54.8095 29.3945 54.6502 29.2835 54.4049Z" fill="#AFAFAF"/>
<path fill-rule="evenodd" clip-rule="evenodd" d="M29.3236 54.3916C29.2302 54.1846 29.2509 53.9835 29.3703 53.9428C29.4898 53.9021 29.6619 54.0364 29.7553 54.2433C29.8488 54.4503 29.8281 54.6514 29.7086 54.6921C29.5896 54.7334 29.4171 54.5985 29.3236 54.3916Z" fill="#666666"/>
<path fill-rule="evenodd" clip-rule="evenodd" d="M28.8594 53.9414L29.5422 55.2266L30.2368 54.779C30.4242 54.6581 30.4773 54.3483 30.3132 53.9856C30.1476 53.6182 29.8417 53.3798 29.6304 53.4525C29.624 53.4548 29.6171 53.4571 29.6113 53.46L29.6102 53.4583L29.5879 53.4723C29.5836 53.4746 29.5794 53.4775 29.5757 53.4798L28.8594 53.9414Z" fill="white"/>
<path fill-rule="evenodd" clip-rule="evenodd" d="M28.8181 54.7186C28.6524 54.3512 28.6891 53.9949 28.9004 53.9222C29.1117 53.8495 29.4176 54.0885 29.5832 54.4553C29.7489 54.8221 29.7117 55.179 29.5004 55.2516C29.2896 55.3243 28.9838 55.0854 28.8181 54.7186Z" fill="#979797"/>
<path fill-rule="evenodd" clip-rule="evenodd" d="M28.8772 54.6982C28.737 54.3884 28.7684 54.0873 28.9468 54.0262C29.1252 53.9646 29.3833 54.1663 29.5234 54.4761C29.6631 54.786 29.6323 55.0871 29.4539 55.1481C29.2755 55.2098 29.0169 55.008 28.8772 54.6982Z" fill="#4D4D4D"/>
<path fill-rule="evenodd" clip-rule="evenodd" d="M29.4346 54.1031L29.9953 53.7427C30.1886 53.8072 30.2762 53.9589 30.2433 54.1705L29.6831 54.5309C29.6326 54.3705 29.5503 54.2159 29.4346 54.1031Z" fill="#AFAFAF"/>
<path fill-rule="evenodd" clip-rule="evenodd" d="M29.927 53.6719L29.3647 54.0335C29.2383 53.9103 29.0981 53.851 28.9872 53.8888C28.9749 53.8928 28.9633 53.8981 28.9526 53.9045L29.5787 53.5004C29.7231 53.4249 29.9477 53.5551 29.927 53.6719Z" fill="#DCDCDD"/>
<path fill-rule="evenodd" clip-rule="evenodd" d="M29.7045 54.6199L30.2716 54.2554C30.4473 54.3193 30.3491 54.689 30.2402 54.7518L29.6816 55.1111C29.7406 55.0361 29.7841 54.8425 29.7045 54.6199Z" fill="#979797"/>
<path fill-rule="evenodd" clip-rule="evenodd" d="M26.9546 26.1767C20.9056 24.2171 16.7144 21.1617 13.7728 17.8442L12.7554 14.3325L12.9651 14.5772L26.01 22.8522C26.208 22.9777 26.3413 23.1574 26.413 23.3951L27.1766 25.9267C27.1983 25.9982 27.1829 26.0715 27.1346 26.1255C27.0868 26.1784 27.0205 26.1976 26.9546 26.1767Z" fill="#A6B5C9"/>
<path fill-rule="evenodd" clip-rule="evenodd" d="M6.6136 10.7778C5.28718 15.2696 15.6532 16.384 16.6987 16.3101C18.2535 16.0067 17.8775 13.9495 16.3939 13.3862C13.6046 12.1172 7.87683 7.47601 6.6136 10.7778Z" fill="#DE7E32"/>
<defs>
<linearGradient id="paint0_linear_1195_22799" x1="23.0228" y1="1.84799" x2="26.9033" y2="20.9453" gradientUnits="userSpaceOnUse">
<stop stop-color="#BBC6D8"/>
<stop offset="1" stop-color="white"/>
</linearGradient>
</defs>
</svg>
