<svg width="41" height="40" viewBox="0 0 41 40" fill="none" xmlns="http://www.w3.org/2000/svg">
<rect x="0.5" width="40" height="40" rx="8" fill="#E9E9E9"/>
<path d="M23.8634 11.8904V11.8868H24.8012L25.1438 11.9553C25.3723 11.9997 25.5797 12.0579 25.766 12.13C25.9524 12.202 26.1327 12.2861 26.307 12.3821C26.4814 12.4781 26.6395 12.576 26.7814 12.6757C26.922 12.7741 27.0483 12.8786 27.1601 12.989C27.2707 13.1007 27.4432 13.1295 27.6776 13.0755C27.9121 13.0214 28.1646 12.9464 28.4351 12.8503C28.7056 12.7543 28.9731 12.6462 29.2376 12.5262C29.5021 12.4061 29.6632 12.3299 29.7209 12.2975C29.7774 12.2638 29.8075 12.2458 29.8111 12.2434L29.8147 12.238L29.8327 12.229L29.8508 12.22L29.8688 12.211L29.8868 12.202L29.8904 12.1966L29.8959 12.193L29.9013 12.1894L29.9049 12.184L29.9229 12.1786L29.9409 12.175L29.9373 12.202L29.9319 12.229L29.9229 12.256L29.9139 12.283L29.9049 12.3011L29.8959 12.3191L29.8868 12.3461C29.8808 12.3641 29.8748 12.3881 29.8688 12.4181C29.8628 12.4481 29.8057 12.5682 29.6975 12.7783C29.5893 12.9884 29.454 13.2015 29.2917 13.4176C29.1294 13.6337 28.9839 13.797 28.8553 13.9075C28.7254 14.0191 28.6395 14.0972 28.5974 14.1416C28.5553 14.1872 28.5042 14.2292 28.4441 14.2677L28.3539 14.3271L28.3359 14.3361L28.3179 14.3451L28.3143 14.3505L28.3088 14.3541L28.3034 14.3577L28.2998 14.3631L28.2818 14.3721L28.2638 14.3811L28.2602 14.3865L28.2547 14.3901L28.2493 14.3937L28.2457 14.3991L28.2421 14.4045L28.2367 14.4081L28.2313 14.4118L28.2277 14.4172H28.3179L28.8228 14.3091C29.1595 14.2371 29.4811 14.15 29.7876 14.048L30.2746 13.8859L30.3287 13.8679L30.3557 13.8589L30.3738 13.8499L30.3918 13.8409L30.4098 13.8318L30.4279 13.8228L30.4639 13.8174L30.5 13.8138V13.8499L30.491 13.8535L30.482 13.8589L30.4784 13.8643L30.4729 13.8679L30.4675 13.8715L30.4639 13.8769L30.4603 13.8823L30.4549 13.8859L30.4495 13.8895L30.4459 13.8949L30.4423 13.9003L30.4369 13.9039L30.4279 13.9219L30.4188 13.9399L30.4134 13.9435C30.411 13.9471 30.3347 14.0492 30.1844 14.2497C30.0341 14.4514 29.953 14.5534 29.9409 14.5558C29.9289 14.5594 29.9121 14.5774 29.8904 14.6099C29.87 14.6435 29.7426 14.7773 29.5081 15.0115C29.2737 15.2456 29.0441 15.4539 28.8192 15.6364C28.5932 15.8201 28.479 16.0458 28.4766 16.3135C28.473 16.5801 28.4591 16.8814 28.4351 17.2176C28.411 17.5538 28.366 17.917 28.2998 18.3072C28.2337 18.6974 28.1315 19.1386 27.9932 19.6309C27.855 20.1231 27.6867 20.6034 27.4883 21.0716C27.2899 21.5398 27.0825 21.9601 26.8661 22.3323C26.6497 22.7045 26.4513 23.0196 26.271 23.2778C26.0906 23.5359 25.9073 23.779 25.7209 24.0071C25.5346 24.2353 25.2989 24.4922 25.014 24.7779C24.7278 25.0625 24.5716 25.2186 24.5451 25.2462C24.5175 25.2726 24.3996 25.371 24.1916 25.5415C23.9848 25.7132 23.7624 25.8849 23.5243 26.0566C23.2875 26.2271 23.0699 26.3694 22.8715 26.4834C22.6731 26.5975 22.4339 26.7277 22.1537 26.8742C21.8748 27.0219 21.573 27.1588 21.2484 27.2848C20.9238 27.4109 20.5812 27.528 20.2205 27.636C19.8598 27.7441 19.5111 27.8281 19.1745 27.8881C18.8379 27.9482 18.4561 27.9992 18.0293 28.0412L17.3891 28.1043V28.1133H16.2169V28.1043L16.0636 28.0952C15.9614 28.0893 15.8772 28.0832 15.8111 28.0772C15.745 28.0712 15.4955 28.0382 15.0627 27.9782C14.6298 27.9182 14.2902 27.8581 14.0437 27.7981C13.7973 27.7381 13.4306 27.624 12.9436 27.4559C12.4567 27.2878 12.0401 27.1179 11.6939 26.9463C11.3488 26.7758 11.1324 26.6677 11.0446 26.6221C10.9581 26.5777 10.8607 26.5224 10.7525 26.4564L10.5902 26.3573L10.5866 26.3519L10.5812 26.3483L10.5757 26.3447L10.5721 26.3393L10.5541 26.3303L10.5361 26.3213L10.5325 26.3159L10.5271 26.3123L10.5216 26.3087L10.518 26.3033L10.5144 26.2979L10.509 26.2943H10.5V26.2583L10.518 26.2619L10.5361 26.2673L10.6172 26.2763C10.6713 26.2823 10.8186 26.2913 11.0591 26.3033C11.2995 26.3153 11.555 26.3153 11.8255 26.3033C12.096 26.2913 12.3726 26.2643 12.6551 26.2223C12.9376 26.1803 13.2713 26.1082 13.656 26.0062C14.0407 25.9041 14.3942 25.7828 14.7164 25.6424C15.0374 25.5007 15.2659 25.3951 15.4017 25.3254C15.5364 25.257 15.742 25.1297 16.0185 24.9436L16.4333 24.6645L16.4369 24.6591L16.4423 24.6555L16.4477 24.6519L16.4513 24.6465L16.4549 24.6411L16.4603 24.6375L16.4658 24.6339L16.4693 24.6285L16.4874 24.623L16.5054 24.6194L16.509 24.6014L16.5144 24.5834L16.5199 24.5798L16.5234 24.5744L16.3792 24.5654C16.283 24.5594 16.1898 24.5534 16.0996 24.5474C16.0095 24.5414 15.8682 24.5144 15.6758 24.4664C15.4835 24.4183 15.2761 24.3463 15.0537 24.2503C14.8312 24.1542 14.6148 24.0401 14.4044 23.9081C14.194 23.776 14.0419 23.6661 13.9482 23.5785C13.8556 23.492 13.7353 23.3696 13.5875 23.2111C13.4408 23.0514 13.3133 22.8875 13.2051 22.7195C13.0969 22.5514 12.9935 22.3575 12.895 22.1378L12.7453 21.81L12.7362 21.783L12.7272 21.756L12.7218 21.738L12.7182 21.7199L12.7453 21.7235L12.7723 21.7289L12.9707 21.756C13.103 21.774 13.3104 21.78 13.5929 21.774C13.8754 21.768 14.0708 21.756 14.179 21.738C14.2872 21.7199 14.3533 21.7079 14.3774 21.7019L14.4134 21.6929L14.4585 21.6839L14.5036 21.6749L14.5072 21.6695L14.5126 21.6659L14.5181 21.6623L14.5216 21.6569L14.4856 21.6479L14.4495 21.6389L14.4134 21.6299L14.3774 21.6209L14.3413 21.6119C14.3173 21.6059 14.2752 21.5939 14.2151 21.5759C14.155 21.5579 13.9926 21.4918 13.7281 21.3778C13.4636 21.2637 13.2532 21.1526 13.0969 21.0446C12.9402 20.9362 12.7908 20.8177 12.6497 20.6898C12.509 20.5601 12.3545 20.3932 12.1862 20.1891C12.0179 19.985 11.8676 19.7479 11.7353 19.4778C11.6031 19.2076 11.5039 18.9495 11.4378 18.7034C11.3719 18.4587 11.3285 18.2085 11.308 17.956L11.2755 17.5778L11.2935 17.5814L11.3115 17.5868L11.3296 17.5958L11.3476 17.6048L11.3656 17.6138L11.3837 17.6228L11.6632 17.7489C11.8496 17.8329 12.081 17.905 12.3575 17.965C12.6341 18.025 12.7994 18.058 12.8535 18.064L12.9346 18.0731H13.0969L13.0933 18.0676L13.0879 18.064L13.0825 18.0604L13.0789 18.055L13.0753 18.0496L13.0699 18.046L13.0645 18.0424L13.0609 18.037L13.0428 18.028L13.0248 18.019L13.0212 18.0136L13.0158 18.01L13.0104 18.0064L13.0068 18.001L12.9887 17.992L12.9707 17.983L12.9671 17.9776C12.9635 17.9752 12.9118 17.9368 12.812 17.8623C12.7134 17.7867 12.61 17.6889 12.5018 17.5688C12.3936 17.4487 12.2854 17.3227 12.1772 17.1906C12.0688 17.0582 11.9722 16.9166 11.8886 16.7674C11.8045 16.6173 11.7155 16.4264 11.6217 16.1947C11.5292 15.9642 11.4588 15.7318 11.4107 15.4977C11.3627 15.2636 11.3356 15.0325 11.3296 14.8044C11.3236 14.5762 11.3296 14.3811 11.3476 14.2191C11.3656 14.057 11.4017 13.8739 11.4558 13.6698C11.5099 13.4657 11.5881 13.2496 11.6903 13.0214L11.8436 12.6793L11.8526 12.6522L11.8616 12.6252L11.867 12.6216L11.8706 12.6162L11.8742 12.6108L11.8796 12.6072L11.885 12.6108L11.8886 12.6162L11.8922 12.6216L11.8977 12.6252L11.9031 12.6288L11.9067 12.6342L11.9103 12.6396L11.9157 12.6432L11.9247 12.6612L11.9337 12.6793L11.9392 12.6829L11.9427 12.6883L12.1862 12.9584C12.3485 13.1385 12.5409 13.3396 12.7633 13.5617C12.9857 13.7838 13.109 13.8991 13.133 13.9075C13.1571 13.9171 13.1871 13.9447 13.2232 13.9903C13.2592 14.0348 13.3795 14.141 13.5839 14.3091C13.7883 14.4772 14.0558 14.6723 14.3864 14.8944C14.717 15.1165 15.0837 15.3356 15.4865 15.5517C15.8893 15.7679 16.3221 15.9629 16.7849 16.137C17.2478 16.3111 17.5724 16.4252 17.7588 16.4792C17.9452 16.5333 18.2638 16.6023 18.7146 16.6863C19.1655 16.7704 19.5051 16.8244 19.7335 16.8484C19.962 16.8724 20.1183 16.8862 20.2024 16.8898L20.3287 16.8934L20.3251 16.8664L20.3197 16.8394L20.2836 16.6143C20.2595 16.4642 20.2475 16.2541 20.2475 15.984C20.2475 15.7138 20.2686 15.4647 20.3106 15.2366C20.3527 15.0085 20.4159 14.7773 20.5 14.5432C20.5842 14.3091 20.6665 14.1212 20.7471 13.9795C20.8288 13.8391 20.9358 13.6788 21.0681 13.4987C21.2003 13.3186 21.3717 13.1325 21.5821 12.9404C21.7925 12.7483 22.0329 12.5772 22.3034 12.4271C22.5739 12.277 22.8234 12.163 23.0518 12.0849C23.2803 12.0069 23.4727 11.9559 23.6289 11.9319C23.7852 11.9079 23.8634 11.894 23.8634 11.8904Z" fill="#939393"/>
</svg>
