<svg width="32" height="56" viewBox="0 0 32 56" fill="none" xmlns="http://www.w3.org/2000/svg">
<path opacity="0.4" fill-rule="evenodd" clip-rule="evenodd" d="M16.5319 38.7148C23.2301 38.7148 28.662 41.8678 28.662 45.7562C28.662 49.6445 23.2298 52.7979 16.5319 52.7979C9.83363 52.7979 4.40137 49.6445 4.40137 45.7562C4.40137 41.8678 9.83363 38.7148 16.5319 38.7148Z" fill="#D2D2E1"/>
<path fill-rule="evenodd" clip-rule="evenodd" d="M1.30061 53.0807V18.1477L0.707031 17.7754L0.708317 52.7056L1.30061 53.0807Z" fill="#AFAFAF"/>
<path fill-rule="evenodd" clip-rule="evenodd" d="M27.98 1.31787L14.6717 9.71274V11.6516L20.9571 7.67909V28.5794L14.6717 32.5534V44.645L27.9832 36.248L27.98 1.31787ZM14.672 9.71274L1.30029 18.1478V53.0804L14.672 44.6454V32.5537L8.38652 36.5277V15.6245L14.672 11.652V9.71274Z" fill="#92452E"/>
<path fill-rule="evenodd" clip-rule="evenodd" d="M27.9803 1.31789L1.30028 18.1474L0.707031 17.7751L27.3693 0.943848L27.9803 1.31789Z" fill="#E3E3E3"/>
<path fill-rule="evenodd" clip-rule="evenodd" d="M20.958 7.6792L20.3592 8.05747V28.2013L8.38672 35.7706V36.5275L20.958 28.5795V7.6792Z" fill="#E3E3E3"/>
<path fill-rule="evenodd" clip-rule="evenodd" d="M20.9576 7.6792L20.3589 8.05747V28.1896L20.9576 28.5612V7.6792Z" fill="#AFAFAF"/>
<path fill-rule="evenodd" clip-rule="evenodd" d="M23.3923 29.8196C23.4817 29.6547 22.8492 29.3064 22.7047 29.5561C22.5555 30.0429 22.2733 30.0559 22.1868 30.2862C22.1456 30.387 22.2952 31.5081 22.3518 31.7282C22.3917 31.6665 22.4815 31.6444 22.5728 31.5996C22.6565 31.4637 22.8029 31.5264 22.8772 31.4936C23.0026 31.2245 23.0821 31.3992 23.1323 31.3446C23.2716 31.0255 23.2684 30.5441 23.2433 30.3982C23.1828 30.0513 23.1889 30.1936 23.3923 29.8196Z" fill="#D99E72"/>
<path fill-rule="evenodd" clip-rule="evenodd" d="M8.45139 25.9221C8.21267 25.186 10.2054 22.4941 10.807 21.709C11.176 21.5509 11.5599 21.8383 11.4267 22.1947C11.3459 22.5843 10.6069 24.9567 9.92519 26.2247C9.53494 26.8978 8.89665 26.3832 8.45139 25.9221Z" fill="#CB6117"/>
<path fill-rule="evenodd" clip-rule="evenodd" d="M11.2341 22.4356C11.1285 22.5889 10.5945 22.0806 10.7505 21.8394C11.1051 21.5034 11.0089 21.2128 11.171 21.0377C11.2405 20.9578 11.9341 20.465 12.142 20.4386C12.269 20.3657 12.5432 21.2966 12.4843 21.4516C12.3276 21.6974 11.7997 22.0352 11.6671 22.0648C11.3505 22.1356 11.4731 22.0877 11.2341 22.4356Z" fill="#D99E72"/>
<path fill-rule="evenodd" clip-rule="evenodd" d="M12.4605 21.22L13.0061 21.0844C13.1444 21.0499 13.1653 21.2306 13.0309 21.2803L12.5129 21.4729C12.3836 21.5212 12.3163 21.256 12.4605 21.22Z" fill="#D99E72"/>
<path fill-rule="evenodd" clip-rule="evenodd" d="M12.2981 21.1473C12.2775 21.0744 12.3152 20.9962 12.3814 20.9737L13.0114 20.7602C13.1709 20.706 13.2253 20.9047 13.0699 20.9719L12.4564 21.2385C12.3917 21.2667 12.3187 21.2202 12.2981 21.1473Z" fill="#D99E72"/>
<path fill-rule="evenodd" clip-rule="evenodd" d="M12.2054 20.9011C12.1877 20.8271 12.2263 20.744 12.3003 20.7236L13.003 20.5306C13.1799 20.482 13.2388 20.6954 13.0644 20.7546L12.3753 20.9881C12.3026 21.0134 12.226 20.974 12.2054 20.9011Z" fill="#D99E72"/>
<path fill-rule="evenodd" clip-rule="evenodd" d="M12.178 20.4203L12.823 20.2442C12.9848 20.1998 13.0424 20.4178 12.8829 20.4717L12.2529 20.6852C12.0892 20.7405 12.021 20.4636 12.178 20.4203Z" fill="#D99E72"/>
<path fill-rule="evenodd" clip-rule="evenodd" d="M5.54097 31.4103C5.15008 30.2955 5.12467 29.2935 6.54217 27.5202C6.77349 27.2306 7.30658 26.2593 8.837 25.5999C9.3569 25.5622 10.0332 26.3589 9.47369 27.0718C8.77202 27.9661 6.36458 33.7602 5.54097 31.4103Z" fill="#CB6117"/>
<path fill-rule="evenodd" clip-rule="evenodd" d="M24.7707 19.2491C26.5038 18.8057 25.3411 25.3395 25.1091 25.9132C24.6732 26.7296 23.6688 26.3278 23.6845 25.3874C23.7309 24.2582 22.9841 19.3361 24.7707 19.2491Z" fill="#CB6117"/>
<path fill-rule="evenodd" clip-rule="evenodd" d="M25.1032 25.7268C25.2754 26.4851 23.918 29.4267 23.2331 30.0875C22.8518 30.2055 22.3393 30.041 22.5037 29.7004C22.6186 29.3214 23.2395 26.4118 23.6841 25.3869C24.0149 25.0273 24.7011 25.2203 25.1032 25.7268Z" fill="#DE7E32"/>
<path fill-rule="evenodd" clip-rule="evenodd" d="M24.0051 10.6899L23.4421 11.0457V29.0097L18.0571 32.4141V13.3798H17.4941V32.7702L12.7764 35.753V36.4574L24.0051 29.3583V10.6899Z" fill="#EEF1F4"/>
<path fill-rule="evenodd" clip-rule="evenodd" d="M11.4736 16.6991L12.1203 17.1003L24.6764 9.14991L24.0462 8.7417L11.4736 16.6991Z" fill="#EEF1F4"/>
<path fill-rule="evenodd" clip-rule="evenodd" d="M21.3652 11.2422L15.4153 15.0028L12.1055 17.0945V37.9977L15.4153 35.9052L21.3652 32.1433L24.6767 30.0498V9.14941L21.3652 11.2422ZM18.0538 33.121L15.415 34.7894L12.7763 36.4578V17.7866L15.415 16.1189L18.0538 14.4512V33.121ZM24.0053 29.3584L21.3652 31.0275L18.7252 32.6966V14.0268L21.3652 12.3584L24.0053 10.69V29.3584Z" fill="#C7CAD1"/>
<path fill-rule="evenodd" clip-rule="evenodd" d="M11.4731 16.6987L12.105 17.0943V37.9974L11.4731 37.6019V16.6987Z" fill="#A4AAB2"/>
<path fill-rule="evenodd" clip-rule="evenodd" d="M26.1114 40.6107C26.1114 40.6107 25.8675 41.6846 26.3443 41.4514C26.547 41.3525 26.5286 41.8487 26.5023 42.0125C26.4669 42.2333 26.1851 42.4098 25.8987 42.5552C25.5632 42.6863 25.1755 43.1047 25.0539 43.2012C24.7196 43.466 23.9845 43.4467 23.6406 43.3128C23.4401 43.235 23.3111 43.0983 23.3481 42.9261C23.3722 42.8666 23.3565 42.8433 23.4356 42.7782C23.5161 42.712 24.0462 42.2664 24.2682 42.1344C24.8361 41.7962 25.0651 41.1249 25.1144 40.9714C25.1646 40.8182 25.3277 40.3504 25.3277 40.3504C25.3277 40.3504 25.5847 40.2553 26.1114 40.6107Z" fill="#929292"/>
<path fill-rule="evenodd" clip-rule="evenodd" d="M26.2263 40.4726C26.1732 40.9742 26.5657 40.8837 26.4653 41.7659C26.4283 42.0921 25.8631 42.2777 25.6404 42.4151C25.3245 42.6102 25.266 42.756 25.126 42.9374C24.9973 43.1047 24.8085 43.18 24.5633 43.2167C23.9929 43.3016 23.3208 43.211 23.3942 42.6729C23.4225 42.4654 24.1644 42.1107 24.4202 41.9449C25.0221 41.5772 25.0276 40.7241 25.0765 40.5709C25.1267 40.4173 25.3281 40.3518 25.3281 40.3518C25.3281 40.3518 25.6996 40.1173 26.2263 40.4726Z" fill="#3E3E3D"/>
<path fill-rule="evenodd" clip-rule="evenodd" d="M30.6736 43.0056C30.6736 43.0056 30.5501 44.1038 30.9976 43.8094C31.1877 43.684 31.2244 44.1795 31.2167 44.3454C31.2061 44.5694 30.9458 44.7818 30.6778 44.9642C30.3593 45.1386 30.0208 45.6056 29.9105 45.7176C29.6081 46.0247 28.8761 46.1029 28.52 46.0156C28.3125 45.9649 28.1693 45.8465 28.187 45.6704C28.2044 45.6081 28.1861 45.5873 28.2575 45.5119C28.3299 45.4355 28.807 44.9234 29.0129 44.7624C29.5392 44.3518 29.6924 43.6547 29.7242 43.4962C29.7573 43.3374 29.8674 42.8517 29.8674 42.8517C29.8674 42.8517 30.1112 42.7224 30.6736 43.0056Z" fill="#929292"/>
<path fill-rule="evenodd" clip-rule="evenodd" d="M30.772 42.8527C30.7749 43.3578 31.1542 43.2155 31.1522 44.1048C31.1516 44.4334 30.6111 44.6926 30.4052 44.8585C30.1131 45.0941 30.0709 45.2466 29.9525 45.4453C29.8432 45.6284 29.6643 45.7285 29.4249 45.7971C28.868 45.957 28.1908 45.9563 28.2043 45.4122C28.2094 45.2023 28.9066 44.7521 29.1421 44.5535C29.7601 44.1006 29.5404 43.2433 29.5723 43.0844C29.6054 42.9256 29.867 42.8516 29.867 42.8516C29.867 42.8516 30.2099 42.5695 30.772 42.8527Z" fill="#3E3E3D"/>
<path fill-rule="evenodd" clip-rule="evenodd" d="M29.0917 29.7963C28.5261 31.1262 26.7798 35.8461 26.9529 36.8971C26.376 37.2807 25.2246 37.6811 25.214 36.7728C25.1738 33.6949 25.2433 30.4574 25.8095 27.6411C25.8095 27.6411 27.5185 27.8436 28.8076 28.3089C28.7835 28.6009 29.1393 29.6843 29.0917 29.7963Z" fill="#314A8D"/>
<path fill-rule="evenodd" clip-rule="evenodd" d="M26.9108 35.9526C26.3723 34.0518 25.716 34.9024 25.2047 35.8156C25.2305 37.2801 25.1854 40.3559 24.9287 41.2601C24.93 41.874 26.4865 42.0173 26.5177 41.7598C26.8159 39.1109 27.092 38.3501 26.9108 35.9526Z" fill="#314A8D"/>
<path fill-rule="evenodd" clip-rule="evenodd" d="M30.0978 38.0698C30.2802 39.7132 28.6942 40.095 28.2106 38.728C27.4922 36.6969 26.9321 31.3895 26.8047 28.5817C28.4783 28.2879 29.604 28.2538 30.1071 27.9336C30.4948 30.2807 29.6748 35.3592 30.0978 38.0698Z" fill="#4165BD"/>
<path fill-rule="evenodd" clip-rule="evenodd" d="M29.76 37.4235C28.6549 35.8434 28.4024 37.6777 28.2109 38.728C28.7421 40.0573 29.547 42.9218 29.549 43.896C30.0322 44.468 31.1151 44.2552 31.1408 43.8565C30.9053 41.9261 31.1399 40.0981 29.76 37.4235Z" fill="#4165BD"/>
<path fill-rule="evenodd" clip-rule="evenodd" d="M26.9348 19.5739C27.0496 19.57 28.5386 19.955 29.2312 20.391C29.7128 20.7583 29.4429 21.9509 29.4699 22.0978C29.5607 22.574 29.7396 24.858 29.7907 25.523C29.8422 26.1876 30.2549 27.4623 29.8264 27.8662C28.3819 27.8683 26.0665 28.1406 25.7032 27.2238C25.665 25.8467 25.0234 25.2891 24.4643 23.0854C24.3298 22.5553 23.5883 20.8062 24.1612 19.9025C24.307 19.6714 24.6576 19.4534 24.8874 19.4052C25.7052 19.2326 26.7919 19.5791 26.9348 19.5739Z" fill="#CB6117"/>
<path fill-rule="evenodd" clip-rule="evenodd" d="M25.719 19.7387C24.8645 19.6858 24.4871 21.2444 25.2296 23.8993C24.9887 24.0775 25.0112 23.9493 24.675 23.9458C24.0714 21.7463 23.7848 20.2356 24.8481 19.5981C25.3294 19.652 25.2557 19.5245 25.719 19.7387Z" fill="#4165BD"/>
<path fill-rule="evenodd" clip-rule="evenodd" d="M30.2171 27.8742C28.5779 28.7773 26.0646 29.1017 25.7902 27.7351C25.8002 27.5798 25.685 27.1998 25.6949 27.0444C26.6698 27.8358 29.055 28.137 30.1402 27.4512C30.1659 27.5921 30.1913 27.7334 30.2171 27.8742Z" fill="#314A8D"/>
<path fill-rule="evenodd" clip-rule="evenodd" d="M28.7451 20.5236C30.2382 19.4627 31.3324 26.1445 31.2919 26.7703C31.1349 27.7002 30.1086 27.4681 29.8319 26.5777C29.2193 25.6422 27.0915 21.2689 28.7451 20.5236Z" fill="#DE7E32"/>
<path fill-rule="evenodd" clip-rule="evenodd" d="M29.1602 20.3484C28.3756 20.2769 27.6951 21.3698 27.7296 24.2139C27.4603 24.3999 27.0967 24.3896 26.7837 24.3798C26.8345 22.3775 27.2479 20.0441 28.2752 19.9561C28.4679 19.992 28.7809 20.1114 29.1602 20.3484Z" fill="#4165BD"/>
<path fill-rule="evenodd" clip-rule="evenodd" d="M29.1429 27.8067C28.1259 26.9078 27.8988 25.2915 27.7608 23.0512C26.4421 23.5298 25.2388 23.316 24.2646 22.2622C24.6211 23.7827 24.8946 25.0925 25.6159 26.9469C26.1226 27.6203 27.1145 28.4565 29.1429 27.8067Z" fill="#314A8D"/>
<path fill-rule="evenodd" clip-rule="evenodd" d="M30.9736 27.452C30.4965 28.0328 27.0322 28.161 26.1484 27.9106C25.8454 27.6309 25.8846 26.7486 26.2343 26.7067C26.5856 26.5982 29.438 26.0661 30.4621 25.8945C31.1885 25.9484 31.1309 26.8032 30.9736 27.452Z" fill="#DE7E32"/>
<path fill-rule="evenodd" clip-rule="evenodd" d="M26.9748 23.9445C26.2252 24.0083 25.5235 23.8885 24.8794 23.5469L25.0409 24.3587C25.7088 24.7472 26.3735 24.8338 27.124 24.7694L26.9748 23.9445Z" fill="#4165BD"/>
<path fill-rule="evenodd" clip-rule="evenodd" d="M26.7753 18.5083C26.8193 18.9267 26.8763 19.4934 27.1073 19.8294C27.1417 20.1556 26.902 20.4528 26.5456 20.674C25.777 21.1509 25.1808 20.7614 25.2999 20.2405C25.3092 20.0499 25.5302 19.8495 25.5704 19.6586C25.6139 19.4466 25.978 19.4346 25.9555 19.2212L26.7753 18.5083Z" fill="#D99E72"/>
<path fill-rule="evenodd" clip-rule="evenodd" d="M24.3611 17.0397C24.3836 17.2859 24.3241 17.525 24.2926 17.7691C24.2382 17.9713 24.3884 18.0565 24.402 18.239C24.4071 18.3104 24.3341 18.4115 24.3341 18.5112C24.3338 18.7937 24.4161 19.2318 24.5072 19.4967C24.5577 19.6946 24.6037 19.987 24.908 20.1659C25.3684 20.4505 25.7979 19.9415 26.2277 19.7358C26.654 19.5326 26.4198 18.9511 26.5292 18.5422C27.0449 16.6033 24.7089 15.7386 24.3611 17.0397Z" fill="#ECC19A"/>
<path fill-rule="evenodd" clip-rule="evenodd" d="M27.173 18.1118L27.1636 18.1525C27.1668 18.1391 27.17 18.1253 27.173 18.1118Z" fill="#262424"/>
<path fill-rule="evenodd" clip-rule="evenodd" d="M25.898 17.9971C26.0254 18.0521 26.0563 18.0641 26.1055 18.2359C26.147 18.3814 26.2451 18.3842 26.2413 18.6868C26.248 18.7322 26.7985 18.2018 26.7876 18.5991C26.7753 19.0397 26.942 19.4729 27.0144 19.6624C27.4062 19.5183 27.2151 18.4318 27.2206 18.1549C27.3313 17.5005 27.1225 16.7637 26.8365 16.5312C26.0325 16.6619 25.8633 16.6739 25.5885 17.1909C25.5444 17.4463 25.7339 17.9263 25.898 17.9971Z" fill="#643F42"/>
<path fill-rule="evenodd" clip-rule="evenodd" d="M26.8214 18.4811C26.7799 18.7562 26.6567 18.9618 26.5469 18.9414C26.4369 18.9217 26.4109 18.6734 26.371 18.4448C26.2899 18.1162 26.546 17.9179 26.6972 17.9496C26.8072 17.9728 26.8626 18.2078 26.8214 18.4811Z" fill="#ECC19A"/>
<path fill-rule="evenodd" clip-rule="evenodd" d="M24.8366 19.132C25.0319 19.189 25.1879 19.3405 25.3636 19.5557C25.5682 19.8065 25.7255 19.3947 25.888 19.058C25.9884 18.8495 26.239 18.8964 26.2352 18.56L26.3706 18.4448C26.497 18.8921 26.5633 19.2059 26.5601 19.4398C26.545 20.4341 25.6065 21.1836 24.837 20.7398L24.8366 20.7395V19.6758C24.9724 19.7564 25.1973 19.7807 25.0702 19.6437C25.0203 19.5898 24.9428 19.5233 24.8366 19.4838V19.132ZM24.429 19.2556C24.4683 19.1676 24.4834 19.0925 24.6989 19.1084C24.7475 19.1112 24.7929 19.1193 24.8366 19.132V19.4838C24.8067 19.4729 24.7745 19.4638 24.7398 19.4578C24.4171 19.4021 24.6211 19.73 24.7562 19.6022C24.7713 19.6293 24.8009 19.6543 24.8366 19.6758V20.7395C24.5995 20.6021 24.4123 19.9149 24.3994 19.5067V19.4215C24.402 19.3518 24.4116 19.2943 24.429 19.2556Z" fill="#643F42"/>
<path fill-rule="evenodd" clip-rule="evenodd" d="M26.8359 16.5307C26.7468 15.9636 25.5291 15.8794 24.7328 16.3028C24.3789 16.4137 24.1785 16.3842 23.9594 16.1693C23.7741 16.8367 23.8761 17.3774 24.6344 17.5426C24.766 17.0819 25.3084 17.383 25.6977 17.1227C26.0342 16.9424 26.4997 16.711 26.8359 16.5307Z" fill="#643F42"/>
<path fill-rule="evenodd" clip-rule="evenodd" d="M26.2109 27.6734C26.3862 27.678 26.3537 26.9038 26.0841 26.888C25.6234 26.9834 25.4748 26.7207 25.2489 26.751C25.1486 26.7608 24.3652 27.05 24.2172 27.212C24.0859 27.2761 24.5823 28.089 24.73 28.1348C25.0035 28.1531 25.5729 27.9097 25.6765 27.8143C25.9239 27.5871 25.8132 27.6625 26.2109 27.6734Z" fill="#ECC19A"/>
<path fill-rule="evenodd" clip-rule="evenodd" d="M24.579 27.9713L24.1431 28.3552C24.0324 28.4528 24.1489 28.5828 24.2679 28.4982L24.7274 28.1732C24.8422 28.0921 24.6942 27.8699 24.579 27.9713Z" fill="#D99E72"/>
<path fill-rule="evenodd" clip-rule="evenodd" d="M24.6283 27.7863C24.589 27.7233 24.5099 27.707 24.4523 27.7504L23.9083 28.1582C23.7706 28.2614 23.8787 28.4312 24.0234 28.34L24.5955 27.979C24.656 27.9409 24.6679 27.8493 24.6283 27.7863Z" fill="#D99E72"/>
<path fill-rule="evenodd" clip-rule="evenodd" d="M24.5094 27.5537C24.4676 27.4928 24.384 27.4741 24.3235 27.5252L23.7492 28.0084C23.6044 28.1299 23.7212 28.3131 23.8715 28.2004L24.4666 27.7541C24.5297 27.7066 24.549 27.6168 24.5094 27.5537Z" fill="#D99E72"/>
<path fill-rule="evenodd" clip-rule="evenodd" d="M24.182 27.2323L23.6554 27.6764C23.5232 27.7877 23.6432 27.9723 23.7812 27.8691L24.3252 27.4612C24.4664 27.3548 24.3107 27.1241 24.182 27.2323Z" fill="#D99E72"/>
<path fill-rule="evenodd" clip-rule="evenodd" d="M25.5992 26.9572C25.5455 26.8512 25.3875 26.7525 25.2019 26.7177C25.0162 26.6828 24.8042 26.6761 24.7267 26.6691C24.5263 26.6504 24.5446 26.6913 24.3438 26.6733C24.3274 26.798 24.3461 26.9681 24.7042 26.9667C24.7733 27.004 24.7788 27.0685 25.0462 27.0382C25.3196 27.526 25.7102 27.1586 25.5992 26.9572Z" fill="#ECC19A"/>
<path fill-rule="evenodd" clip-rule="evenodd" d="M8.86026 51.8297C9.21093 52.1006 8.99764 52.9142 8.62766 53.0508C7.78829 53.3615 7.1561 53.7475 6.60209 53.9444C6.40584 54.0141 5.93871 54.0782 5.74117 53.6799C5.69195 53.5263 5.99983 52.9607 5.99983 52.9607C6.98687 53.0772 8.42368 51.5663 8.86026 51.8297Z" fill="#9B9B9A"/>
<path fill-rule="evenodd" clip-rule="evenodd" d="M7.71066 51.8949C8.14466 52.015 8.514 51.6811 8.6591 51.7065C8.77459 51.7251 8.93513 51.8558 8.96859 52.0534C9.02489 52.3841 8.85793 52.7162 8.58833 52.8635C8.29878 53.0216 7.96836 52.949 7.47774 53.1653C7.20813 53.2843 6.54796 53.7052 6.29927 53.7091C6.04962 53.7133 5.83793 53.5351 5.81348 53.3322C5.83149 52.1062 6.87869 51.6649 7.71066 51.8949Z" fill="#3E3E3D"/>
<path fill-rule="evenodd" clip-rule="evenodd" d="M8.52109 46.7379C8.59251 46.5086 8.88302 45.6224 8.92291 45.3005C9.79928 41.5977 9.98491 40.4309 9.70759 38.1327C9.00527 37.8731 7.32943 38.6624 6.69692 37.9707C5.39266 39.3993 7.04471 44.558 6.6506 46.3518C6.93468 46.8742 7.89502 47.338 8.52109 46.7379Z" fill="#314A8D"/>
<path fill-rule="evenodd" clip-rule="evenodd" d="M5.86572 52.9104C6.46477 53.526 7.09341 53.3239 7.45599 52.4504C7.47015 51.0595 8.12581 48.3915 8.56207 46.6034C8.81751 45.4992 7.19765 44.9227 6.63625 46.3516C5.94165 47.94 5.93457 52.2662 5.86572 52.9104Z" fill="#314A8D"/>
<path fill-rule="evenodd" clip-rule="evenodd" d="M12.3827 53.2589C12.7334 53.5298 12.5201 54.3434 12.1501 54.48C11.3107 54.7907 10.6786 55.1767 10.1246 55.3736C9.9283 55.4433 9.46116 55.5074 9.26363 55.1091C9.2144 54.9555 9.52261 54.3899 9.52261 54.3899C10.5096 54.5068 11.9461 52.9955 12.3827 53.2589Z" fill="#9B9B9A"/>
<path fill-rule="evenodd" clip-rule="evenodd" d="M11.2325 53.3241C11.6691 53.434 12.0358 53.1103 12.1809 53.1357C12.2967 53.1544 12.4569 53.285 12.4904 53.4826C12.5467 53.8133 12.3797 54.1455 12.1101 54.2927C11.8206 54.4505 11.4902 54.3783 10.9995 54.5945C10.7296 54.7136 10.0698 55.1345 9.82076 55.1384C9.57111 55.1426 9.35941 54.9644 9.33496 54.7615C9.3533 53.5355 10.2644 53.0804 11.2325 53.3241Z" fill="#3E3E3D"/>
<path fill-rule="evenodd" clip-rule="evenodd" d="M11.1738 47.6625C11.2173 47.4276 11.3244 46.8943 11.3254 46.5721C11.7526 42.8126 11.6422 40.7642 11.0873 38.5301C10.3547 38.3589 8.2571 39.0464 7.54191 38.4399C6.05974 40.4958 9.4806 44.8811 9.12253 47.51C9.46934 47.9915 10.6211 48.3303 11.1738 47.6625Z" fill="#4165BD"/>
<path fill-rule="evenodd" clip-rule="evenodd" d="M9.4098 54.121C10.0951 54.6606 10.6095 54.2728 10.8347 53.3606C10.6372 51.9764 11.0515 49.2578 11.2105 47.428C11.2948 46.2999 9.46063 46.0224 9.12346 47.5105C8.93654 48.8992 9.37988 53.4723 9.4098 54.121Z" fill="#4165BD"/>
<path fill-rule="evenodd" clip-rule="evenodd" d="M9.12328 29.6574C9.24263 29.6937 9.99128 29.9216 10.5183 30.6665C10.9034 31.2156 10.8561 32.5906 10.8406 32.7526C10.7927 33.2742 10.9082 35.8422 11.0275 38.1815C10.8014 38.9553 7.45547 38.799 6.44076 37.8617C6.43143 36.8206 5.88933 34.5802 5.78799 33.9987C5.68729 33.4155 5.21532 30.2259 5.91571 29.1597C6.07689 28.9139 6.62382 28.6575 6.87315 28.6892C7.76335 28.7998 8.97528 29.6127 9.12328 29.6574Z" fill="#CB6117"/>
<path fill-rule="evenodd" clip-rule="evenodd" d="M9.99028 30.1131C9.24357 29.8398 7.81351 31.5618 7.23056 34.3336C6.92846 34.4442 6.85092 34.0878 6.54883 33.9969C7.04235 31.7034 8.1066 29.4756 9.12356 29.6574C9.53311 29.8345 9.67339 29.7845 9.99028 30.1131Z" fill="#4165BD"/>
<path fill-rule="evenodd" clip-rule="evenodd" d="M6.93033 28.6975C6.16592 28.6711 6.2203 29.7527 6.22416 30.4702C6.23059 31.6511 6.53945 32.9803 6.88691 34.1454C6.62889 34.256 6.55939 33.8637 6.22126 33.7728C5.80913 32.7363 5.77214 31.6469 5.65535 30.6276C5.5331 29.5639 5.86318 28.6908 6.56647 28.5725C6.69644 28.551 6.93033 28.6975 6.93033 28.6975Z" fill="#4165BD"/>
<path fill-rule="evenodd" clip-rule="evenodd" d="M8.20696 38.6847C7.73661 37.4037 7.21124 35.9068 7.23086 34.2353C6.88566 34.0525 6.54013 33.8693 6.19492 33.6865C6.12157 34.7114 6.20747 36.501 6.4404 37.8616C6.95451 38.5621 7.55226 38.7861 8.20696 38.6847Z" fill="#314A8D"/>
<path fill-rule="evenodd" clip-rule="evenodd" d="M11.1061 38.6044C10.4521 39.2285 7.3391 39.7885 6.46145 38.4544C6.47174 38.299 6.43056 38.0176 6.44054 37.8623C7.43498 38.6534 9.91995 38.8675 11.0273 38.1821C11.0537 38.3226 11.0798 38.4635 11.1061 38.6044Z" fill="#314A8D"/>
<path fill-rule="evenodd" clip-rule="evenodd" d="M10.0845 30.3378C7.27109 30.6136 9.14319 36.4071 9.5151 37.4042C9.83071 38.0913 10.6633 37.2393 10.6726 36.2989C10.6347 34.3748 11.1346 30.235 10.0845 30.3378Z" fill="#DE7E32"/>
<path fill-rule="evenodd" clip-rule="evenodd" d="M14.3221 35.3607C14.4778 35.3322 14.6566 35.3146 14.7561 35.3414C14.942 35.3917 15.0636 35.4386 15.2605 35.4512C15.2113 35.6175 15.0861 35.7129 14.7332 35.6513C14.2587 35.6675 14.2783 35.92 13.9842 35.7298C13.8852 35.6657 13.7439 35.6538 13.8459 35.5699C14.0405 35.4146 14.1049 35.4005 14.3221 35.3607Z" fill="#D99E72"/>
<path fill-rule="evenodd" clip-rule="evenodd" d="M14.3408 36.9118C14.4862 36.9756 14.5342 36.9763 14.5728 36.972C14.6227 36.9668 14.6995 36.9337 14.6864 36.8745C14.8282 36.8576 14.9457 36.7628 14.936 36.6882C15.0248 36.6801 15.1297 36.605 15.15 36.4811C15.2342 36.4804 15.3687 36.3719 15.268 36.1754C14.9122 36.1486 14.4949 36.6466 14.3408 36.9118Z" fill="#D99E72"/>
<path fill-rule="evenodd" clip-rule="evenodd" d="M13.7777 35.6037C13.9546 35.4205 14.1167 35.3673 14.285 35.4068C14.931 35.5346 15.1437 35.9745 15.2338 36.0957C15.3174 36.2338 15.2627 36.344 15.0845 36.4447C14.9751 36.6349 14.949 36.6321 14.8184 36.6233C14.8255 36.7131 14.6942 36.8375 14.5311 36.7899C14.4591 36.9114 14.358 36.9392 14.2348 36.8699C13.907 36.6582 13.7973 36.4898 13.6348 36.2831C13.2964 35.8513 13.4688 35.7241 13.7777 35.6037Z" fill="#ECC19A"/>
<path fill-rule="evenodd" clip-rule="evenodd" d="M10.0451 38.0992C10.7053 38.3951 13.0188 37.0197 13.7491 36.3787C13.9019 35.9782 13.7343 35.4157 13.4058 35.5534C13.0483 35.633 10.7432 36.235 9.76068 36.5953C9.13751 37.0074 9.66352 37.928 10.0451 38.0992Z" fill="#DE7E32"/>
<path fill-rule="evenodd" clip-rule="evenodd" d="M10.1072 26.4418L9.91516 27.2916L9.20801 27.0793L9.4284 26.2051L10.1072 26.4418Z" fill="#C4C4C4"/>
<path d="M10.0248 26.5245C9.99871 26.775 9.95431 27.0092 9.87034 27.2078L9.65511 27.143V27.2842L9.92922 27.3667C10.019 27.1328 10.1174 26.7848 10.1737 26.4333C9.98069 26.3062 9.81372 26.2382 9.65511 26.1903V26.3361C9.75806 26.3671 9.87356 26.4175 10.0248 26.5245ZM9.65478 27.1427L9.28481 27.0317C9.3469 26.7852 9.40932 26.5386 9.47141 26.2917C9.53157 26.3051 9.59076 26.3171 9.65478 26.3361V26.1903C9.56341 26.1625 9.47463 26.1413 9.38551 26.1191C9.3009 26.4551 9.21596 26.7912 9.13135 27.1268L9.65478 27.2839V27.1427Z" fill="#222221"/>
<path fill-rule="evenodd" clip-rule="evenodd" d="M9.6509 27.4782C9.82784 27.5966 9.83589 27.7839 9.8272 27.8843C9.74034 28.9247 9.13421 29.6432 8.89389 28.6067C8.79094 28.1626 8.52005 27.773 8.92059 27.4842C9.22398 27.2658 9.61229 27.4768 9.6509 27.4782Z" fill="#4D4D4D"/>
<path fill-rule="evenodd" clip-rule="evenodd" d="M9.59425 25.4118C9.67243 25.6429 9.76605 25.8746 9.81334 26.1148C9.84616 26.2828 9.86159 26.3329 9.80175 26.4825C9.71039 26.7125 9.65569 26.7608 9.81173 26.9461C9.9639 27.1267 9.7683 27.7132 9.69559 27.9844C9.638 28.1981 9.60711 28.4486 9.43017 28.5764C8.99005 28.8955 8.49685 28.7036 8.05449 28.531C7.6163 28.3619 6.75763 27.1412 6.62251 26.7421C6.52471 25.9243 6.71709 25.2171 7.96312 24.7208C8.50361 24.5056 9.39832 24.8328 9.59425 25.4118Z" fill="#ECC19A"/>
<path fill-rule="evenodd" clip-rule="evenodd" d="M9.04898 27.6898C9.04898 27.6898 9.11203 28.6767 8.89198 29.5688C8.19545 29.3924 7.33227 29.864 6.69141 29.2131C6.8127 28.9482 7.16112 28.2019 7.06814 27.0812C7.03886 26.7286 9.00072 26.6832 9.04898 27.6898Z" fill="#D99E72"/>
<path fill-rule="evenodd" clip-rule="evenodd" d="M9.35262 26.6046C9.32076 26.7036 9.17824 26.8515 9.41503 27.0724C9.7538 27.3717 9.39412 28.1332 9.17921 27.787C9.0769 27.6218 9.12966 27.0016 9.06081 26.9487C8.85426 26.7895 8.63742 27.3527 8.41029 27.812C8.05479 28.5319 7.13402 28.2216 7.07032 28.1691C6.73701 27.8934 6.44522 27.5489 6.42334 26.9995C6.39793 26.3609 6.19782 25.6526 6.6138 25.1032C7.3306 24.1564 8.8459 23.7975 9.81718 25.0613C10.3178 25.7114 9.53664 26.0337 9.35262 26.6046Z" fill="#4D4D4D"/>
<path fill-rule="evenodd" clip-rule="evenodd" d="M8.72898 26.9344L10.1391 26.4346L10.0802 26.6949L8.74089 27.1136L8.62345 27.6328L8.35449 27.7159L8.72898 26.9344Z" fill="#363636"/>
<path fill-rule="evenodd" clip-rule="evenodd" d="M8.62759 27.2387C8.66458 27.5296 8.84732 27.9364 8.96057 27.9121C9.24883 27.8015 9.10985 27.5909 9.0735 27.3003C9.03585 27.0101 9.10405 26.8326 8.99242 26.8069C8.78233 26.7604 8.59091 26.9471 8.62759 27.2387Z" fill="#ECC19A"/>
<path fill-rule="evenodd" clip-rule="evenodd" d="M11.1021 21.4659C11.0596 21.3539 11.087 21.1574 11.1777 20.9763C11.2681 20.7953 11.3948 20.609 11.438 20.5382C11.5493 20.3547 11.567 20.3959 11.6786 20.2124C11.778 20.2758 11.8604 20.391 11.6371 20.6974C11.621 20.7798 11.6255 20.8495 11.5403 20.9799C11.7195 21.5173 11.1777 21.686 11.1021 21.4659Z" fill="#ECC19A"/>
<path fill-rule="evenodd" clip-rule="evenodd" d="M22.905 31.2692L22.9973 30.6651C23.0208 30.5119 23.1814 30.5591 23.1724 30.7141L23.1386 31.3118C23.1302 31.4611 22.8806 31.4287 22.905 31.2692Z" fill="#ECC19A"/>
<path fill-rule="evenodd" clip-rule="evenodd" d="M22.7633 31.5471C22.6938 31.5404 22.6423 31.4728 22.6484 31.3967L22.707 30.6775C22.7218 30.4954 22.91 30.5158 22.9081 30.6986L22.9007 31.4214C22.8997 31.4974 22.8328 31.5538 22.7633 31.5471Z" fill="#ECC19A"/>
<path fill-rule="evenodd" clip-rule="evenodd" d="M22.4961 31.6219C22.4269 31.6117 22.3713 31.5409 22.3822 31.4585L22.4858 30.6734C22.5119 30.4758 22.7149 30.4973 22.6985 30.6963L22.6345 31.4831C22.6277 31.5662 22.5656 31.6289 22.4961 31.6219Z" fill="#ECC19A"/>
<path fill-rule="evenodd" clip-rule="evenodd" d="M22.1279 31.624L22.2238 30.9038C22.2476 30.7227 22.4535 30.7474 22.4387 30.9295L22.3802 31.6487C22.365 31.8357 22.1048 31.7998 22.1279 31.624Z" fill="#ECC19A"/>
</svg>
